G04 #@! TF.GenerationSoftware,KiCad,Pcbnew,(5.1.5)-3*
G04 #@! TF.CreationDate,2020-03-15T16:40:32+08:00*
G04 #@! TF.ProjectId,InHub_Sub,496e4875-625f-4537-9562-2e6b69636164,rev?*
G04 #@! TF.SameCoordinates,Original*
G04 #@! TF.FileFunction,Paste,Top*
G04 #@! TF.FilePolarity,Positive*
%FSLAX46Y46*%
G04 Gerber Fmt 4.6, Leading zero omitted, Abs format (unit mm)*
G04 Created by KiCad (PCBNEW (5.1.5)-3) date 2020-03-15 16:40:32*
%MOMM*%
%LPD*%
G04 APERTURE LIST*
%ADD10C,0.100000*%
%ADD11R,2.000000X3.800000*%
%ADD12R,2.000000X1.500000*%
%ADD13R,2.500000X6.000000*%
G04 APERTURE END LIST*
D10*
G36*
X61716602Y-76326682D02*
G01*
X61726309Y-76328121D01*
X61735828Y-76330506D01*
X61745068Y-76333812D01*
X61753940Y-76338008D01*
X61762357Y-76343053D01*
X61770239Y-76348899D01*
X61777511Y-76355489D01*
X61784101Y-76362761D01*
X61789947Y-76370643D01*
X61794992Y-76379060D01*
X61799188Y-76387932D01*
X61802494Y-76397172D01*
X61804879Y-76406691D01*
X61806318Y-76416398D01*
X61806800Y-76426200D01*
X61806800Y-76626200D01*
X61806318Y-76636002D01*
X61804879Y-76645709D01*
X61802494Y-76655228D01*
X61799188Y-76664468D01*
X61794992Y-76673340D01*
X61789947Y-76681757D01*
X61784101Y-76689639D01*
X61777511Y-76696911D01*
X61770239Y-76703501D01*
X61762357Y-76709347D01*
X61753940Y-76714392D01*
X61745068Y-76718588D01*
X61735828Y-76721894D01*
X61726309Y-76724279D01*
X61716602Y-76725718D01*
X61706800Y-76726200D01*
X60431800Y-76726200D01*
X60421998Y-76725718D01*
X60412291Y-76724279D01*
X60402772Y-76721894D01*
X60393532Y-76718588D01*
X60384660Y-76714392D01*
X60376243Y-76709347D01*
X60368361Y-76703501D01*
X60361089Y-76696911D01*
X60354499Y-76689639D01*
X60348653Y-76681757D01*
X60343608Y-76673340D01*
X60339412Y-76664468D01*
X60336106Y-76655228D01*
X60333721Y-76645709D01*
X60332282Y-76636002D01*
X60331800Y-76626200D01*
X60331800Y-76426200D01*
X60332282Y-76416398D01*
X60333721Y-76406691D01*
X60336106Y-76397172D01*
X60339412Y-76387932D01*
X60343608Y-76379060D01*
X60348653Y-76370643D01*
X60354499Y-76362761D01*
X60361089Y-76355489D01*
X60368361Y-76348899D01*
X60376243Y-76343053D01*
X60384660Y-76338008D01*
X60393532Y-76333812D01*
X60402772Y-76330506D01*
X60412291Y-76328121D01*
X60421998Y-76326682D01*
X60431800Y-76326200D01*
X61706800Y-76326200D01*
X61716602Y-76326682D01*
G37*
G36*
X61716602Y-76976682D02*
G01*
X61726309Y-76978121D01*
X61735828Y-76980506D01*
X61745068Y-76983812D01*
X61753940Y-76988008D01*
X61762357Y-76993053D01*
X61770239Y-76998899D01*
X61777511Y-77005489D01*
X61784101Y-77012761D01*
X61789947Y-77020643D01*
X61794992Y-77029060D01*
X61799188Y-77037932D01*
X61802494Y-77047172D01*
X61804879Y-77056691D01*
X61806318Y-77066398D01*
X61806800Y-77076200D01*
X61806800Y-77276200D01*
X61806318Y-77286002D01*
X61804879Y-77295709D01*
X61802494Y-77305228D01*
X61799188Y-77314468D01*
X61794992Y-77323340D01*
X61789947Y-77331757D01*
X61784101Y-77339639D01*
X61777511Y-77346911D01*
X61770239Y-77353501D01*
X61762357Y-77359347D01*
X61753940Y-77364392D01*
X61745068Y-77368588D01*
X61735828Y-77371894D01*
X61726309Y-77374279D01*
X61716602Y-77375718D01*
X61706800Y-77376200D01*
X60431800Y-77376200D01*
X60421998Y-77375718D01*
X60412291Y-77374279D01*
X60402772Y-77371894D01*
X60393532Y-77368588D01*
X60384660Y-77364392D01*
X60376243Y-77359347D01*
X60368361Y-77353501D01*
X60361089Y-77346911D01*
X60354499Y-77339639D01*
X60348653Y-77331757D01*
X60343608Y-77323340D01*
X60339412Y-77314468D01*
X60336106Y-77305228D01*
X60333721Y-77295709D01*
X60332282Y-77286002D01*
X60331800Y-77276200D01*
X60331800Y-77076200D01*
X60332282Y-77066398D01*
X60333721Y-77056691D01*
X60336106Y-77047172D01*
X60339412Y-77037932D01*
X60343608Y-77029060D01*
X60348653Y-77020643D01*
X60354499Y-77012761D01*
X60361089Y-77005489D01*
X60368361Y-76998899D01*
X60376243Y-76993053D01*
X60384660Y-76988008D01*
X60393532Y-76983812D01*
X60402772Y-76980506D01*
X60412291Y-76978121D01*
X60421998Y-76976682D01*
X60431800Y-76976200D01*
X61706800Y-76976200D01*
X61716602Y-76976682D01*
G37*
G36*
X61716602Y-77626682D02*
G01*
X61726309Y-77628121D01*
X61735828Y-77630506D01*
X61745068Y-77633812D01*
X61753940Y-77638008D01*
X61762357Y-77643053D01*
X61770239Y-77648899D01*
X61777511Y-77655489D01*
X61784101Y-77662761D01*
X61789947Y-77670643D01*
X61794992Y-77679060D01*
X61799188Y-77687932D01*
X61802494Y-77697172D01*
X61804879Y-77706691D01*
X61806318Y-77716398D01*
X61806800Y-77726200D01*
X61806800Y-77926200D01*
X61806318Y-77936002D01*
X61804879Y-77945709D01*
X61802494Y-77955228D01*
X61799188Y-77964468D01*
X61794992Y-77973340D01*
X61789947Y-77981757D01*
X61784101Y-77989639D01*
X61777511Y-77996911D01*
X61770239Y-78003501D01*
X61762357Y-78009347D01*
X61753940Y-78014392D01*
X61745068Y-78018588D01*
X61735828Y-78021894D01*
X61726309Y-78024279D01*
X61716602Y-78025718D01*
X61706800Y-78026200D01*
X60431800Y-78026200D01*
X60421998Y-78025718D01*
X60412291Y-78024279D01*
X60402772Y-78021894D01*
X60393532Y-78018588D01*
X60384660Y-78014392D01*
X60376243Y-78009347D01*
X60368361Y-78003501D01*
X60361089Y-77996911D01*
X60354499Y-77989639D01*
X60348653Y-77981757D01*
X60343608Y-77973340D01*
X60339412Y-77964468D01*
X60336106Y-77955228D01*
X60333721Y-77945709D01*
X60332282Y-77936002D01*
X60331800Y-77926200D01*
X60331800Y-77726200D01*
X60332282Y-77716398D01*
X60333721Y-77706691D01*
X60336106Y-77697172D01*
X60339412Y-77687932D01*
X60343608Y-77679060D01*
X60348653Y-77670643D01*
X60354499Y-77662761D01*
X60361089Y-77655489D01*
X60368361Y-77648899D01*
X60376243Y-77643053D01*
X60384660Y-77638008D01*
X60393532Y-77633812D01*
X60402772Y-77630506D01*
X60412291Y-77628121D01*
X60421998Y-77626682D01*
X60431800Y-77626200D01*
X61706800Y-77626200D01*
X61716602Y-77626682D01*
G37*
G36*
X61716602Y-78276682D02*
G01*
X61726309Y-78278121D01*
X61735828Y-78280506D01*
X61745068Y-78283812D01*
X61753940Y-78288008D01*
X61762357Y-78293053D01*
X61770239Y-78298899D01*
X61777511Y-78305489D01*
X61784101Y-78312761D01*
X61789947Y-78320643D01*
X61794992Y-78329060D01*
X61799188Y-78337932D01*
X61802494Y-78347172D01*
X61804879Y-78356691D01*
X61806318Y-78366398D01*
X61806800Y-78376200D01*
X61806800Y-78576200D01*
X61806318Y-78586002D01*
X61804879Y-78595709D01*
X61802494Y-78605228D01*
X61799188Y-78614468D01*
X61794992Y-78623340D01*
X61789947Y-78631757D01*
X61784101Y-78639639D01*
X61777511Y-78646911D01*
X61770239Y-78653501D01*
X61762357Y-78659347D01*
X61753940Y-78664392D01*
X61745068Y-78668588D01*
X61735828Y-78671894D01*
X61726309Y-78674279D01*
X61716602Y-78675718D01*
X61706800Y-78676200D01*
X60431800Y-78676200D01*
X60421998Y-78675718D01*
X60412291Y-78674279D01*
X60402772Y-78671894D01*
X60393532Y-78668588D01*
X60384660Y-78664392D01*
X60376243Y-78659347D01*
X60368361Y-78653501D01*
X60361089Y-78646911D01*
X60354499Y-78639639D01*
X60348653Y-78631757D01*
X60343608Y-78623340D01*
X60339412Y-78614468D01*
X60336106Y-78605228D01*
X60333721Y-78595709D01*
X60332282Y-78586002D01*
X60331800Y-78576200D01*
X60331800Y-78376200D01*
X60332282Y-78366398D01*
X60333721Y-78356691D01*
X60336106Y-78347172D01*
X60339412Y-78337932D01*
X60343608Y-78329060D01*
X60348653Y-78320643D01*
X60354499Y-78312761D01*
X60361089Y-78305489D01*
X60368361Y-78298899D01*
X60376243Y-78293053D01*
X60384660Y-78288008D01*
X60393532Y-78283812D01*
X60402772Y-78280506D01*
X60412291Y-78278121D01*
X60421998Y-78276682D01*
X60431800Y-78276200D01*
X61706800Y-78276200D01*
X61716602Y-78276682D01*
G37*
G36*
X61716602Y-78926682D02*
G01*
X61726309Y-78928121D01*
X61735828Y-78930506D01*
X61745068Y-78933812D01*
X61753940Y-78938008D01*
X61762357Y-78943053D01*
X61770239Y-78948899D01*
X61777511Y-78955489D01*
X61784101Y-78962761D01*
X61789947Y-78970643D01*
X61794992Y-78979060D01*
X61799188Y-78987932D01*
X61802494Y-78997172D01*
X61804879Y-79006691D01*
X61806318Y-79016398D01*
X61806800Y-79026200D01*
X61806800Y-79226200D01*
X61806318Y-79236002D01*
X61804879Y-79245709D01*
X61802494Y-79255228D01*
X61799188Y-79264468D01*
X61794992Y-79273340D01*
X61789947Y-79281757D01*
X61784101Y-79289639D01*
X61777511Y-79296911D01*
X61770239Y-79303501D01*
X61762357Y-79309347D01*
X61753940Y-79314392D01*
X61745068Y-79318588D01*
X61735828Y-79321894D01*
X61726309Y-79324279D01*
X61716602Y-79325718D01*
X61706800Y-79326200D01*
X60431800Y-79326200D01*
X60421998Y-79325718D01*
X60412291Y-79324279D01*
X60402772Y-79321894D01*
X60393532Y-79318588D01*
X60384660Y-79314392D01*
X60376243Y-79309347D01*
X60368361Y-79303501D01*
X60361089Y-79296911D01*
X60354499Y-79289639D01*
X60348653Y-79281757D01*
X60343608Y-79273340D01*
X60339412Y-79264468D01*
X60336106Y-79255228D01*
X60333721Y-79245709D01*
X60332282Y-79236002D01*
X60331800Y-79226200D01*
X60331800Y-79026200D01*
X60332282Y-79016398D01*
X60333721Y-79006691D01*
X60336106Y-78997172D01*
X60339412Y-78987932D01*
X60343608Y-78979060D01*
X60348653Y-78970643D01*
X60354499Y-78962761D01*
X60361089Y-78955489D01*
X60368361Y-78948899D01*
X60376243Y-78943053D01*
X60384660Y-78938008D01*
X60393532Y-78933812D01*
X60402772Y-78930506D01*
X60412291Y-78928121D01*
X60421998Y-78926682D01*
X60431800Y-78926200D01*
X61706800Y-78926200D01*
X61716602Y-78926682D01*
G37*
G36*
X61716602Y-79576682D02*
G01*
X61726309Y-79578121D01*
X61735828Y-79580506D01*
X61745068Y-79583812D01*
X61753940Y-79588008D01*
X61762357Y-79593053D01*
X61770239Y-79598899D01*
X61777511Y-79605489D01*
X61784101Y-79612761D01*
X61789947Y-79620643D01*
X61794992Y-79629060D01*
X61799188Y-79637932D01*
X61802494Y-79647172D01*
X61804879Y-79656691D01*
X61806318Y-79666398D01*
X61806800Y-79676200D01*
X61806800Y-79876200D01*
X61806318Y-79886002D01*
X61804879Y-79895709D01*
X61802494Y-79905228D01*
X61799188Y-79914468D01*
X61794992Y-79923340D01*
X61789947Y-79931757D01*
X61784101Y-79939639D01*
X61777511Y-79946911D01*
X61770239Y-79953501D01*
X61762357Y-79959347D01*
X61753940Y-79964392D01*
X61745068Y-79968588D01*
X61735828Y-79971894D01*
X61726309Y-79974279D01*
X61716602Y-79975718D01*
X61706800Y-79976200D01*
X60431800Y-79976200D01*
X60421998Y-79975718D01*
X60412291Y-79974279D01*
X60402772Y-79971894D01*
X60393532Y-79968588D01*
X60384660Y-79964392D01*
X60376243Y-79959347D01*
X60368361Y-79953501D01*
X60361089Y-79946911D01*
X60354499Y-79939639D01*
X60348653Y-79931757D01*
X60343608Y-79923340D01*
X60339412Y-79914468D01*
X60336106Y-79905228D01*
X60333721Y-79895709D01*
X60332282Y-79886002D01*
X60331800Y-79876200D01*
X60331800Y-79676200D01*
X60332282Y-79666398D01*
X60333721Y-79656691D01*
X60336106Y-79647172D01*
X60339412Y-79637932D01*
X60343608Y-79629060D01*
X60348653Y-79620643D01*
X60354499Y-79612761D01*
X60361089Y-79605489D01*
X60368361Y-79598899D01*
X60376243Y-79593053D01*
X60384660Y-79588008D01*
X60393532Y-79583812D01*
X60402772Y-79580506D01*
X60412291Y-79578121D01*
X60421998Y-79576682D01*
X60431800Y-79576200D01*
X61706800Y-79576200D01*
X61716602Y-79576682D01*
G37*
G36*
X61716602Y-80226682D02*
G01*
X61726309Y-80228121D01*
X61735828Y-80230506D01*
X61745068Y-80233812D01*
X61753940Y-80238008D01*
X61762357Y-80243053D01*
X61770239Y-80248899D01*
X61777511Y-80255489D01*
X61784101Y-80262761D01*
X61789947Y-80270643D01*
X61794992Y-80279060D01*
X61799188Y-80287932D01*
X61802494Y-80297172D01*
X61804879Y-80306691D01*
X61806318Y-80316398D01*
X61806800Y-80326200D01*
X61806800Y-80526200D01*
X61806318Y-80536002D01*
X61804879Y-80545709D01*
X61802494Y-80555228D01*
X61799188Y-80564468D01*
X61794992Y-80573340D01*
X61789947Y-80581757D01*
X61784101Y-80589639D01*
X61777511Y-80596911D01*
X61770239Y-80603501D01*
X61762357Y-80609347D01*
X61753940Y-80614392D01*
X61745068Y-80618588D01*
X61735828Y-80621894D01*
X61726309Y-80624279D01*
X61716602Y-80625718D01*
X61706800Y-80626200D01*
X60431800Y-80626200D01*
X60421998Y-80625718D01*
X60412291Y-80624279D01*
X60402772Y-80621894D01*
X60393532Y-80618588D01*
X60384660Y-80614392D01*
X60376243Y-80609347D01*
X60368361Y-80603501D01*
X60361089Y-80596911D01*
X60354499Y-80589639D01*
X60348653Y-80581757D01*
X60343608Y-80573340D01*
X60339412Y-80564468D01*
X60336106Y-80555228D01*
X60333721Y-80545709D01*
X60332282Y-80536002D01*
X60331800Y-80526200D01*
X60331800Y-80326200D01*
X60332282Y-80316398D01*
X60333721Y-80306691D01*
X60336106Y-80297172D01*
X60339412Y-80287932D01*
X60343608Y-80279060D01*
X60348653Y-80270643D01*
X60354499Y-80262761D01*
X60361089Y-80255489D01*
X60368361Y-80248899D01*
X60376243Y-80243053D01*
X60384660Y-80238008D01*
X60393532Y-80233812D01*
X60402772Y-80230506D01*
X60412291Y-80228121D01*
X60421998Y-80226682D01*
X60431800Y-80226200D01*
X61706800Y-80226200D01*
X61716602Y-80226682D01*
G37*
G36*
X61716602Y-80876682D02*
G01*
X61726309Y-80878121D01*
X61735828Y-80880506D01*
X61745068Y-80883812D01*
X61753940Y-80888008D01*
X61762357Y-80893053D01*
X61770239Y-80898899D01*
X61777511Y-80905489D01*
X61784101Y-80912761D01*
X61789947Y-80920643D01*
X61794992Y-80929060D01*
X61799188Y-80937932D01*
X61802494Y-80947172D01*
X61804879Y-80956691D01*
X61806318Y-80966398D01*
X61806800Y-80976200D01*
X61806800Y-81176200D01*
X61806318Y-81186002D01*
X61804879Y-81195709D01*
X61802494Y-81205228D01*
X61799188Y-81214468D01*
X61794992Y-81223340D01*
X61789947Y-81231757D01*
X61784101Y-81239639D01*
X61777511Y-81246911D01*
X61770239Y-81253501D01*
X61762357Y-81259347D01*
X61753940Y-81264392D01*
X61745068Y-81268588D01*
X61735828Y-81271894D01*
X61726309Y-81274279D01*
X61716602Y-81275718D01*
X61706800Y-81276200D01*
X60431800Y-81276200D01*
X60421998Y-81275718D01*
X60412291Y-81274279D01*
X60402772Y-81271894D01*
X60393532Y-81268588D01*
X60384660Y-81264392D01*
X60376243Y-81259347D01*
X60368361Y-81253501D01*
X60361089Y-81246911D01*
X60354499Y-81239639D01*
X60348653Y-81231757D01*
X60343608Y-81223340D01*
X60339412Y-81214468D01*
X60336106Y-81205228D01*
X60333721Y-81195709D01*
X60332282Y-81186002D01*
X60331800Y-81176200D01*
X60331800Y-80976200D01*
X60332282Y-80966398D01*
X60333721Y-80956691D01*
X60336106Y-80947172D01*
X60339412Y-80937932D01*
X60343608Y-80929060D01*
X60348653Y-80920643D01*
X60354499Y-80912761D01*
X60361089Y-80905489D01*
X60368361Y-80898899D01*
X60376243Y-80893053D01*
X60384660Y-80888008D01*
X60393532Y-80883812D01*
X60402772Y-80880506D01*
X60412291Y-80878121D01*
X60421998Y-80876682D01*
X60431800Y-80876200D01*
X61706800Y-80876200D01*
X61716602Y-80876682D01*
G37*
G36*
X61716602Y-81526682D02*
G01*
X61726309Y-81528121D01*
X61735828Y-81530506D01*
X61745068Y-81533812D01*
X61753940Y-81538008D01*
X61762357Y-81543053D01*
X61770239Y-81548899D01*
X61777511Y-81555489D01*
X61784101Y-81562761D01*
X61789947Y-81570643D01*
X61794992Y-81579060D01*
X61799188Y-81587932D01*
X61802494Y-81597172D01*
X61804879Y-81606691D01*
X61806318Y-81616398D01*
X61806800Y-81626200D01*
X61806800Y-81826200D01*
X61806318Y-81836002D01*
X61804879Y-81845709D01*
X61802494Y-81855228D01*
X61799188Y-81864468D01*
X61794992Y-81873340D01*
X61789947Y-81881757D01*
X61784101Y-81889639D01*
X61777511Y-81896911D01*
X61770239Y-81903501D01*
X61762357Y-81909347D01*
X61753940Y-81914392D01*
X61745068Y-81918588D01*
X61735828Y-81921894D01*
X61726309Y-81924279D01*
X61716602Y-81925718D01*
X61706800Y-81926200D01*
X60431800Y-81926200D01*
X60421998Y-81925718D01*
X60412291Y-81924279D01*
X60402772Y-81921894D01*
X60393532Y-81918588D01*
X60384660Y-81914392D01*
X60376243Y-81909347D01*
X60368361Y-81903501D01*
X60361089Y-81896911D01*
X60354499Y-81889639D01*
X60348653Y-81881757D01*
X60343608Y-81873340D01*
X60339412Y-81864468D01*
X60336106Y-81855228D01*
X60333721Y-81845709D01*
X60332282Y-81836002D01*
X60331800Y-81826200D01*
X60331800Y-81626200D01*
X60332282Y-81616398D01*
X60333721Y-81606691D01*
X60336106Y-81597172D01*
X60339412Y-81587932D01*
X60343608Y-81579060D01*
X60348653Y-81570643D01*
X60354499Y-81562761D01*
X60361089Y-81555489D01*
X60368361Y-81548899D01*
X60376243Y-81543053D01*
X60384660Y-81538008D01*
X60393532Y-81533812D01*
X60402772Y-81530506D01*
X60412291Y-81528121D01*
X60421998Y-81526682D01*
X60431800Y-81526200D01*
X61706800Y-81526200D01*
X61716602Y-81526682D01*
G37*
G36*
X61716602Y-82176682D02*
G01*
X61726309Y-82178121D01*
X61735828Y-82180506D01*
X61745068Y-82183812D01*
X61753940Y-82188008D01*
X61762357Y-82193053D01*
X61770239Y-82198899D01*
X61777511Y-82205489D01*
X61784101Y-82212761D01*
X61789947Y-82220643D01*
X61794992Y-82229060D01*
X61799188Y-82237932D01*
X61802494Y-82247172D01*
X61804879Y-82256691D01*
X61806318Y-82266398D01*
X61806800Y-82276200D01*
X61806800Y-82476200D01*
X61806318Y-82486002D01*
X61804879Y-82495709D01*
X61802494Y-82505228D01*
X61799188Y-82514468D01*
X61794992Y-82523340D01*
X61789947Y-82531757D01*
X61784101Y-82539639D01*
X61777511Y-82546911D01*
X61770239Y-82553501D01*
X61762357Y-82559347D01*
X61753940Y-82564392D01*
X61745068Y-82568588D01*
X61735828Y-82571894D01*
X61726309Y-82574279D01*
X61716602Y-82575718D01*
X61706800Y-82576200D01*
X60431800Y-82576200D01*
X60421998Y-82575718D01*
X60412291Y-82574279D01*
X60402772Y-82571894D01*
X60393532Y-82568588D01*
X60384660Y-82564392D01*
X60376243Y-82559347D01*
X60368361Y-82553501D01*
X60361089Y-82546911D01*
X60354499Y-82539639D01*
X60348653Y-82531757D01*
X60343608Y-82523340D01*
X60339412Y-82514468D01*
X60336106Y-82505228D01*
X60333721Y-82495709D01*
X60332282Y-82486002D01*
X60331800Y-82476200D01*
X60331800Y-82276200D01*
X60332282Y-82266398D01*
X60333721Y-82256691D01*
X60336106Y-82247172D01*
X60339412Y-82237932D01*
X60343608Y-82229060D01*
X60348653Y-82220643D01*
X60354499Y-82212761D01*
X60361089Y-82205489D01*
X60368361Y-82198899D01*
X60376243Y-82193053D01*
X60384660Y-82188008D01*
X60393532Y-82183812D01*
X60402772Y-82180506D01*
X60412291Y-82178121D01*
X60421998Y-82176682D01*
X60431800Y-82176200D01*
X61706800Y-82176200D01*
X61716602Y-82176682D01*
G37*
G36*
X67441602Y-82176682D02*
G01*
X67451309Y-82178121D01*
X67460828Y-82180506D01*
X67470068Y-82183812D01*
X67478940Y-82188008D01*
X67487357Y-82193053D01*
X67495239Y-82198899D01*
X67502511Y-82205489D01*
X67509101Y-82212761D01*
X67514947Y-82220643D01*
X67519992Y-82229060D01*
X67524188Y-82237932D01*
X67527494Y-82247172D01*
X67529879Y-82256691D01*
X67531318Y-82266398D01*
X67531800Y-82276200D01*
X67531800Y-82476200D01*
X67531318Y-82486002D01*
X67529879Y-82495709D01*
X67527494Y-82505228D01*
X67524188Y-82514468D01*
X67519992Y-82523340D01*
X67514947Y-82531757D01*
X67509101Y-82539639D01*
X67502511Y-82546911D01*
X67495239Y-82553501D01*
X67487357Y-82559347D01*
X67478940Y-82564392D01*
X67470068Y-82568588D01*
X67460828Y-82571894D01*
X67451309Y-82574279D01*
X67441602Y-82575718D01*
X67431800Y-82576200D01*
X66156800Y-82576200D01*
X66146998Y-82575718D01*
X66137291Y-82574279D01*
X66127772Y-82571894D01*
X66118532Y-82568588D01*
X66109660Y-82564392D01*
X66101243Y-82559347D01*
X66093361Y-82553501D01*
X66086089Y-82546911D01*
X66079499Y-82539639D01*
X66073653Y-82531757D01*
X66068608Y-82523340D01*
X66064412Y-82514468D01*
X66061106Y-82505228D01*
X66058721Y-82495709D01*
X66057282Y-82486002D01*
X66056800Y-82476200D01*
X66056800Y-82276200D01*
X66057282Y-82266398D01*
X66058721Y-82256691D01*
X66061106Y-82247172D01*
X66064412Y-82237932D01*
X66068608Y-82229060D01*
X66073653Y-82220643D01*
X66079499Y-82212761D01*
X66086089Y-82205489D01*
X66093361Y-82198899D01*
X66101243Y-82193053D01*
X66109660Y-82188008D01*
X66118532Y-82183812D01*
X66127772Y-82180506D01*
X66137291Y-82178121D01*
X66146998Y-82176682D01*
X66156800Y-82176200D01*
X67431800Y-82176200D01*
X67441602Y-82176682D01*
G37*
G36*
X67441602Y-81526682D02*
G01*
X67451309Y-81528121D01*
X67460828Y-81530506D01*
X67470068Y-81533812D01*
X67478940Y-81538008D01*
X67487357Y-81543053D01*
X67495239Y-81548899D01*
X67502511Y-81555489D01*
X67509101Y-81562761D01*
X67514947Y-81570643D01*
X67519992Y-81579060D01*
X67524188Y-81587932D01*
X67527494Y-81597172D01*
X67529879Y-81606691D01*
X67531318Y-81616398D01*
X67531800Y-81626200D01*
X67531800Y-81826200D01*
X67531318Y-81836002D01*
X67529879Y-81845709D01*
X67527494Y-81855228D01*
X67524188Y-81864468D01*
X67519992Y-81873340D01*
X67514947Y-81881757D01*
X67509101Y-81889639D01*
X67502511Y-81896911D01*
X67495239Y-81903501D01*
X67487357Y-81909347D01*
X67478940Y-81914392D01*
X67470068Y-81918588D01*
X67460828Y-81921894D01*
X67451309Y-81924279D01*
X67441602Y-81925718D01*
X67431800Y-81926200D01*
X66156800Y-81926200D01*
X66146998Y-81925718D01*
X66137291Y-81924279D01*
X66127772Y-81921894D01*
X66118532Y-81918588D01*
X66109660Y-81914392D01*
X66101243Y-81909347D01*
X66093361Y-81903501D01*
X66086089Y-81896911D01*
X66079499Y-81889639D01*
X66073653Y-81881757D01*
X66068608Y-81873340D01*
X66064412Y-81864468D01*
X66061106Y-81855228D01*
X66058721Y-81845709D01*
X66057282Y-81836002D01*
X66056800Y-81826200D01*
X66056800Y-81626200D01*
X66057282Y-81616398D01*
X66058721Y-81606691D01*
X66061106Y-81597172D01*
X66064412Y-81587932D01*
X66068608Y-81579060D01*
X66073653Y-81570643D01*
X66079499Y-81562761D01*
X66086089Y-81555489D01*
X66093361Y-81548899D01*
X66101243Y-81543053D01*
X66109660Y-81538008D01*
X66118532Y-81533812D01*
X66127772Y-81530506D01*
X66137291Y-81528121D01*
X66146998Y-81526682D01*
X66156800Y-81526200D01*
X67431800Y-81526200D01*
X67441602Y-81526682D01*
G37*
G36*
X67441602Y-80876682D02*
G01*
X67451309Y-80878121D01*
X67460828Y-80880506D01*
X67470068Y-80883812D01*
X67478940Y-80888008D01*
X67487357Y-80893053D01*
X67495239Y-80898899D01*
X67502511Y-80905489D01*
X67509101Y-80912761D01*
X67514947Y-80920643D01*
X67519992Y-80929060D01*
X67524188Y-80937932D01*
X67527494Y-80947172D01*
X67529879Y-80956691D01*
X67531318Y-80966398D01*
X67531800Y-80976200D01*
X67531800Y-81176200D01*
X67531318Y-81186002D01*
X67529879Y-81195709D01*
X67527494Y-81205228D01*
X67524188Y-81214468D01*
X67519992Y-81223340D01*
X67514947Y-81231757D01*
X67509101Y-81239639D01*
X67502511Y-81246911D01*
X67495239Y-81253501D01*
X67487357Y-81259347D01*
X67478940Y-81264392D01*
X67470068Y-81268588D01*
X67460828Y-81271894D01*
X67451309Y-81274279D01*
X67441602Y-81275718D01*
X67431800Y-81276200D01*
X66156800Y-81276200D01*
X66146998Y-81275718D01*
X66137291Y-81274279D01*
X66127772Y-81271894D01*
X66118532Y-81268588D01*
X66109660Y-81264392D01*
X66101243Y-81259347D01*
X66093361Y-81253501D01*
X66086089Y-81246911D01*
X66079499Y-81239639D01*
X66073653Y-81231757D01*
X66068608Y-81223340D01*
X66064412Y-81214468D01*
X66061106Y-81205228D01*
X66058721Y-81195709D01*
X66057282Y-81186002D01*
X66056800Y-81176200D01*
X66056800Y-80976200D01*
X66057282Y-80966398D01*
X66058721Y-80956691D01*
X66061106Y-80947172D01*
X66064412Y-80937932D01*
X66068608Y-80929060D01*
X66073653Y-80920643D01*
X66079499Y-80912761D01*
X66086089Y-80905489D01*
X66093361Y-80898899D01*
X66101243Y-80893053D01*
X66109660Y-80888008D01*
X66118532Y-80883812D01*
X66127772Y-80880506D01*
X66137291Y-80878121D01*
X66146998Y-80876682D01*
X66156800Y-80876200D01*
X67431800Y-80876200D01*
X67441602Y-80876682D01*
G37*
G36*
X67441602Y-80226682D02*
G01*
X67451309Y-80228121D01*
X67460828Y-80230506D01*
X67470068Y-80233812D01*
X67478940Y-80238008D01*
X67487357Y-80243053D01*
X67495239Y-80248899D01*
X67502511Y-80255489D01*
X67509101Y-80262761D01*
X67514947Y-80270643D01*
X67519992Y-80279060D01*
X67524188Y-80287932D01*
X67527494Y-80297172D01*
X67529879Y-80306691D01*
X67531318Y-80316398D01*
X67531800Y-80326200D01*
X67531800Y-80526200D01*
X67531318Y-80536002D01*
X67529879Y-80545709D01*
X67527494Y-80555228D01*
X67524188Y-80564468D01*
X67519992Y-80573340D01*
X67514947Y-80581757D01*
X67509101Y-80589639D01*
X67502511Y-80596911D01*
X67495239Y-80603501D01*
X67487357Y-80609347D01*
X67478940Y-80614392D01*
X67470068Y-80618588D01*
X67460828Y-80621894D01*
X67451309Y-80624279D01*
X67441602Y-80625718D01*
X67431800Y-80626200D01*
X66156800Y-80626200D01*
X66146998Y-80625718D01*
X66137291Y-80624279D01*
X66127772Y-80621894D01*
X66118532Y-80618588D01*
X66109660Y-80614392D01*
X66101243Y-80609347D01*
X66093361Y-80603501D01*
X66086089Y-80596911D01*
X66079499Y-80589639D01*
X66073653Y-80581757D01*
X66068608Y-80573340D01*
X66064412Y-80564468D01*
X66061106Y-80555228D01*
X66058721Y-80545709D01*
X66057282Y-80536002D01*
X66056800Y-80526200D01*
X66056800Y-80326200D01*
X66057282Y-80316398D01*
X66058721Y-80306691D01*
X66061106Y-80297172D01*
X66064412Y-80287932D01*
X66068608Y-80279060D01*
X66073653Y-80270643D01*
X66079499Y-80262761D01*
X66086089Y-80255489D01*
X66093361Y-80248899D01*
X66101243Y-80243053D01*
X66109660Y-80238008D01*
X66118532Y-80233812D01*
X66127772Y-80230506D01*
X66137291Y-80228121D01*
X66146998Y-80226682D01*
X66156800Y-80226200D01*
X67431800Y-80226200D01*
X67441602Y-80226682D01*
G37*
G36*
X67441602Y-79576682D02*
G01*
X67451309Y-79578121D01*
X67460828Y-79580506D01*
X67470068Y-79583812D01*
X67478940Y-79588008D01*
X67487357Y-79593053D01*
X67495239Y-79598899D01*
X67502511Y-79605489D01*
X67509101Y-79612761D01*
X67514947Y-79620643D01*
X67519992Y-79629060D01*
X67524188Y-79637932D01*
X67527494Y-79647172D01*
X67529879Y-79656691D01*
X67531318Y-79666398D01*
X67531800Y-79676200D01*
X67531800Y-79876200D01*
X67531318Y-79886002D01*
X67529879Y-79895709D01*
X67527494Y-79905228D01*
X67524188Y-79914468D01*
X67519992Y-79923340D01*
X67514947Y-79931757D01*
X67509101Y-79939639D01*
X67502511Y-79946911D01*
X67495239Y-79953501D01*
X67487357Y-79959347D01*
X67478940Y-79964392D01*
X67470068Y-79968588D01*
X67460828Y-79971894D01*
X67451309Y-79974279D01*
X67441602Y-79975718D01*
X67431800Y-79976200D01*
X66156800Y-79976200D01*
X66146998Y-79975718D01*
X66137291Y-79974279D01*
X66127772Y-79971894D01*
X66118532Y-79968588D01*
X66109660Y-79964392D01*
X66101243Y-79959347D01*
X66093361Y-79953501D01*
X66086089Y-79946911D01*
X66079499Y-79939639D01*
X66073653Y-79931757D01*
X66068608Y-79923340D01*
X66064412Y-79914468D01*
X66061106Y-79905228D01*
X66058721Y-79895709D01*
X66057282Y-79886002D01*
X66056800Y-79876200D01*
X66056800Y-79676200D01*
X66057282Y-79666398D01*
X66058721Y-79656691D01*
X66061106Y-79647172D01*
X66064412Y-79637932D01*
X66068608Y-79629060D01*
X66073653Y-79620643D01*
X66079499Y-79612761D01*
X66086089Y-79605489D01*
X66093361Y-79598899D01*
X66101243Y-79593053D01*
X66109660Y-79588008D01*
X66118532Y-79583812D01*
X66127772Y-79580506D01*
X66137291Y-79578121D01*
X66146998Y-79576682D01*
X66156800Y-79576200D01*
X67431800Y-79576200D01*
X67441602Y-79576682D01*
G37*
G36*
X67441602Y-78926682D02*
G01*
X67451309Y-78928121D01*
X67460828Y-78930506D01*
X67470068Y-78933812D01*
X67478940Y-78938008D01*
X67487357Y-78943053D01*
X67495239Y-78948899D01*
X67502511Y-78955489D01*
X67509101Y-78962761D01*
X67514947Y-78970643D01*
X67519992Y-78979060D01*
X67524188Y-78987932D01*
X67527494Y-78997172D01*
X67529879Y-79006691D01*
X67531318Y-79016398D01*
X67531800Y-79026200D01*
X67531800Y-79226200D01*
X67531318Y-79236002D01*
X67529879Y-79245709D01*
X67527494Y-79255228D01*
X67524188Y-79264468D01*
X67519992Y-79273340D01*
X67514947Y-79281757D01*
X67509101Y-79289639D01*
X67502511Y-79296911D01*
X67495239Y-79303501D01*
X67487357Y-79309347D01*
X67478940Y-79314392D01*
X67470068Y-79318588D01*
X67460828Y-79321894D01*
X67451309Y-79324279D01*
X67441602Y-79325718D01*
X67431800Y-79326200D01*
X66156800Y-79326200D01*
X66146998Y-79325718D01*
X66137291Y-79324279D01*
X66127772Y-79321894D01*
X66118532Y-79318588D01*
X66109660Y-79314392D01*
X66101243Y-79309347D01*
X66093361Y-79303501D01*
X66086089Y-79296911D01*
X66079499Y-79289639D01*
X66073653Y-79281757D01*
X66068608Y-79273340D01*
X66064412Y-79264468D01*
X66061106Y-79255228D01*
X66058721Y-79245709D01*
X66057282Y-79236002D01*
X66056800Y-79226200D01*
X66056800Y-79026200D01*
X66057282Y-79016398D01*
X66058721Y-79006691D01*
X66061106Y-78997172D01*
X66064412Y-78987932D01*
X66068608Y-78979060D01*
X66073653Y-78970643D01*
X66079499Y-78962761D01*
X66086089Y-78955489D01*
X66093361Y-78948899D01*
X66101243Y-78943053D01*
X66109660Y-78938008D01*
X66118532Y-78933812D01*
X66127772Y-78930506D01*
X66137291Y-78928121D01*
X66146998Y-78926682D01*
X66156800Y-78926200D01*
X67431800Y-78926200D01*
X67441602Y-78926682D01*
G37*
G36*
X67441602Y-78276682D02*
G01*
X67451309Y-78278121D01*
X67460828Y-78280506D01*
X67470068Y-78283812D01*
X67478940Y-78288008D01*
X67487357Y-78293053D01*
X67495239Y-78298899D01*
X67502511Y-78305489D01*
X67509101Y-78312761D01*
X67514947Y-78320643D01*
X67519992Y-78329060D01*
X67524188Y-78337932D01*
X67527494Y-78347172D01*
X67529879Y-78356691D01*
X67531318Y-78366398D01*
X67531800Y-78376200D01*
X67531800Y-78576200D01*
X67531318Y-78586002D01*
X67529879Y-78595709D01*
X67527494Y-78605228D01*
X67524188Y-78614468D01*
X67519992Y-78623340D01*
X67514947Y-78631757D01*
X67509101Y-78639639D01*
X67502511Y-78646911D01*
X67495239Y-78653501D01*
X67487357Y-78659347D01*
X67478940Y-78664392D01*
X67470068Y-78668588D01*
X67460828Y-78671894D01*
X67451309Y-78674279D01*
X67441602Y-78675718D01*
X67431800Y-78676200D01*
X66156800Y-78676200D01*
X66146998Y-78675718D01*
X66137291Y-78674279D01*
X66127772Y-78671894D01*
X66118532Y-78668588D01*
X66109660Y-78664392D01*
X66101243Y-78659347D01*
X66093361Y-78653501D01*
X66086089Y-78646911D01*
X66079499Y-78639639D01*
X66073653Y-78631757D01*
X66068608Y-78623340D01*
X66064412Y-78614468D01*
X66061106Y-78605228D01*
X66058721Y-78595709D01*
X66057282Y-78586002D01*
X66056800Y-78576200D01*
X66056800Y-78376200D01*
X66057282Y-78366398D01*
X66058721Y-78356691D01*
X66061106Y-78347172D01*
X66064412Y-78337932D01*
X66068608Y-78329060D01*
X66073653Y-78320643D01*
X66079499Y-78312761D01*
X66086089Y-78305489D01*
X66093361Y-78298899D01*
X66101243Y-78293053D01*
X66109660Y-78288008D01*
X66118532Y-78283812D01*
X66127772Y-78280506D01*
X66137291Y-78278121D01*
X66146998Y-78276682D01*
X66156800Y-78276200D01*
X67431800Y-78276200D01*
X67441602Y-78276682D01*
G37*
G36*
X67441602Y-77626682D02*
G01*
X67451309Y-77628121D01*
X67460828Y-77630506D01*
X67470068Y-77633812D01*
X67478940Y-77638008D01*
X67487357Y-77643053D01*
X67495239Y-77648899D01*
X67502511Y-77655489D01*
X67509101Y-77662761D01*
X67514947Y-77670643D01*
X67519992Y-77679060D01*
X67524188Y-77687932D01*
X67527494Y-77697172D01*
X67529879Y-77706691D01*
X67531318Y-77716398D01*
X67531800Y-77726200D01*
X67531800Y-77926200D01*
X67531318Y-77936002D01*
X67529879Y-77945709D01*
X67527494Y-77955228D01*
X67524188Y-77964468D01*
X67519992Y-77973340D01*
X67514947Y-77981757D01*
X67509101Y-77989639D01*
X67502511Y-77996911D01*
X67495239Y-78003501D01*
X67487357Y-78009347D01*
X67478940Y-78014392D01*
X67470068Y-78018588D01*
X67460828Y-78021894D01*
X67451309Y-78024279D01*
X67441602Y-78025718D01*
X67431800Y-78026200D01*
X66156800Y-78026200D01*
X66146998Y-78025718D01*
X66137291Y-78024279D01*
X66127772Y-78021894D01*
X66118532Y-78018588D01*
X66109660Y-78014392D01*
X66101243Y-78009347D01*
X66093361Y-78003501D01*
X66086089Y-77996911D01*
X66079499Y-77989639D01*
X66073653Y-77981757D01*
X66068608Y-77973340D01*
X66064412Y-77964468D01*
X66061106Y-77955228D01*
X66058721Y-77945709D01*
X66057282Y-77936002D01*
X66056800Y-77926200D01*
X66056800Y-77726200D01*
X66057282Y-77716398D01*
X66058721Y-77706691D01*
X66061106Y-77697172D01*
X66064412Y-77687932D01*
X66068608Y-77679060D01*
X66073653Y-77670643D01*
X66079499Y-77662761D01*
X66086089Y-77655489D01*
X66093361Y-77648899D01*
X66101243Y-77643053D01*
X66109660Y-77638008D01*
X66118532Y-77633812D01*
X66127772Y-77630506D01*
X66137291Y-77628121D01*
X66146998Y-77626682D01*
X66156800Y-77626200D01*
X67431800Y-77626200D01*
X67441602Y-77626682D01*
G37*
G36*
X67441602Y-76976682D02*
G01*
X67451309Y-76978121D01*
X67460828Y-76980506D01*
X67470068Y-76983812D01*
X67478940Y-76988008D01*
X67487357Y-76993053D01*
X67495239Y-76998899D01*
X67502511Y-77005489D01*
X67509101Y-77012761D01*
X67514947Y-77020643D01*
X67519992Y-77029060D01*
X67524188Y-77037932D01*
X67527494Y-77047172D01*
X67529879Y-77056691D01*
X67531318Y-77066398D01*
X67531800Y-77076200D01*
X67531800Y-77276200D01*
X67531318Y-77286002D01*
X67529879Y-77295709D01*
X67527494Y-77305228D01*
X67524188Y-77314468D01*
X67519992Y-77323340D01*
X67514947Y-77331757D01*
X67509101Y-77339639D01*
X67502511Y-77346911D01*
X67495239Y-77353501D01*
X67487357Y-77359347D01*
X67478940Y-77364392D01*
X67470068Y-77368588D01*
X67460828Y-77371894D01*
X67451309Y-77374279D01*
X67441602Y-77375718D01*
X67431800Y-77376200D01*
X66156800Y-77376200D01*
X66146998Y-77375718D01*
X66137291Y-77374279D01*
X66127772Y-77371894D01*
X66118532Y-77368588D01*
X66109660Y-77364392D01*
X66101243Y-77359347D01*
X66093361Y-77353501D01*
X66086089Y-77346911D01*
X66079499Y-77339639D01*
X66073653Y-77331757D01*
X66068608Y-77323340D01*
X66064412Y-77314468D01*
X66061106Y-77305228D01*
X66058721Y-77295709D01*
X66057282Y-77286002D01*
X66056800Y-77276200D01*
X66056800Y-77076200D01*
X66057282Y-77066398D01*
X66058721Y-77056691D01*
X66061106Y-77047172D01*
X66064412Y-77037932D01*
X66068608Y-77029060D01*
X66073653Y-77020643D01*
X66079499Y-77012761D01*
X66086089Y-77005489D01*
X66093361Y-76998899D01*
X66101243Y-76993053D01*
X66109660Y-76988008D01*
X66118532Y-76983812D01*
X66127772Y-76980506D01*
X66137291Y-76978121D01*
X66146998Y-76976682D01*
X66156800Y-76976200D01*
X67431800Y-76976200D01*
X67441602Y-76976682D01*
G37*
G36*
X67441602Y-76326682D02*
G01*
X67451309Y-76328121D01*
X67460828Y-76330506D01*
X67470068Y-76333812D01*
X67478940Y-76338008D01*
X67487357Y-76343053D01*
X67495239Y-76348899D01*
X67502511Y-76355489D01*
X67509101Y-76362761D01*
X67514947Y-76370643D01*
X67519992Y-76379060D01*
X67524188Y-76387932D01*
X67527494Y-76397172D01*
X67529879Y-76406691D01*
X67531318Y-76416398D01*
X67531800Y-76426200D01*
X67531800Y-76626200D01*
X67531318Y-76636002D01*
X67529879Y-76645709D01*
X67527494Y-76655228D01*
X67524188Y-76664468D01*
X67519992Y-76673340D01*
X67514947Y-76681757D01*
X67509101Y-76689639D01*
X67502511Y-76696911D01*
X67495239Y-76703501D01*
X67487357Y-76709347D01*
X67478940Y-76714392D01*
X67470068Y-76718588D01*
X67460828Y-76721894D01*
X67451309Y-76724279D01*
X67441602Y-76725718D01*
X67431800Y-76726200D01*
X66156800Y-76726200D01*
X66146998Y-76725718D01*
X66137291Y-76724279D01*
X66127772Y-76721894D01*
X66118532Y-76718588D01*
X66109660Y-76714392D01*
X66101243Y-76709347D01*
X66093361Y-76703501D01*
X66086089Y-76696911D01*
X66079499Y-76689639D01*
X66073653Y-76681757D01*
X66068608Y-76673340D01*
X66064412Y-76664468D01*
X66061106Y-76655228D01*
X66058721Y-76645709D01*
X66057282Y-76636002D01*
X66056800Y-76626200D01*
X66056800Y-76426200D01*
X66057282Y-76416398D01*
X66058721Y-76406691D01*
X66061106Y-76397172D01*
X66064412Y-76387932D01*
X66068608Y-76379060D01*
X66073653Y-76370643D01*
X66079499Y-76362761D01*
X66086089Y-76355489D01*
X66093361Y-76348899D01*
X66101243Y-76343053D01*
X66109660Y-76338008D01*
X66118532Y-76333812D01*
X66127772Y-76330506D01*
X66137291Y-76328121D01*
X66146998Y-76326682D01*
X66156800Y-76326200D01*
X67431800Y-76326200D01*
X67441602Y-76326682D01*
G37*
G36*
X74165345Y-77859724D02*
G01*
X74189613Y-77863324D01*
X74213412Y-77869285D01*
X74236511Y-77877550D01*
X74258690Y-77888040D01*
X74279733Y-77900652D01*
X74299439Y-77915267D01*
X74317617Y-77931743D01*
X74334093Y-77949921D01*
X74348708Y-77969627D01*
X74361320Y-77990670D01*
X74371810Y-78012849D01*
X74380075Y-78035948D01*
X74386036Y-78059747D01*
X74389636Y-78084015D01*
X74390840Y-78108519D01*
X74390840Y-78958521D01*
X74389636Y-78983025D01*
X74386036Y-79007293D01*
X74380075Y-79031092D01*
X74371810Y-79054191D01*
X74361320Y-79076370D01*
X74348708Y-79097413D01*
X74334093Y-79117119D01*
X74317617Y-79135297D01*
X74299439Y-79151773D01*
X74279733Y-79166388D01*
X74258690Y-79179000D01*
X74236511Y-79189490D01*
X74213412Y-79197755D01*
X74189613Y-79203716D01*
X74165345Y-79207316D01*
X74140841Y-79208520D01*
X73240839Y-79208520D01*
X73216335Y-79207316D01*
X73192067Y-79203716D01*
X73168268Y-79197755D01*
X73145169Y-79189490D01*
X73122990Y-79179000D01*
X73101947Y-79166388D01*
X73082241Y-79151773D01*
X73064063Y-79135297D01*
X73047587Y-79117119D01*
X73032972Y-79097413D01*
X73020360Y-79076370D01*
X73009870Y-79054191D01*
X73001605Y-79031092D01*
X72995644Y-79007293D01*
X72992044Y-78983025D01*
X72990840Y-78958521D01*
X72990840Y-78108519D01*
X72992044Y-78084015D01*
X72995644Y-78059747D01*
X73001605Y-78035948D01*
X73009870Y-78012849D01*
X73020360Y-77990670D01*
X73032972Y-77969627D01*
X73047587Y-77949921D01*
X73064063Y-77931743D01*
X73082241Y-77915267D01*
X73101947Y-77900652D01*
X73122990Y-77888040D01*
X73145169Y-77877550D01*
X73168268Y-77869285D01*
X73192067Y-77863324D01*
X73216335Y-77859724D01*
X73240839Y-77858520D01*
X74140841Y-77858520D01*
X74165345Y-77859724D01*
G37*
G36*
X76865345Y-77859724D02*
G01*
X76889613Y-77863324D01*
X76913412Y-77869285D01*
X76936511Y-77877550D01*
X76958690Y-77888040D01*
X76979733Y-77900652D01*
X76999439Y-77915267D01*
X77017617Y-77931743D01*
X77034093Y-77949921D01*
X77048708Y-77969627D01*
X77061320Y-77990670D01*
X77071810Y-78012849D01*
X77080075Y-78035948D01*
X77086036Y-78059747D01*
X77089636Y-78084015D01*
X77090840Y-78108519D01*
X77090840Y-78958521D01*
X77089636Y-78983025D01*
X77086036Y-79007293D01*
X77080075Y-79031092D01*
X77071810Y-79054191D01*
X77061320Y-79076370D01*
X77048708Y-79097413D01*
X77034093Y-79117119D01*
X77017617Y-79135297D01*
X76999439Y-79151773D01*
X76979733Y-79166388D01*
X76958690Y-79179000D01*
X76936511Y-79189490D01*
X76913412Y-79197755D01*
X76889613Y-79203716D01*
X76865345Y-79207316D01*
X76840841Y-79208520D01*
X75940839Y-79208520D01*
X75916335Y-79207316D01*
X75892067Y-79203716D01*
X75868268Y-79197755D01*
X75845169Y-79189490D01*
X75822990Y-79179000D01*
X75801947Y-79166388D01*
X75782241Y-79151773D01*
X75764063Y-79135297D01*
X75747587Y-79117119D01*
X75732972Y-79097413D01*
X75720360Y-79076370D01*
X75709870Y-79054191D01*
X75701605Y-79031092D01*
X75695644Y-79007293D01*
X75692044Y-78983025D01*
X75690840Y-78958521D01*
X75690840Y-78108519D01*
X75692044Y-78084015D01*
X75695644Y-78059747D01*
X75701605Y-78035948D01*
X75709870Y-78012849D01*
X75720360Y-77990670D01*
X75732972Y-77969627D01*
X75747587Y-77949921D01*
X75764063Y-77931743D01*
X75782241Y-77915267D01*
X75801947Y-77900652D01*
X75822990Y-77888040D01*
X75845169Y-77877550D01*
X75868268Y-77869285D01*
X75892067Y-77863324D01*
X75916335Y-77859724D01*
X75940839Y-77858520D01*
X76840841Y-77858520D01*
X76865345Y-77859724D01*
G37*
D11*
X67742200Y-86969600D03*
D12*
X61442200Y-86969600D03*
X61442200Y-89269600D03*
X61442200Y-84669600D03*
D13*
X58244600Y-83262100D03*
D10*
G36*
X70119942Y-75666274D02*
G01*
X70143603Y-75669784D01*
X70166807Y-75675596D01*
X70189329Y-75683654D01*
X70210953Y-75693882D01*
X70231470Y-75706179D01*
X70250683Y-75720429D01*
X70268407Y-75736493D01*
X70284471Y-75754217D01*
X70298721Y-75773430D01*
X70311018Y-75793947D01*
X70321246Y-75815571D01*
X70329304Y-75838093D01*
X70335116Y-75861297D01*
X70338626Y-75884958D01*
X70339800Y-75908850D01*
X70339800Y-76821350D01*
X70338626Y-76845242D01*
X70335116Y-76868903D01*
X70329304Y-76892107D01*
X70321246Y-76914629D01*
X70311018Y-76936253D01*
X70298721Y-76956770D01*
X70284471Y-76975983D01*
X70268407Y-76993707D01*
X70250683Y-77009771D01*
X70231470Y-77024021D01*
X70210953Y-77036318D01*
X70189329Y-77046546D01*
X70166807Y-77054604D01*
X70143603Y-77060416D01*
X70119942Y-77063926D01*
X70096050Y-77065100D01*
X69608550Y-77065100D01*
X69584658Y-77063926D01*
X69560997Y-77060416D01*
X69537793Y-77054604D01*
X69515271Y-77046546D01*
X69493647Y-77036318D01*
X69473130Y-77024021D01*
X69453917Y-77009771D01*
X69436193Y-76993707D01*
X69420129Y-76975983D01*
X69405879Y-76956770D01*
X69393582Y-76936253D01*
X69383354Y-76914629D01*
X69375296Y-76892107D01*
X69369484Y-76868903D01*
X69365974Y-76845242D01*
X69364800Y-76821350D01*
X69364800Y-75908850D01*
X69365974Y-75884958D01*
X69369484Y-75861297D01*
X69375296Y-75838093D01*
X69383354Y-75815571D01*
X69393582Y-75793947D01*
X69405879Y-75773430D01*
X69420129Y-75754217D01*
X69436193Y-75736493D01*
X69453917Y-75720429D01*
X69473130Y-75706179D01*
X69493647Y-75693882D01*
X69515271Y-75683654D01*
X69537793Y-75675596D01*
X69560997Y-75669784D01*
X69584658Y-75666274D01*
X69608550Y-75665100D01*
X70096050Y-75665100D01*
X70119942Y-75666274D01*
G37*
G36*
X71994942Y-75666274D02*
G01*
X72018603Y-75669784D01*
X72041807Y-75675596D01*
X72064329Y-75683654D01*
X72085953Y-75693882D01*
X72106470Y-75706179D01*
X72125683Y-75720429D01*
X72143407Y-75736493D01*
X72159471Y-75754217D01*
X72173721Y-75773430D01*
X72186018Y-75793947D01*
X72196246Y-75815571D01*
X72204304Y-75838093D01*
X72210116Y-75861297D01*
X72213626Y-75884958D01*
X72214800Y-75908850D01*
X72214800Y-76821350D01*
X72213626Y-76845242D01*
X72210116Y-76868903D01*
X72204304Y-76892107D01*
X72196246Y-76914629D01*
X72186018Y-76936253D01*
X72173721Y-76956770D01*
X72159471Y-76975983D01*
X72143407Y-76993707D01*
X72125683Y-77009771D01*
X72106470Y-77024021D01*
X72085953Y-77036318D01*
X72064329Y-77046546D01*
X72041807Y-77054604D01*
X72018603Y-77060416D01*
X71994942Y-77063926D01*
X71971050Y-77065100D01*
X71483550Y-77065100D01*
X71459658Y-77063926D01*
X71435997Y-77060416D01*
X71412793Y-77054604D01*
X71390271Y-77046546D01*
X71368647Y-77036318D01*
X71348130Y-77024021D01*
X71328917Y-77009771D01*
X71311193Y-76993707D01*
X71295129Y-76975983D01*
X71280879Y-76956770D01*
X71268582Y-76936253D01*
X71258354Y-76914629D01*
X71250296Y-76892107D01*
X71244484Y-76868903D01*
X71240974Y-76845242D01*
X71239800Y-76821350D01*
X71239800Y-75908850D01*
X71240974Y-75884958D01*
X71244484Y-75861297D01*
X71250296Y-75838093D01*
X71258354Y-75815571D01*
X71268582Y-75793947D01*
X71280879Y-75773430D01*
X71295129Y-75754217D01*
X71311193Y-75736493D01*
X71328917Y-75720429D01*
X71348130Y-75706179D01*
X71368647Y-75693882D01*
X71390271Y-75683654D01*
X71412793Y-75675596D01*
X71435997Y-75669784D01*
X71459658Y-75666274D01*
X71483550Y-75665100D01*
X71971050Y-75665100D01*
X71994942Y-75666274D01*
G37*
G36*
X73739442Y-75666274D02*
G01*
X73763103Y-75669784D01*
X73786307Y-75675596D01*
X73808829Y-75683654D01*
X73830453Y-75693882D01*
X73850970Y-75706179D01*
X73870183Y-75720429D01*
X73887907Y-75736493D01*
X73903971Y-75754217D01*
X73918221Y-75773430D01*
X73930518Y-75793947D01*
X73940746Y-75815571D01*
X73948804Y-75838093D01*
X73954616Y-75861297D01*
X73958126Y-75884958D01*
X73959300Y-75908850D01*
X73959300Y-76821350D01*
X73958126Y-76845242D01*
X73954616Y-76868903D01*
X73948804Y-76892107D01*
X73940746Y-76914629D01*
X73930518Y-76936253D01*
X73918221Y-76956770D01*
X73903971Y-76975983D01*
X73887907Y-76993707D01*
X73870183Y-77009771D01*
X73850970Y-77024021D01*
X73830453Y-77036318D01*
X73808829Y-77046546D01*
X73786307Y-77054604D01*
X73763103Y-77060416D01*
X73739442Y-77063926D01*
X73715550Y-77065100D01*
X73228050Y-77065100D01*
X73204158Y-77063926D01*
X73180497Y-77060416D01*
X73157293Y-77054604D01*
X73134771Y-77046546D01*
X73113147Y-77036318D01*
X73092630Y-77024021D01*
X73073417Y-77009771D01*
X73055693Y-76993707D01*
X73039629Y-76975983D01*
X73025379Y-76956770D01*
X73013082Y-76936253D01*
X73002854Y-76914629D01*
X72994796Y-76892107D01*
X72988984Y-76868903D01*
X72985474Y-76845242D01*
X72984300Y-76821350D01*
X72984300Y-75908850D01*
X72985474Y-75884958D01*
X72988984Y-75861297D01*
X72994796Y-75838093D01*
X73002854Y-75815571D01*
X73013082Y-75793947D01*
X73025379Y-75773430D01*
X73039629Y-75754217D01*
X73055693Y-75736493D01*
X73073417Y-75720429D01*
X73092630Y-75706179D01*
X73113147Y-75693882D01*
X73134771Y-75683654D01*
X73157293Y-75675596D01*
X73180497Y-75669784D01*
X73204158Y-75666274D01*
X73228050Y-75665100D01*
X73715550Y-75665100D01*
X73739442Y-75666274D01*
G37*
G36*
X75614442Y-75666274D02*
G01*
X75638103Y-75669784D01*
X75661307Y-75675596D01*
X75683829Y-75683654D01*
X75705453Y-75693882D01*
X75725970Y-75706179D01*
X75745183Y-75720429D01*
X75762907Y-75736493D01*
X75778971Y-75754217D01*
X75793221Y-75773430D01*
X75805518Y-75793947D01*
X75815746Y-75815571D01*
X75823804Y-75838093D01*
X75829616Y-75861297D01*
X75833126Y-75884958D01*
X75834300Y-75908850D01*
X75834300Y-76821350D01*
X75833126Y-76845242D01*
X75829616Y-76868903D01*
X75823804Y-76892107D01*
X75815746Y-76914629D01*
X75805518Y-76936253D01*
X75793221Y-76956770D01*
X75778971Y-76975983D01*
X75762907Y-76993707D01*
X75745183Y-77009771D01*
X75725970Y-77024021D01*
X75705453Y-77036318D01*
X75683829Y-77046546D01*
X75661307Y-77054604D01*
X75638103Y-77060416D01*
X75614442Y-77063926D01*
X75590550Y-77065100D01*
X75103050Y-77065100D01*
X75079158Y-77063926D01*
X75055497Y-77060416D01*
X75032293Y-77054604D01*
X75009771Y-77046546D01*
X74988147Y-77036318D01*
X74967630Y-77024021D01*
X74948417Y-77009771D01*
X74930693Y-76993707D01*
X74914629Y-76975983D01*
X74900379Y-76956770D01*
X74888082Y-76936253D01*
X74877854Y-76914629D01*
X74869796Y-76892107D01*
X74863984Y-76868903D01*
X74860474Y-76845242D01*
X74859300Y-76821350D01*
X74859300Y-75908850D01*
X74860474Y-75884958D01*
X74863984Y-75861297D01*
X74869796Y-75838093D01*
X74877854Y-75815571D01*
X74888082Y-75793947D01*
X74900379Y-75773430D01*
X74914629Y-75754217D01*
X74930693Y-75736493D01*
X74948417Y-75720429D01*
X74967630Y-75706179D01*
X74988147Y-75693882D01*
X75009771Y-75683654D01*
X75032293Y-75675596D01*
X75055497Y-75669784D01*
X75079158Y-75666274D01*
X75103050Y-75665100D01*
X75590550Y-75665100D01*
X75614442Y-75666274D01*
G37*
G36*
X71239642Y-81598974D02*
G01*
X71263303Y-81602484D01*
X71286507Y-81608296D01*
X71309029Y-81616354D01*
X71330653Y-81626582D01*
X71351170Y-81638879D01*
X71370383Y-81653129D01*
X71388107Y-81669193D01*
X71404171Y-81686917D01*
X71418421Y-81706130D01*
X71430718Y-81726647D01*
X71440946Y-81748271D01*
X71449004Y-81770793D01*
X71454816Y-81793997D01*
X71458326Y-81817658D01*
X71459500Y-81841550D01*
X71459500Y-82754050D01*
X71458326Y-82777942D01*
X71454816Y-82801603D01*
X71449004Y-82824807D01*
X71440946Y-82847329D01*
X71430718Y-82868953D01*
X71418421Y-82889470D01*
X71404171Y-82908683D01*
X71388107Y-82926407D01*
X71370383Y-82942471D01*
X71351170Y-82956721D01*
X71330653Y-82969018D01*
X71309029Y-82979246D01*
X71286507Y-82987304D01*
X71263303Y-82993116D01*
X71239642Y-82996626D01*
X71215750Y-82997800D01*
X70728250Y-82997800D01*
X70704358Y-82996626D01*
X70680697Y-82993116D01*
X70657493Y-82987304D01*
X70634971Y-82979246D01*
X70613347Y-82969018D01*
X70592830Y-82956721D01*
X70573617Y-82942471D01*
X70555893Y-82926407D01*
X70539829Y-82908683D01*
X70525579Y-82889470D01*
X70513282Y-82868953D01*
X70503054Y-82847329D01*
X70494996Y-82824807D01*
X70489184Y-82801603D01*
X70485674Y-82777942D01*
X70484500Y-82754050D01*
X70484500Y-81841550D01*
X70485674Y-81817658D01*
X70489184Y-81793997D01*
X70494996Y-81770793D01*
X70503054Y-81748271D01*
X70513282Y-81726647D01*
X70525579Y-81706130D01*
X70539829Y-81686917D01*
X70555893Y-81669193D01*
X70573617Y-81653129D01*
X70592830Y-81638879D01*
X70613347Y-81626582D01*
X70634971Y-81616354D01*
X70657493Y-81608296D01*
X70680697Y-81602484D01*
X70704358Y-81598974D01*
X70728250Y-81597800D01*
X71215750Y-81597800D01*
X71239642Y-81598974D01*
G37*
G36*
X69364642Y-81598974D02*
G01*
X69388303Y-81602484D01*
X69411507Y-81608296D01*
X69434029Y-81616354D01*
X69455653Y-81626582D01*
X69476170Y-81638879D01*
X69495383Y-81653129D01*
X69513107Y-81669193D01*
X69529171Y-81686917D01*
X69543421Y-81706130D01*
X69555718Y-81726647D01*
X69565946Y-81748271D01*
X69574004Y-81770793D01*
X69579816Y-81793997D01*
X69583326Y-81817658D01*
X69584500Y-81841550D01*
X69584500Y-82754050D01*
X69583326Y-82777942D01*
X69579816Y-82801603D01*
X69574004Y-82824807D01*
X69565946Y-82847329D01*
X69555718Y-82868953D01*
X69543421Y-82889470D01*
X69529171Y-82908683D01*
X69513107Y-82926407D01*
X69495383Y-82942471D01*
X69476170Y-82956721D01*
X69455653Y-82969018D01*
X69434029Y-82979246D01*
X69411507Y-82987304D01*
X69388303Y-82993116D01*
X69364642Y-82996626D01*
X69340750Y-82997800D01*
X68853250Y-82997800D01*
X68829358Y-82996626D01*
X68805697Y-82993116D01*
X68782493Y-82987304D01*
X68759971Y-82979246D01*
X68738347Y-82969018D01*
X68717830Y-82956721D01*
X68698617Y-82942471D01*
X68680893Y-82926407D01*
X68664829Y-82908683D01*
X68650579Y-82889470D01*
X68638282Y-82868953D01*
X68628054Y-82847329D01*
X68619996Y-82824807D01*
X68614184Y-82801603D01*
X68610674Y-82777942D01*
X68609500Y-82754050D01*
X68609500Y-81841550D01*
X68610674Y-81817658D01*
X68614184Y-81793997D01*
X68619996Y-81770793D01*
X68628054Y-81748271D01*
X68638282Y-81726647D01*
X68650579Y-81706130D01*
X68664829Y-81686917D01*
X68680893Y-81669193D01*
X68698617Y-81653129D01*
X68717830Y-81638879D01*
X68738347Y-81626582D01*
X68759971Y-81616354D01*
X68782493Y-81608296D01*
X68805697Y-81602484D01*
X68829358Y-81598974D01*
X68853250Y-81597800D01*
X69340750Y-81597800D01*
X69364642Y-81598974D01*
G37*
G36*
X55858642Y-89655974D02*
G01*
X55882303Y-89659484D01*
X55905507Y-89665296D01*
X55928029Y-89673354D01*
X55949653Y-89683582D01*
X55970170Y-89695879D01*
X55989383Y-89710129D01*
X56007107Y-89726193D01*
X56023171Y-89743917D01*
X56037421Y-89763130D01*
X56049718Y-89783647D01*
X56059946Y-89805271D01*
X56068004Y-89827793D01*
X56073816Y-89850997D01*
X56077326Y-89874658D01*
X56078500Y-89898550D01*
X56078500Y-90386050D01*
X56077326Y-90409942D01*
X56073816Y-90433603D01*
X56068004Y-90456807D01*
X56059946Y-90479329D01*
X56049718Y-90500953D01*
X56037421Y-90521470D01*
X56023171Y-90540683D01*
X56007107Y-90558407D01*
X55989383Y-90574471D01*
X55970170Y-90588721D01*
X55949653Y-90601018D01*
X55928029Y-90611246D01*
X55905507Y-90619304D01*
X55882303Y-90625116D01*
X55858642Y-90628626D01*
X55834750Y-90629800D01*
X54922250Y-90629800D01*
X54898358Y-90628626D01*
X54874697Y-90625116D01*
X54851493Y-90619304D01*
X54828971Y-90611246D01*
X54807347Y-90601018D01*
X54786830Y-90588721D01*
X54767617Y-90574471D01*
X54749893Y-90558407D01*
X54733829Y-90540683D01*
X54719579Y-90521470D01*
X54707282Y-90500953D01*
X54697054Y-90479329D01*
X54688996Y-90456807D01*
X54683184Y-90433603D01*
X54679674Y-90409942D01*
X54678500Y-90386050D01*
X54678500Y-89898550D01*
X54679674Y-89874658D01*
X54683184Y-89850997D01*
X54688996Y-89827793D01*
X54697054Y-89805271D01*
X54707282Y-89783647D01*
X54719579Y-89763130D01*
X54733829Y-89743917D01*
X54749893Y-89726193D01*
X54767617Y-89710129D01*
X54786830Y-89695879D01*
X54807347Y-89683582D01*
X54828971Y-89673354D01*
X54851493Y-89665296D01*
X54874697Y-89659484D01*
X54898358Y-89655974D01*
X54922250Y-89654800D01*
X55834750Y-89654800D01*
X55858642Y-89655974D01*
G37*
G36*
X55858642Y-87780974D02*
G01*
X55882303Y-87784484D01*
X55905507Y-87790296D01*
X55928029Y-87798354D01*
X55949653Y-87808582D01*
X55970170Y-87820879D01*
X55989383Y-87835129D01*
X56007107Y-87851193D01*
X56023171Y-87868917D01*
X56037421Y-87888130D01*
X56049718Y-87908647D01*
X56059946Y-87930271D01*
X56068004Y-87952793D01*
X56073816Y-87975997D01*
X56077326Y-87999658D01*
X56078500Y-88023550D01*
X56078500Y-88511050D01*
X56077326Y-88534942D01*
X56073816Y-88558603D01*
X56068004Y-88581807D01*
X56059946Y-88604329D01*
X56049718Y-88625953D01*
X56037421Y-88646470D01*
X56023171Y-88665683D01*
X56007107Y-88683407D01*
X55989383Y-88699471D01*
X55970170Y-88713721D01*
X55949653Y-88726018D01*
X55928029Y-88736246D01*
X55905507Y-88744304D01*
X55882303Y-88750116D01*
X55858642Y-88753626D01*
X55834750Y-88754800D01*
X54922250Y-88754800D01*
X54898358Y-88753626D01*
X54874697Y-88750116D01*
X54851493Y-88744304D01*
X54828971Y-88736246D01*
X54807347Y-88726018D01*
X54786830Y-88713721D01*
X54767617Y-88699471D01*
X54749893Y-88683407D01*
X54733829Y-88665683D01*
X54719579Y-88646470D01*
X54707282Y-88625953D01*
X54697054Y-88604329D01*
X54688996Y-88581807D01*
X54683184Y-88558603D01*
X54679674Y-88534942D01*
X54678500Y-88511050D01*
X54678500Y-88023550D01*
X54679674Y-87999658D01*
X54683184Y-87975997D01*
X54688996Y-87952793D01*
X54697054Y-87930271D01*
X54707282Y-87908647D01*
X54719579Y-87888130D01*
X54733829Y-87868917D01*
X54749893Y-87851193D01*
X54767617Y-87835129D01*
X54786830Y-87820879D01*
X54807347Y-87808582D01*
X54828971Y-87798354D01*
X54851493Y-87790296D01*
X54874697Y-87784484D01*
X54898358Y-87780974D01*
X54922250Y-87779800D01*
X55834750Y-87779800D01*
X55858642Y-87780974D01*
G37*
G36*
X69288742Y-78050474D02*
G01*
X69312403Y-78053984D01*
X69335607Y-78059796D01*
X69358129Y-78067854D01*
X69379753Y-78078082D01*
X69400270Y-78090379D01*
X69419483Y-78104629D01*
X69437207Y-78120693D01*
X69453271Y-78138417D01*
X69467521Y-78157630D01*
X69479818Y-78178147D01*
X69490046Y-78199771D01*
X69498104Y-78222293D01*
X69503916Y-78245497D01*
X69507426Y-78269158D01*
X69508600Y-78293050D01*
X69508600Y-78780550D01*
X69507426Y-78804442D01*
X69503916Y-78828103D01*
X69498104Y-78851307D01*
X69490046Y-78873829D01*
X69479818Y-78895453D01*
X69467521Y-78915970D01*
X69453271Y-78935183D01*
X69437207Y-78952907D01*
X69419483Y-78968971D01*
X69400270Y-78983221D01*
X69379753Y-78995518D01*
X69358129Y-79005746D01*
X69335607Y-79013804D01*
X69312403Y-79019616D01*
X69288742Y-79023126D01*
X69264850Y-79024300D01*
X68352350Y-79024300D01*
X68328458Y-79023126D01*
X68304797Y-79019616D01*
X68281593Y-79013804D01*
X68259071Y-79005746D01*
X68237447Y-78995518D01*
X68216930Y-78983221D01*
X68197717Y-78968971D01*
X68179993Y-78952907D01*
X68163929Y-78935183D01*
X68149679Y-78915970D01*
X68137382Y-78895453D01*
X68127154Y-78873829D01*
X68119096Y-78851307D01*
X68113284Y-78828103D01*
X68109774Y-78804442D01*
X68108600Y-78780550D01*
X68108600Y-78293050D01*
X68109774Y-78269158D01*
X68113284Y-78245497D01*
X68119096Y-78222293D01*
X68127154Y-78199771D01*
X68137382Y-78178147D01*
X68149679Y-78157630D01*
X68163929Y-78138417D01*
X68179993Y-78120693D01*
X68197717Y-78104629D01*
X68216930Y-78090379D01*
X68237447Y-78078082D01*
X68259071Y-78067854D01*
X68281593Y-78059796D01*
X68304797Y-78053984D01*
X68328458Y-78050474D01*
X68352350Y-78049300D01*
X69264850Y-78049300D01*
X69288742Y-78050474D01*
G37*
G36*
X69288742Y-79925474D02*
G01*
X69312403Y-79928984D01*
X69335607Y-79934796D01*
X69358129Y-79942854D01*
X69379753Y-79953082D01*
X69400270Y-79965379D01*
X69419483Y-79979629D01*
X69437207Y-79995693D01*
X69453271Y-80013417D01*
X69467521Y-80032630D01*
X69479818Y-80053147D01*
X69490046Y-80074771D01*
X69498104Y-80097293D01*
X69503916Y-80120497D01*
X69507426Y-80144158D01*
X69508600Y-80168050D01*
X69508600Y-80655550D01*
X69507426Y-80679442D01*
X69503916Y-80703103D01*
X69498104Y-80726307D01*
X69490046Y-80748829D01*
X69479818Y-80770453D01*
X69467521Y-80790970D01*
X69453271Y-80810183D01*
X69437207Y-80827907D01*
X69419483Y-80843971D01*
X69400270Y-80858221D01*
X69379753Y-80870518D01*
X69358129Y-80880746D01*
X69335607Y-80888804D01*
X69312403Y-80894616D01*
X69288742Y-80898126D01*
X69264850Y-80899300D01*
X68352350Y-80899300D01*
X68328458Y-80898126D01*
X68304797Y-80894616D01*
X68281593Y-80888804D01*
X68259071Y-80880746D01*
X68237447Y-80870518D01*
X68216930Y-80858221D01*
X68197717Y-80843971D01*
X68179993Y-80827907D01*
X68163929Y-80810183D01*
X68149679Y-80790970D01*
X68137382Y-80770453D01*
X68127154Y-80748829D01*
X68119096Y-80726307D01*
X68113284Y-80703103D01*
X68109774Y-80679442D01*
X68108600Y-80655550D01*
X68108600Y-80168050D01*
X68109774Y-80144158D01*
X68113284Y-80120497D01*
X68119096Y-80097293D01*
X68127154Y-80074771D01*
X68137382Y-80053147D01*
X68149679Y-80032630D01*
X68163929Y-80013417D01*
X68179993Y-79995693D01*
X68197717Y-79979629D01*
X68216930Y-79965379D01*
X68237447Y-79953082D01*
X68259071Y-79942854D01*
X68281593Y-79934796D01*
X68304797Y-79928984D01*
X68328458Y-79925474D01*
X68352350Y-79924300D01*
X69264850Y-79924300D01*
X69288742Y-79925474D01*
G37*
G36*
X71604302Y-78039334D02*
G01*
X71627963Y-78042844D01*
X71651167Y-78048656D01*
X71673689Y-78056714D01*
X71695313Y-78066942D01*
X71715830Y-78079239D01*
X71735043Y-78093489D01*
X71752767Y-78109553D01*
X71768831Y-78127277D01*
X71783081Y-78146490D01*
X71795378Y-78167007D01*
X71805606Y-78188631D01*
X71813664Y-78211153D01*
X71819476Y-78234357D01*
X71822986Y-78258018D01*
X71824160Y-78281910D01*
X71824160Y-78769410D01*
X71822986Y-78793302D01*
X71819476Y-78816963D01*
X71813664Y-78840167D01*
X71805606Y-78862689D01*
X71795378Y-78884313D01*
X71783081Y-78904830D01*
X71768831Y-78924043D01*
X71752767Y-78941767D01*
X71735043Y-78957831D01*
X71715830Y-78972081D01*
X71695313Y-78984378D01*
X71673689Y-78994606D01*
X71651167Y-79002664D01*
X71627963Y-79008476D01*
X71604302Y-79011986D01*
X71580410Y-79013160D01*
X70667910Y-79013160D01*
X70644018Y-79011986D01*
X70620357Y-79008476D01*
X70597153Y-79002664D01*
X70574631Y-78994606D01*
X70553007Y-78984378D01*
X70532490Y-78972081D01*
X70513277Y-78957831D01*
X70495553Y-78941767D01*
X70479489Y-78924043D01*
X70465239Y-78904830D01*
X70452942Y-78884313D01*
X70442714Y-78862689D01*
X70434656Y-78840167D01*
X70428844Y-78816963D01*
X70425334Y-78793302D01*
X70424160Y-78769410D01*
X70424160Y-78281910D01*
X70425334Y-78258018D01*
X70428844Y-78234357D01*
X70434656Y-78211153D01*
X70442714Y-78188631D01*
X70452942Y-78167007D01*
X70465239Y-78146490D01*
X70479489Y-78127277D01*
X70495553Y-78109553D01*
X70513277Y-78093489D01*
X70532490Y-78079239D01*
X70553007Y-78066942D01*
X70574631Y-78056714D01*
X70597153Y-78048656D01*
X70620357Y-78042844D01*
X70644018Y-78039334D01*
X70667910Y-78038160D01*
X71580410Y-78038160D01*
X71604302Y-78039334D01*
G37*
G36*
X71604302Y-79914334D02*
G01*
X71627963Y-79917844D01*
X71651167Y-79923656D01*
X71673689Y-79931714D01*
X71695313Y-79941942D01*
X71715830Y-79954239D01*
X71735043Y-79968489D01*
X71752767Y-79984553D01*
X71768831Y-80002277D01*
X71783081Y-80021490D01*
X71795378Y-80042007D01*
X71805606Y-80063631D01*
X71813664Y-80086153D01*
X71819476Y-80109357D01*
X71822986Y-80133018D01*
X71824160Y-80156910D01*
X71824160Y-80644410D01*
X71822986Y-80668302D01*
X71819476Y-80691963D01*
X71813664Y-80715167D01*
X71805606Y-80737689D01*
X71795378Y-80759313D01*
X71783081Y-80779830D01*
X71768831Y-80799043D01*
X71752767Y-80816767D01*
X71735043Y-80832831D01*
X71715830Y-80847081D01*
X71695313Y-80859378D01*
X71673689Y-80869606D01*
X71651167Y-80877664D01*
X71627963Y-80883476D01*
X71604302Y-80886986D01*
X71580410Y-80888160D01*
X70667910Y-80888160D01*
X70644018Y-80886986D01*
X70620357Y-80883476D01*
X70597153Y-80877664D01*
X70574631Y-80869606D01*
X70553007Y-80859378D01*
X70532490Y-80847081D01*
X70513277Y-80832831D01*
X70495553Y-80816767D01*
X70479489Y-80799043D01*
X70465239Y-80779830D01*
X70452942Y-80759313D01*
X70442714Y-80737689D01*
X70434656Y-80715167D01*
X70428844Y-80691963D01*
X70425334Y-80668302D01*
X70424160Y-80644410D01*
X70424160Y-80156910D01*
X70425334Y-80133018D01*
X70428844Y-80109357D01*
X70434656Y-80086153D01*
X70442714Y-80063631D01*
X70452942Y-80042007D01*
X70465239Y-80021490D01*
X70479489Y-80002277D01*
X70495553Y-79984553D01*
X70513277Y-79968489D01*
X70532490Y-79954239D01*
X70553007Y-79941942D01*
X70574631Y-79931714D01*
X70597153Y-79923656D01*
X70620357Y-79917844D01*
X70644018Y-79914334D01*
X70667910Y-79913160D01*
X71580410Y-79913160D01*
X71604302Y-79914334D01*
G37*
G36*
X55858642Y-79461707D02*
G01*
X55882303Y-79465217D01*
X55905507Y-79471029D01*
X55928029Y-79479087D01*
X55949653Y-79489315D01*
X55970170Y-79501612D01*
X55989383Y-79515862D01*
X56007107Y-79531926D01*
X56023171Y-79549650D01*
X56037421Y-79568863D01*
X56049718Y-79589380D01*
X56059946Y-79611004D01*
X56068004Y-79633526D01*
X56073816Y-79656730D01*
X56077326Y-79680391D01*
X56078500Y-79704283D01*
X56078500Y-80191783D01*
X56077326Y-80215675D01*
X56073816Y-80239336D01*
X56068004Y-80262540D01*
X56059946Y-80285062D01*
X56049718Y-80306686D01*
X56037421Y-80327203D01*
X56023171Y-80346416D01*
X56007107Y-80364140D01*
X55989383Y-80380204D01*
X55970170Y-80394454D01*
X55949653Y-80406751D01*
X55928029Y-80416979D01*
X55905507Y-80425037D01*
X55882303Y-80430849D01*
X55858642Y-80434359D01*
X55834750Y-80435533D01*
X54922250Y-80435533D01*
X54898358Y-80434359D01*
X54874697Y-80430849D01*
X54851493Y-80425037D01*
X54828971Y-80416979D01*
X54807347Y-80406751D01*
X54786830Y-80394454D01*
X54767617Y-80380204D01*
X54749893Y-80364140D01*
X54733829Y-80346416D01*
X54719579Y-80327203D01*
X54707282Y-80306686D01*
X54697054Y-80285062D01*
X54688996Y-80262540D01*
X54683184Y-80239336D01*
X54679674Y-80215675D01*
X54678500Y-80191783D01*
X54678500Y-79704283D01*
X54679674Y-79680391D01*
X54683184Y-79656730D01*
X54688996Y-79633526D01*
X54697054Y-79611004D01*
X54707282Y-79589380D01*
X54719579Y-79568863D01*
X54733829Y-79549650D01*
X54749893Y-79531926D01*
X54767617Y-79515862D01*
X54786830Y-79501612D01*
X54807347Y-79489315D01*
X54828971Y-79479087D01*
X54851493Y-79471029D01*
X54874697Y-79465217D01*
X54898358Y-79461707D01*
X54922250Y-79460533D01*
X55834750Y-79460533D01*
X55858642Y-79461707D01*
G37*
G36*
X55858642Y-81336707D02*
G01*
X55882303Y-81340217D01*
X55905507Y-81346029D01*
X55928029Y-81354087D01*
X55949653Y-81364315D01*
X55970170Y-81376612D01*
X55989383Y-81390862D01*
X56007107Y-81406926D01*
X56023171Y-81424650D01*
X56037421Y-81443863D01*
X56049718Y-81464380D01*
X56059946Y-81486004D01*
X56068004Y-81508526D01*
X56073816Y-81531730D01*
X56077326Y-81555391D01*
X56078500Y-81579283D01*
X56078500Y-82066783D01*
X56077326Y-82090675D01*
X56073816Y-82114336D01*
X56068004Y-82137540D01*
X56059946Y-82160062D01*
X56049718Y-82181686D01*
X56037421Y-82202203D01*
X56023171Y-82221416D01*
X56007107Y-82239140D01*
X55989383Y-82255204D01*
X55970170Y-82269454D01*
X55949653Y-82281751D01*
X55928029Y-82291979D01*
X55905507Y-82300037D01*
X55882303Y-82305849D01*
X55858642Y-82309359D01*
X55834750Y-82310533D01*
X54922250Y-82310533D01*
X54898358Y-82309359D01*
X54874697Y-82305849D01*
X54851493Y-82300037D01*
X54828971Y-82291979D01*
X54807347Y-82281751D01*
X54786830Y-82269454D01*
X54767617Y-82255204D01*
X54749893Y-82239140D01*
X54733829Y-82221416D01*
X54719579Y-82202203D01*
X54707282Y-82181686D01*
X54697054Y-82160062D01*
X54688996Y-82137540D01*
X54683184Y-82114336D01*
X54679674Y-82090675D01*
X54678500Y-82066783D01*
X54678500Y-81579283D01*
X54679674Y-81555391D01*
X54683184Y-81531730D01*
X54688996Y-81508526D01*
X54697054Y-81486004D01*
X54707282Y-81464380D01*
X54719579Y-81443863D01*
X54733829Y-81424650D01*
X54749893Y-81406926D01*
X54767617Y-81390862D01*
X54786830Y-81376612D01*
X54807347Y-81364315D01*
X54828971Y-81354087D01*
X54851493Y-81346029D01*
X54874697Y-81340217D01*
X54898358Y-81336707D01*
X54922250Y-81335533D01*
X55834750Y-81335533D01*
X55858642Y-81336707D01*
G37*
G36*
X70584142Y-87565074D02*
G01*
X70607803Y-87568584D01*
X70631007Y-87574396D01*
X70653529Y-87582454D01*
X70675153Y-87592682D01*
X70695670Y-87604979D01*
X70714883Y-87619229D01*
X70732607Y-87635293D01*
X70748671Y-87653017D01*
X70762921Y-87672230D01*
X70775218Y-87692747D01*
X70785446Y-87714371D01*
X70793504Y-87736893D01*
X70799316Y-87760097D01*
X70802826Y-87783758D01*
X70804000Y-87807650D01*
X70804000Y-88295150D01*
X70802826Y-88319042D01*
X70799316Y-88342703D01*
X70793504Y-88365907D01*
X70785446Y-88388429D01*
X70775218Y-88410053D01*
X70762921Y-88430570D01*
X70748671Y-88449783D01*
X70732607Y-88467507D01*
X70714883Y-88483571D01*
X70695670Y-88497821D01*
X70675153Y-88510118D01*
X70653529Y-88520346D01*
X70631007Y-88528404D01*
X70607803Y-88534216D01*
X70584142Y-88537726D01*
X70560250Y-88538900D01*
X69647750Y-88538900D01*
X69623858Y-88537726D01*
X69600197Y-88534216D01*
X69576993Y-88528404D01*
X69554471Y-88520346D01*
X69532847Y-88510118D01*
X69512330Y-88497821D01*
X69493117Y-88483571D01*
X69475393Y-88467507D01*
X69459329Y-88449783D01*
X69445079Y-88430570D01*
X69432782Y-88410053D01*
X69422554Y-88388429D01*
X69414496Y-88365907D01*
X69408684Y-88342703D01*
X69405174Y-88319042D01*
X69404000Y-88295150D01*
X69404000Y-87807650D01*
X69405174Y-87783758D01*
X69408684Y-87760097D01*
X69414496Y-87736893D01*
X69422554Y-87714371D01*
X69432782Y-87692747D01*
X69445079Y-87672230D01*
X69459329Y-87653017D01*
X69475393Y-87635293D01*
X69493117Y-87619229D01*
X69512330Y-87604979D01*
X69532847Y-87592682D01*
X69554471Y-87582454D01*
X69576993Y-87574396D01*
X69600197Y-87568584D01*
X69623858Y-87565074D01*
X69647750Y-87563900D01*
X70560250Y-87563900D01*
X70584142Y-87565074D01*
G37*
G36*
X70584142Y-89440074D02*
G01*
X70607803Y-89443584D01*
X70631007Y-89449396D01*
X70653529Y-89457454D01*
X70675153Y-89467682D01*
X70695670Y-89479979D01*
X70714883Y-89494229D01*
X70732607Y-89510293D01*
X70748671Y-89528017D01*
X70762921Y-89547230D01*
X70775218Y-89567747D01*
X70785446Y-89589371D01*
X70793504Y-89611893D01*
X70799316Y-89635097D01*
X70802826Y-89658758D01*
X70804000Y-89682650D01*
X70804000Y-90170150D01*
X70802826Y-90194042D01*
X70799316Y-90217703D01*
X70793504Y-90240907D01*
X70785446Y-90263429D01*
X70775218Y-90285053D01*
X70762921Y-90305570D01*
X70748671Y-90324783D01*
X70732607Y-90342507D01*
X70714883Y-90358571D01*
X70695670Y-90372821D01*
X70675153Y-90385118D01*
X70653529Y-90395346D01*
X70631007Y-90403404D01*
X70607803Y-90409216D01*
X70584142Y-90412726D01*
X70560250Y-90413900D01*
X69647750Y-90413900D01*
X69623858Y-90412726D01*
X69600197Y-90409216D01*
X69576993Y-90403404D01*
X69554471Y-90395346D01*
X69532847Y-90385118D01*
X69512330Y-90372821D01*
X69493117Y-90358571D01*
X69475393Y-90342507D01*
X69459329Y-90324783D01*
X69445079Y-90305570D01*
X69432782Y-90285053D01*
X69422554Y-90263429D01*
X69414496Y-90240907D01*
X69408684Y-90217703D01*
X69405174Y-90194042D01*
X69404000Y-90170150D01*
X69404000Y-89682650D01*
X69405174Y-89658758D01*
X69408684Y-89635097D01*
X69414496Y-89611893D01*
X69422554Y-89589371D01*
X69432782Y-89567747D01*
X69445079Y-89547230D01*
X69459329Y-89528017D01*
X69475393Y-89510293D01*
X69493117Y-89494229D01*
X69512330Y-89479979D01*
X69532847Y-89467682D01*
X69554471Y-89457454D01*
X69576993Y-89449396D01*
X69600197Y-89443584D01*
X69623858Y-89440074D01*
X69647750Y-89438900D01*
X70560250Y-89438900D01*
X70584142Y-89440074D01*
G37*
G36*
X70584142Y-85922174D02*
G01*
X70607803Y-85925684D01*
X70631007Y-85931496D01*
X70653529Y-85939554D01*
X70675153Y-85949782D01*
X70695670Y-85962079D01*
X70714883Y-85976329D01*
X70732607Y-85992393D01*
X70748671Y-86010117D01*
X70762921Y-86029330D01*
X70775218Y-86049847D01*
X70785446Y-86071471D01*
X70793504Y-86093993D01*
X70799316Y-86117197D01*
X70802826Y-86140858D01*
X70804000Y-86164750D01*
X70804000Y-86652250D01*
X70802826Y-86676142D01*
X70799316Y-86699803D01*
X70793504Y-86723007D01*
X70785446Y-86745529D01*
X70775218Y-86767153D01*
X70762921Y-86787670D01*
X70748671Y-86806883D01*
X70732607Y-86824607D01*
X70714883Y-86840671D01*
X70695670Y-86854921D01*
X70675153Y-86867218D01*
X70653529Y-86877446D01*
X70631007Y-86885504D01*
X70607803Y-86891316D01*
X70584142Y-86894826D01*
X70560250Y-86896000D01*
X69647750Y-86896000D01*
X69623858Y-86894826D01*
X69600197Y-86891316D01*
X69576993Y-86885504D01*
X69554471Y-86877446D01*
X69532847Y-86867218D01*
X69512330Y-86854921D01*
X69493117Y-86840671D01*
X69475393Y-86824607D01*
X69459329Y-86806883D01*
X69445079Y-86787670D01*
X69432782Y-86767153D01*
X69422554Y-86745529D01*
X69414496Y-86723007D01*
X69408684Y-86699803D01*
X69405174Y-86676142D01*
X69404000Y-86652250D01*
X69404000Y-86164750D01*
X69405174Y-86140858D01*
X69408684Y-86117197D01*
X69414496Y-86093993D01*
X69422554Y-86071471D01*
X69432782Y-86049847D01*
X69445079Y-86029330D01*
X69459329Y-86010117D01*
X69475393Y-85992393D01*
X69493117Y-85976329D01*
X69512330Y-85962079D01*
X69532847Y-85949782D01*
X69554471Y-85939554D01*
X69576993Y-85931496D01*
X69600197Y-85925684D01*
X69623858Y-85922174D01*
X69647750Y-85921000D01*
X70560250Y-85921000D01*
X70584142Y-85922174D01*
G37*
G36*
X70584142Y-84047174D02*
G01*
X70607803Y-84050684D01*
X70631007Y-84056496D01*
X70653529Y-84064554D01*
X70675153Y-84074782D01*
X70695670Y-84087079D01*
X70714883Y-84101329D01*
X70732607Y-84117393D01*
X70748671Y-84135117D01*
X70762921Y-84154330D01*
X70775218Y-84174847D01*
X70785446Y-84196471D01*
X70793504Y-84218993D01*
X70799316Y-84242197D01*
X70802826Y-84265858D01*
X70804000Y-84289750D01*
X70804000Y-84777250D01*
X70802826Y-84801142D01*
X70799316Y-84824803D01*
X70793504Y-84848007D01*
X70785446Y-84870529D01*
X70775218Y-84892153D01*
X70762921Y-84912670D01*
X70748671Y-84931883D01*
X70732607Y-84949607D01*
X70714883Y-84965671D01*
X70695670Y-84979921D01*
X70675153Y-84992218D01*
X70653529Y-85002446D01*
X70631007Y-85010504D01*
X70607803Y-85016316D01*
X70584142Y-85019826D01*
X70560250Y-85021000D01*
X69647750Y-85021000D01*
X69623858Y-85019826D01*
X69600197Y-85016316D01*
X69576993Y-85010504D01*
X69554471Y-85002446D01*
X69532847Y-84992218D01*
X69512330Y-84979921D01*
X69493117Y-84965671D01*
X69475393Y-84949607D01*
X69459329Y-84931883D01*
X69445079Y-84912670D01*
X69432782Y-84892153D01*
X69422554Y-84870529D01*
X69414496Y-84848007D01*
X69408684Y-84824803D01*
X69405174Y-84801142D01*
X69404000Y-84777250D01*
X69404000Y-84289750D01*
X69405174Y-84265858D01*
X69408684Y-84242197D01*
X69414496Y-84218993D01*
X69422554Y-84196471D01*
X69432782Y-84174847D01*
X69445079Y-84154330D01*
X69459329Y-84135117D01*
X69475393Y-84117393D01*
X69493117Y-84101329D01*
X69512330Y-84087079D01*
X69532847Y-84074782D01*
X69554471Y-84064554D01*
X69576993Y-84056496D01*
X69600197Y-84050684D01*
X69623858Y-84047174D01*
X69647750Y-84046000D01*
X70560250Y-84046000D01*
X70584142Y-84047174D01*
G37*
G36*
X55858642Y-75931874D02*
G01*
X55882303Y-75935384D01*
X55905507Y-75941196D01*
X55928029Y-75949254D01*
X55949653Y-75959482D01*
X55970170Y-75971779D01*
X55989383Y-75986029D01*
X56007107Y-76002093D01*
X56023171Y-76019817D01*
X56037421Y-76039030D01*
X56049718Y-76059547D01*
X56059946Y-76081171D01*
X56068004Y-76103693D01*
X56073816Y-76126897D01*
X56077326Y-76150558D01*
X56078500Y-76174450D01*
X56078500Y-76661950D01*
X56077326Y-76685842D01*
X56073816Y-76709503D01*
X56068004Y-76732707D01*
X56059946Y-76755229D01*
X56049718Y-76776853D01*
X56037421Y-76797370D01*
X56023171Y-76816583D01*
X56007107Y-76834307D01*
X55989383Y-76850371D01*
X55970170Y-76864621D01*
X55949653Y-76876918D01*
X55928029Y-76887146D01*
X55905507Y-76895204D01*
X55882303Y-76901016D01*
X55858642Y-76904526D01*
X55834750Y-76905700D01*
X54922250Y-76905700D01*
X54898358Y-76904526D01*
X54874697Y-76901016D01*
X54851493Y-76895204D01*
X54828971Y-76887146D01*
X54807347Y-76876918D01*
X54786830Y-76864621D01*
X54767617Y-76850371D01*
X54749893Y-76834307D01*
X54733829Y-76816583D01*
X54719579Y-76797370D01*
X54707282Y-76776853D01*
X54697054Y-76755229D01*
X54688996Y-76732707D01*
X54683184Y-76709503D01*
X54679674Y-76685842D01*
X54678500Y-76661950D01*
X54678500Y-76174450D01*
X54679674Y-76150558D01*
X54683184Y-76126897D01*
X54688996Y-76103693D01*
X54697054Y-76081171D01*
X54707282Y-76059547D01*
X54719579Y-76039030D01*
X54733829Y-76019817D01*
X54749893Y-76002093D01*
X54767617Y-75986029D01*
X54786830Y-75971779D01*
X54807347Y-75959482D01*
X54828971Y-75949254D01*
X54851493Y-75941196D01*
X54874697Y-75935384D01*
X54898358Y-75931874D01*
X54922250Y-75930700D01*
X55834750Y-75930700D01*
X55858642Y-75931874D01*
G37*
G36*
X55858642Y-77806874D02*
G01*
X55882303Y-77810384D01*
X55905507Y-77816196D01*
X55928029Y-77824254D01*
X55949653Y-77834482D01*
X55970170Y-77846779D01*
X55989383Y-77861029D01*
X56007107Y-77877093D01*
X56023171Y-77894817D01*
X56037421Y-77914030D01*
X56049718Y-77934547D01*
X56059946Y-77956171D01*
X56068004Y-77978693D01*
X56073816Y-78001897D01*
X56077326Y-78025558D01*
X56078500Y-78049450D01*
X56078500Y-78536950D01*
X56077326Y-78560842D01*
X56073816Y-78584503D01*
X56068004Y-78607707D01*
X56059946Y-78630229D01*
X56049718Y-78651853D01*
X56037421Y-78672370D01*
X56023171Y-78691583D01*
X56007107Y-78709307D01*
X55989383Y-78725371D01*
X55970170Y-78739621D01*
X55949653Y-78751918D01*
X55928029Y-78762146D01*
X55905507Y-78770204D01*
X55882303Y-78776016D01*
X55858642Y-78779526D01*
X55834750Y-78780700D01*
X54922250Y-78780700D01*
X54898358Y-78779526D01*
X54874697Y-78776016D01*
X54851493Y-78770204D01*
X54828971Y-78762146D01*
X54807347Y-78751918D01*
X54786830Y-78739621D01*
X54767617Y-78725371D01*
X54749893Y-78709307D01*
X54733829Y-78691583D01*
X54719579Y-78672370D01*
X54707282Y-78651853D01*
X54697054Y-78630229D01*
X54688996Y-78607707D01*
X54683184Y-78584503D01*
X54679674Y-78560842D01*
X54678500Y-78536950D01*
X54678500Y-78049450D01*
X54679674Y-78025558D01*
X54683184Y-78001897D01*
X54688996Y-77978693D01*
X54697054Y-77956171D01*
X54707282Y-77934547D01*
X54719579Y-77914030D01*
X54733829Y-77894817D01*
X54749893Y-77877093D01*
X54767617Y-77861029D01*
X54786830Y-77846779D01*
X54807347Y-77834482D01*
X54828971Y-77824254D01*
X54851493Y-77816196D01*
X54874697Y-77810384D01*
X54898358Y-77806874D01*
X54922250Y-77805700D01*
X55834750Y-77805700D01*
X55858642Y-77806874D01*
G37*
G36*
X59307642Y-75183674D02*
G01*
X59331303Y-75187184D01*
X59354507Y-75192996D01*
X59377029Y-75201054D01*
X59398653Y-75211282D01*
X59419170Y-75223579D01*
X59438383Y-75237829D01*
X59456107Y-75253893D01*
X59472171Y-75271617D01*
X59486421Y-75290830D01*
X59498718Y-75311347D01*
X59508946Y-75332971D01*
X59517004Y-75355493D01*
X59522816Y-75378697D01*
X59526326Y-75402358D01*
X59527500Y-75426250D01*
X59527500Y-76338750D01*
X59526326Y-76362642D01*
X59522816Y-76386303D01*
X59517004Y-76409507D01*
X59508946Y-76432029D01*
X59498718Y-76453653D01*
X59486421Y-76474170D01*
X59472171Y-76493383D01*
X59456107Y-76511107D01*
X59438383Y-76527171D01*
X59419170Y-76541421D01*
X59398653Y-76553718D01*
X59377029Y-76563946D01*
X59354507Y-76572004D01*
X59331303Y-76577816D01*
X59307642Y-76581326D01*
X59283750Y-76582500D01*
X58796250Y-76582500D01*
X58772358Y-76581326D01*
X58748697Y-76577816D01*
X58725493Y-76572004D01*
X58702971Y-76563946D01*
X58681347Y-76553718D01*
X58660830Y-76541421D01*
X58641617Y-76527171D01*
X58623893Y-76511107D01*
X58607829Y-76493383D01*
X58593579Y-76474170D01*
X58581282Y-76453653D01*
X58571054Y-76432029D01*
X58562996Y-76409507D01*
X58557184Y-76386303D01*
X58553674Y-76362642D01*
X58552500Y-76338750D01*
X58552500Y-75426250D01*
X58553674Y-75402358D01*
X58557184Y-75378697D01*
X58562996Y-75355493D01*
X58571054Y-75332971D01*
X58581282Y-75311347D01*
X58593579Y-75290830D01*
X58607829Y-75271617D01*
X58623893Y-75253893D01*
X58641617Y-75237829D01*
X58660830Y-75223579D01*
X58681347Y-75211282D01*
X58702971Y-75201054D01*
X58725493Y-75192996D01*
X58748697Y-75187184D01*
X58772358Y-75183674D01*
X58796250Y-75182500D01*
X59283750Y-75182500D01*
X59307642Y-75183674D01*
G37*
G36*
X57432642Y-75183674D02*
G01*
X57456303Y-75187184D01*
X57479507Y-75192996D01*
X57502029Y-75201054D01*
X57523653Y-75211282D01*
X57544170Y-75223579D01*
X57563383Y-75237829D01*
X57581107Y-75253893D01*
X57597171Y-75271617D01*
X57611421Y-75290830D01*
X57623718Y-75311347D01*
X57633946Y-75332971D01*
X57642004Y-75355493D01*
X57647816Y-75378697D01*
X57651326Y-75402358D01*
X57652500Y-75426250D01*
X57652500Y-76338750D01*
X57651326Y-76362642D01*
X57647816Y-76386303D01*
X57642004Y-76409507D01*
X57633946Y-76432029D01*
X57623718Y-76453653D01*
X57611421Y-76474170D01*
X57597171Y-76493383D01*
X57581107Y-76511107D01*
X57563383Y-76527171D01*
X57544170Y-76541421D01*
X57523653Y-76553718D01*
X57502029Y-76563946D01*
X57479507Y-76572004D01*
X57456303Y-76577816D01*
X57432642Y-76581326D01*
X57408750Y-76582500D01*
X56921250Y-76582500D01*
X56897358Y-76581326D01*
X56873697Y-76577816D01*
X56850493Y-76572004D01*
X56827971Y-76563946D01*
X56806347Y-76553718D01*
X56785830Y-76541421D01*
X56766617Y-76527171D01*
X56748893Y-76511107D01*
X56732829Y-76493383D01*
X56718579Y-76474170D01*
X56706282Y-76453653D01*
X56696054Y-76432029D01*
X56687996Y-76409507D01*
X56682184Y-76386303D01*
X56678674Y-76362642D01*
X56677500Y-76338750D01*
X56677500Y-75426250D01*
X56678674Y-75402358D01*
X56682184Y-75378697D01*
X56687996Y-75355493D01*
X56696054Y-75332971D01*
X56706282Y-75311347D01*
X56718579Y-75290830D01*
X56732829Y-75271617D01*
X56748893Y-75253893D01*
X56766617Y-75237829D01*
X56785830Y-75223579D01*
X56806347Y-75211282D01*
X56827971Y-75201054D01*
X56850493Y-75192996D01*
X56873697Y-75187184D01*
X56897358Y-75183674D01*
X56921250Y-75182500D01*
X57408750Y-75182500D01*
X57432642Y-75183674D01*
G37*
G36*
X55828005Y-85673870D02*
G01*
X55852273Y-85677470D01*
X55876072Y-85683431D01*
X55899171Y-85691696D01*
X55921350Y-85702186D01*
X55942393Y-85714798D01*
X55962099Y-85729413D01*
X55980277Y-85745889D01*
X55996753Y-85764067D01*
X56011368Y-85783773D01*
X56023980Y-85804816D01*
X56034470Y-85826995D01*
X56042735Y-85850094D01*
X56048696Y-85873893D01*
X56052296Y-85898161D01*
X56053500Y-85922665D01*
X56053500Y-86822667D01*
X56052296Y-86847171D01*
X56048696Y-86871439D01*
X56042735Y-86895238D01*
X56034470Y-86918337D01*
X56023980Y-86940516D01*
X56011368Y-86961559D01*
X55996753Y-86981265D01*
X55980277Y-86999443D01*
X55962099Y-87015919D01*
X55942393Y-87030534D01*
X55921350Y-87043146D01*
X55899171Y-87053636D01*
X55876072Y-87061901D01*
X55852273Y-87067862D01*
X55828005Y-87071462D01*
X55803501Y-87072666D01*
X54953499Y-87072666D01*
X54928995Y-87071462D01*
X54904727Y-87067862D01*
X54880928Y-87061901D01*
X54857829Y-87053636D01*
X54835650Y-87043146D01*
X54814607Y-87030534D01*
X54794901Y-87015919D01*
X54776723Y-86999443D01*
X54760247Y-86981265D01*
X54745632Y-86961559D01*
X54733020Y-86940516D01*
X54722530Y-86918337D01*
X54714265Y-86895238D01*
X54708304Y-86871439D01*
X54704704Y-86847171D01*
X54703500Y-86822667D01*
X54703500Y-85922665D01*
X54704704Y-85898161D01*
X54708304Y-85873893D01*
X54714265Y-85850094D01*
X54722530Y-85826995D01*
X54733020Y-85804816D01*
X54745632Y-85783773D01*
X54760247Y-85764067D01*
X54776723Y-85745889D01*
X54794901Y-85729413D01*
X54814607Y-85714798D01*
X54835650Y-85702186D01*
X54857829Y-85691696D01*
X54880928Y-85683431D01*
X54904727Y-85677470D01*
X54928995Y-85673870D01*
X54953499Y-85672666D01*
X55803501Y-85672666D01*
X55828005Y-85673870D01*
G37*
G36*
X55828005Y-82973870D02*
G01*
X55852273Y-82977470D01*
X55876072Y-82983431D01*
X55899171Y-82991696D01*
X55921350Y-83002186D01*
X55942393Y-83014798D01*
X55962099Y-83029413D01*
X55980277Y-83045889D01*
X55996753Y-83064067D01*
X56011368Y-83083773D01*
X56023980Y-83104816D01*
X56034470Y-83126995D01*
X56042735Y-83150094D01*
X56048696Y-83173893D01*
X56052296Y-83198161D01*
X56053500Y-83222665D01*
X56053500Y-84122667D01*
X56052296Y-84147171D01*
X56048696Y-84171439D01*
X56042735Y-84195238D01*
X56034470Y-84218337D01*
X56023980Y-84240516D01*
X56011368Y-84261559D01*
X55996753Y-84281265D01*
X55980277Y-84299443D01*
X55962099Y-84315919D01*
X55942393Y-84330534D01*
X55921350Y-84343146D01*
X55899171Y-84353636D01*
X55876072Y-84361901D01*
X55852273Y-84367862D01*
X55828005Y-84371462D01*
X55803501Y-84372666D01*
X54953499Y-84372666D01*
X54928995Y-84371462D01*
X54904727Y-84367862D01*
X54880928Y-84361901D01*
X54857829Y-84353636D01*
X54835650Y-84343146D01*
X54814607Y-84330534D01*
X54794901Y-84315919D01*
X54776723Y-84299443D01*
X54760247Y-84281265D01*
X54745632Y-84261559D01*
X54733020Y-84240516D01*
X54722530Y-84218337D01*
X54714265Y-84195238D01*
X54708304Y-84171439D01*
X54704704Y-84147171D01*
X54703500Y-84122667D01*
X54703500Y-83222665D01*
X54704704Y-83198161D01*
X54708304Y-83173893D01*
X54714265Y-83150094D01*
X54722530Y-83126995D01*
X54733020Y-83104816D01*
X54745632Y-83083773D01*
X54760247Y-83064067D01*
X54776723Y-83045889D01*
X54794901Y-83029413D01*
X54814607Y-83014798D01*
X54835650Y-83002186D01*
X54857829Y-82991696D01*
X54880928Y-82983431D01*
X54904727Y-82977470D01*
X54928995Y-82973870D01*
X54953499Y-82972666D01*
X55803501Y-82972666D01*
X55828005Y-82973870D01*
G37*
G36*
X58696942Y-87780974D02*
G01*
X58720603Y-87784484D01*
X58743807Y-87790296D01*
X58766329Y-87798354D01*
X58787953Y-87808582D01*
X58808470Y-87820879D01*
X58827683Y-87835129D01*
X58845407Y-87851193D01*
X58861471Y-87868917D01*
X58875721Y-87888130D01*
X58888018Y-87908647D01*
X58898246Y-87930271D01*
X58906304Y-87952793D01*
X58912116Y-87975997D01*
X58915626Y-87999658D01*
X58916800Y-88023550D01*
X58916800Y-88511050D01*
X58915626Y-88534942D01*
X58912116Y-88558603D01*
X58906304Y-88581807D01*
X58898246Y-88604329D01*
X58888018Y-88625953D01*
X58875721Y-88646470D01*
X58861471Y-88665683D01*
X58845407Y-88683407D01*
X58827683Y-88699471D01*
X58808470Y-88713721D01*
X58787953Y-88726018D01*
X58766329Y-88736246D01*
X58743807Y-88744304D01*
X58720603Y-88750116D01*
X58696942Y-88753626D01*
X58673050Y-88754800D01*
X57760550Y-88754800D01*
X57736658Y-88753626D01*
X57712997Y-88750116D01*
X57689793Y-88744304D01*
X57667271Y-88736246D01*
X57645647Y-88726018D01*
X57625130Y-88713721D01*
X57605917Y-88699471D01*
X57588193Y-88683407D01*
X57572129Y-88665683D01*
X57557879Y-88646470D01*
X57545582Y-88625953D01*
X57535354Y-88604329D01*
X57527296Y-88581807D01*
X57521484Y-88558603D01*
X57517974Y-88534942D01*
X57516800Y-88511050D01*
X57516800Y-88023550D01*
X57517974Y-87999658D01*
X57521484Y-87975997D01*
X57527296Y-87952793D01*
X57535354Y-87930271D01*
X57545582Y-87908647D01*
X57557879Y-87888130D01*
X57572129Y-87868917D01*
X57588193Y-87851193D01*
X57605917Y-87835129D01*
X57625130Y-87820879D01*
X57645647Y-87808582D01*
X57667271Y-87798354D01*
X57689793Y-87790296D01*
X57712997Y-87784484D01*
X57736658Y-87780974D01*
X57760550Y-87779800D01*
X58673050Y-87779800D01*
X58696942Y-87780974D01*
G37*
G36*
X58696942Y-89655974D02*
G01*
X58720603Y-89659484D01*
X58743807Y-89665296D01*
X58766329Y-89673354D01*
X58787953Y-89683582D01*
X58808470Y-89695879D01*
X58827683Y-89710129D01*
X58845407Y-89726193D01*
X58861471Y-89743917D01*
X58875721Y-89763130D01*
X58888018Y-89783647D01*
X58898246Y-89805271D01*
X58906304Y-89827793D01*
X58912116Y-89850997D01*
X58915626Y-89874658D01*
X58916800Y-89898550D01*
X58916800Y-90386050D01*
X58915626Y-90409942D01*
X58912116Y-90433603D01*
X58906304Y-90456807D01*
X58898246Y-90479329D01*
X58888018Y-90500953D01*
X58875721Y-90521470D01*
X58861471Y-90540683D01*
X58845407Y-90558407D01*
X58827683Y-90574471D01*
X58808470Y-90588721D01*
X58787953Y-90601018D01*
X58766329Y-90611246D01*
X58743807Y-90619304D01*
X58720603Y-90625116D01*
X58696942Y-90628626D01*
X58673050Y-90629800D01*
X57760550Y-90629800D01*
X57736658Y-90628626D01*
X57712997Y-90625116D01*
X57689793Y-90619304D01*
X57667271Y-90611246D01*
X57645647Y-90601018D01*
X57625130Y-90588721D01*
X57605917Y-90574471D01*
X57588193Y-90558407D01*
X57572129Y-90540683D01*
X57557879Y-90521470D01*
X57545582Y-90500953D01*
X57535354Y-90479329D01*
X57527296Y-90456807D01*
X57521484Y-90433603D01*
X57517974Y-90409942D01*
X57516800Y-90386050D01*
X57516800Y-89898550D01*
X57517974Y-89874658D01*
X57521484Y-89850997D01*
X57527296Y-89827793D01*
X57535354Y-89805271D01*
X57545582Y-89783647D01*
X57557879Y-89763130D01*
X57572129Y-89743917D01*
X57588193Y-89726193D01*
X57605917Y-89710129D01*
X57625130Y-89695879D01*
X57645647Y-89683582D01*
X57667271Y-89673354D01*
X57689793Y-89665296D01*
X57712997Y-89659484D01*
X57736658Y-89655974D01*
X57760550Y-89654800D01*
X58673050Y-89654800D01*
X58696942Y-89655974D01*
G37*
M02*
