M48
; DRILL file {KiCad (5.1.5)-3} date 2020/3/15 16:18:25
; FORMAT={-:-/ absolute / metric / decimal}
; #@! TF.CreationDate,2020-03-15T16:18:25+08:00
; #@! TF.GenerationSoftware,Kicad,Pcbnew,(5.1.5)-3
FMAT,2
METRIC
T1C0.400
T2C0.500
T3C0.762
T4C1.000
%
G90
G05
T1
X49.687Y-75.231
X51.01Y-91.01
X51.289Y-75.668
X53.9Y-83.355
X54.076Y-75.231
X54.229Y-84.988
X56.297Y-80.875
X56.691Y-79.178
X56.709Y-89.275
X56.709Y-91.031
X58.117Y-85.265
X59.722Y-79.654
X60.22Y-91.031
X61.449Y-75.287
X61.976Y-91.031
X62.491Y-82.907
X62.497Y-79.776
X62.725Y-80.975
X63.005Y-81.928
X63.08Y-77.772
X63.732Y-84.009
X63.732Y-85.764
X63.732Y-88.398
X63.732Y-90.153
X64.091Y-78.488
X64.41Y-77.099
X64.468Y-79.678
X64.609Y-89.275
X64.609Y-91.031
X64.941Y-80.428
X65.278Y-78.473
X65.31Y-82.482
X65.354Y-76.327
X65.405Y-81.173
X65.487Y-85.764
X65.487Y-88.398
X65.487Y-90.153
X65.818Y-84.279
X66.365Y-91.031
X67.243Y-90.153
X68.121Y-76.108
X68.121Y-91.031
X68.51Y-84.05
X69.863Y-77.686
X69.876Y-91.031
X71.632Y-84.009
X71.632Y-88.398
X71.632Y-90.153
X72.51Y-91.031
X74.265Y-91.031
X74.962Y-82.653
X76.021Y-91.031
X76.899Y-75.428
X76.899Y-76.986
T2
X58.166Y-86.97
X57.295Y-77.762
X59.195Y-77.762
T3
X73.724Y-81.356
X73.724Y-83.896
X73.724Y-86.436
X73.724Y-88.976
X76.263Y-81.356
X76.263Y-83.896
X76.263Y-86.436
X76.263Y-88.976
T4
X49.918Y-76.837
X49.918Y-79.377
X49.918Y-81.917
X49.918Y-84.457
X49.918Y-86.997
X49.918Y-89.537
X52.458Y-76.837
X52.458Y-79.377
X52.458Y-81.917
X52.458Y-84.457
X52.458Y-86.997
X52.458Y-89.537
T0
M30
