G04 #@! TF.GenerationSoftware,KiCad,Pcbnew,(5.1.5)-3*
G04 #@! TF.CreationDate,2020-03-15T16:40:32+08:00*
G04 #@! TF.ProjectId,InHub_Sub,496e4875-625f-4537-9562-2e6b69636164,rev?*
G04 #@! TF.SameCoordinates,Original*
G04 #@! TF.FileFunction,Legend,Bot*
G04 #@! TF.FilePolarity,Positive*
%FSLAX46Y46*%
G04 Gerber Fmt 4.6, Leading zero omitted, Abs format (unit mm)*
G04 Created by KiCad (PCBNEW (5.1.5)-3) date 2020-03-15 16:40:32*
%MOMM*%
%LPD*%
G04 APERTURE LIST*
%ADD10C,0.160000*%
%ADD11C,1.626000*%
%ADD12R,1.626000X1.626000*%
%ADD13R,1.802000X1.802000*%
%ADD14O,1.802000X1.802000*%
%ADD15C,1.102000*%
G04 APERTURE END LIST*
D10*
X55565261Y-89267800D02*
X55643357Y-89228752D01*
X55760500Y-89228752D01*
X55877642Y-89267800D01*
X55955738Y-89345895D01*
X55994785Y-89423990D01*
X56033833Y-89580180D01*
X56033833Y-89697323D01*
X55994785Y-89853514D01*
X55955738Y-89931609D01*
X55877642Y-90009704D01*
X55760500Y-90048752D01*
X55682404Y-90048752D01*
X55565261Y-90009704D01*
X55526214Y-89970657D01*
X55526214Y-89697323D01*
X55682404Y-89697323D01*
X55174785Y-90048752D02*
X55174785Y-89228752D01*
X54706214Y-90048752D01*
X54706214Y-89228752D01*
X54315738Y-90048752D02*
X54315738Y-89228752D01*
X54120500Y-89228752D01*
X54003357Y-89267800D01*
X53925261Y-89345895D01*
X53886214Y-89423990D01*
X53847166Y-89580180D01*
X53847166Y-89697323D01*
X53886214Y-89853514D01*
X53925261Y-89931609D01*
X54003357Y-90009704D01*
X54120500Y-90048752D01*
X54315738Y-90048752D01*
X54596690Y-86728752D02*
X54987166Y-86728752D01*
X55026214Y-87119228D01*
X54987166Y-87080180D01*
X54909071Y-87041133D01*
X54713833Y-87041133D01*
X54635738Y-87080180D01*
X54596690Y-87119228D01*
X54557642Y-87197323D01*
X54557642Y-87392561D01*
X54596690Y-87470657D01*
X54635738Y-87509704D01*
X54713833Y-87548752D01*
X54909071Y-87548752D01*
X54987166Y-87509704D01*
X55026214Y-87470657D01*
X54323357Y-86728752D02*
X54050023Y-87548752D01*
X53776690Y-86728752D01*
X57150976Y-83978752D02*
X56643357Y-83978752D01*
X56916690Y-84291133D01*
X56799547Y-84291133D01*
X56721452Y-84330180D01*
X56682404Y-84369228D01*
X56643357Y-84447323D01*
X56643357Y-84642561D01*
X56682404Y-84720657D01*
X56721452Y-84759704D01*
X56799547Y-84798752D01*
X57033833Y-84798752D01*
X57111928Y-84759704D01*
X57150976Y-84720657D01*
X56291928Y-84720657D02*
X56252880Y-84759704D01*
X56291928Y-84798752D01*
X56330976Y-84759704D01*
X56291928Y-84720657D01*
X56291928Y-84798752D01*
X55979547Y-83978752D02*
X55471928Y-83978752D01*
X55745261Y-84291133D01*
X55628119Y-84291133D01*
X55550023Y-84330180D01*
X55510976Y-84369228D01*
X55471928Y-84447323D01*
X55471928Y-84642561D01*
X55510976Y-84720657D01*
X55550023Y-84759704D01*
X55628119Y-84798752D01*
X55862404Y-84798752D01*
X55940500Y-84759704D01*
X55979547Y-84720657D01*
X55237642Y-83978752D02*
X54964309Y-84798752D01*
X54690976Y-83978752D01*
X55084785Y-82259704D02*
X54967642Y-82298752D01*
X54772404Y-82298752D01*
X54694309Y-82259704D01*
X54655261Y-82220657D01*
X54616214Y-82142561D01*
X54616214Y-82064466D01*
X54655261Y-81986371D01*
X54694309Y-81947323D01*
X54772404Y-81908276D01*
X54928595Y-81869228D01*
X55006690Y-81830180D01*
X55045738Y-81791133D01*
X55084785Y-81713038D01*
X55084785Y-81634942D01*
X55045738Y-81556847D01*
X55006690Y-81517800D01*
X54928595Y-81478752D01*
X54733357Y-81478752D01*
X54616214Y-81517800D01*
X54264785Y-82298752D02*
X54264785Y-81478752D01*
X54069547Y-81478752D01*
X53952404Y-81517800D01*
X53874309Y-81595895D01*
X53835261Y-81673990D01*
X53796214Y-81830180D01*
X53796214Y-81947323D01*
X53835261Y-82103514D01*
X53874309Y-82181609D01*
X53952404Y-82259704D01*
X54069547Y-82298752D01*
X54264785Y-82298752D01*
X55084785Y-79759704D02*
X54967642Y-79798752D01*
X54772404Y-79798752D01*
X54694309Y-79759704D01*
X54655261Y-79720657D01*
X54616214Y-79642561D01*
X54616214Y-79564466D01*
X54655261Y-79486371D01*
X54694309Y-79447323D01*
X54772404Y-79408276D01*
X54928595Y-79369228D01*
X55006690Y-79330180D01*
X55045738Y-79291133D01*
X55084785Y-79213038D01*
X55084785Y-79134942D01*
X55045738Y-79056847D01*
X55006690Y-79017800D01*
X54928595Y-78978752D01*
X54733357Y-78978752D01*
X54616214Y-79017800D01*
X53796214Y-79720657D02*
X53835261Y-79759704D01*
X53952404Y-79798752D01*
X54030500Y-79798752D01*
X54147642Y-79759704D01*
X54225738Y-79681609D01*
X54264785Y-79603514D01*
X54303833Y-79447323D01*
X54303833Y-79330180D01*
X54264785Y-79173990D01*
X54225738Y-79095895D01*
X54147642Y-79017800D01*
X54030500Y-78978752D01*
X53952404Y-78978752D01*
X53835261Y-79017800D01*
X53796214Y-79056847D01*
X55565261Y-76517800D02*
X55643357Y-76478752D01*
X55760500Y-76478752D01*
X55877642Y-76517800D01*
X55955738Y-76595895D01*
X55994785Y-76673990D01*
X56033833Y-76830180D01*
X56033833Y-76947323D01*
X55994785Y-77103514D01*
X55955738Y-77181609D01*
X55877642Y-77259704D01*
X55760500Y-77298752D01*
X55682404Y-77298752D01*
X55565261Y-77259704D01*
X55526214Y-77220657D01*
X55526214Y-76947323D01*
X55682404Y-76947323D01*
X55174785Y-77298752D02*
X55174785Y-76478752D01*
X54706214Y-77298752D01*
X54706214Y-76478752D01*
X54315738Y-77298752D02*
X54315738Y-76478752D01*
X54120500Y-76478752D01*
X54003357Y-76517800D01*
X53925261Y-76595895D01*
X53886214Y-76673990D01*
X53847166Y-76830180D01*
X53847166Y-76947323D01*
X53886214Y-77103514D01*
X53925261Y-77181609D01*
X54003357Y-77259704D01*
X54120500Y-77298752D01*
X54315738Y-77298752D01*
X75703042Y-79569952D02*
X75703042Y-78749952D01*
X75312566Y-79023285D02*
X75312566Y-79569952D01*
X75312566Y-79101380D02*
X75273519Y-79062333D01*
X75195423Y-79023285D01*
X75078280Y-79023285D01*
X75000185Y-79062333D01*
X74961138Y-79140428D01*
X74961138Y-79569952D01*
X74570661Y-79569952D02*
X74570661Y-78749952D01*
X74570661Y-79140428D02*
X74102090Y-79140428D01*
X74102090Y-79569952D02*
X74102090Y-78749952D01*
X73360185Y-79023285D02*
X73360185Y-79569952D01*
X73711614Y-79023285D02*
X73711614Y-79452809D01*
X73672566Y-79530904D01*
X73594471Y-79569952D01*
X73477328Y-79569952D01*
X73399233Y-79530904D01*
X73360185Y-79491857D01*
X72969709Y-79569952D02*
X72969709Y-78749952D01*
X72969709Y-79062333D02*
X72891614Y-79023285D01*
X72735423Y-79023285D01*
X72657328Y-79062333D01*
X72618280Y-79101380D01*
X72579233Y-79179476D01*
X72579233Y-79413761D01*
X72618280Y-79491857D01*
X72657328Y-79530904D01*
X72735423Y-79569952D01*
X72891614Y-79569952D01*
X72969709Y-79530904D01*
X72423042Y-79648047D02*
X71798280Y-79648047D01*
X71642090Y-79530904D02*
X71524947Y-79569952D01*
X71329709Y-79569952D01*
X71251614Y-79530904D01*
X71212566Y-79491857D01*
X71173519Y-79413761D01*
X71173519Y-79335666D01*
X71212566Y-79257571D01*
X71251614Y-79218523D01*
X71329709Y-79179476D01*
X71485900Y-79140428D01*
X71563995Y-79101380D01*
X71603042Y-79062333D01*
X71642090Y-78984238D01*
X71642090Y-78906142D01*
X71603042Y-78828047D01*
X71563995Y-78789000D01*
X71485900Y-78749952D01*
X71290661Y-78749952D01*
X71173519Y-78789000D01*
X70470661Y-79023285D02*
X70470661Y-79569952D01*
X70822090Y-79023285D02*
X70822090Y-79452809D01*
X70783042Y-79530904D01*
X70704947Y-79569952D01*
X70587804Y-79569952D01*
X70509709Y-79530904D01*
X70470661Y-79491857D01*
X70080185Y-79569952D02*
X70080185Y-78749952D01*
X70080185Y-79062333D02*
X70002090Y-79023285D01*
X69845900Y-79023285D01*
X69767804Y-79062333D01*
X69728757Y-79101380D01*
X69689709Y-79179476D01*
X69689709Y-79413761D01*
X69728757Y-79491857D01*
X69767804Y-79530904D01*
X69845900Y-79569952D01*
X70002090Y-79569952D01*
X70080185Y-79530904D01*
X69533519Y-79648047D02*
X68908757Y-79648047D01*
X68830661Y-78749952D02*
X68557328Y-79569952D01*
X68283995Y-78749952D01*
X68049709Y-78828047D02*
X68010661Y-78789000D01*
X67932566Y-78749952D01*
X67737328Y-78749952D01*
X67659233Y-78789000D01*
X67620185Y-78828047D01*
X67581138Y-78906142D01*
X67581138Y-78984238D01*
X67620185Y-79101380D01*
X68088757Y-79569952D01*
X67581138Y-79569952D01*
X67229709Y-79491857D02*
X67190661Y-79530904D01*
X67229709Y-79569952D01*
X67268757Y-79530904D01*
X67229709Y-79491857D01*
X67229709Y-79569952D01*
X66683042Y-78749952D02*
X66604947Y-78749952D01*
X66526852Y-78789000D01*
X66487804Y-78828047D01*
X66448757Y-78906142D01*
X66409709Y-79062333D01*
X66409709Y-79257571D01*
X66448757Y-79413761D01*
X66487804Y-79491857D01*
X66526852Y-79530904D01*
X66604947Y-79569952D01*
X66683042Y-79569952D01*
X66761138Y-79530904D01*
X66800185Y-79491857D01*
X66839233Y-79413761D01*
X66878280Y-79257571D01*
X66878280Y-79062333D01*
X66839233Y-78906142D01*
X66800185Y-78828047D01*
X66761138Y-78789000D01*
X66683042Y-78749952D01*
%LPC*%
D11*
X73723500Y-81356200D03*
X76263500Y-81356200D03*
X73723500Y-83896200D03*
X76263500Y-83896200D03*
X73723500Y-86436200D03*
X76263500Y-86436200D03*
X73723500Y-88976200D03*
D12*
X76263500Y-88976200D03*
D13*
X52457700Y-89536800D03*
D14*
X49917700Y-89536800D03*
X52457700Y-86996800D03*
X49917700Y-86996800D03*
X52457700Y-84456800D03*
X49917700Y-84456800D03*
X52457700Y-81916800D03*
X49917700Y-81916800D03*
X52457700Y-79376800D03*
X49917700Y-79376800D03*
X52457700Y-76836800D03*
X49917700Y-76836800D03*
D15*
X57294600Y-77762100D03*
X59194600Y-77762100D03*
M02*
