G04 #@! TF.GenerationSoftware,KiCad,Pcbnew,(5.1.5)-3*
G04 #@! TF.CreationDate,2020-03-15T16:40:32+08:00*
G04 #@! TF.ProjectId,InHub_Sub,496e4875-625f-4537-9562-2e6b69636164,rev?*
G04 #@! TF.SameCoordinates,Original*
G04 #@! TF.FileFunction,Copper,L2,Bot*
G04 #@! TF.FilePolarity,Positive*
%FSLAX46Y46*%
G04 Gerber Fmt 4.6, Leading zero omitted, Abs format (unit mm)*
G04 Created by KiCad (PCBNEW (5.1.5)-3) date 2020-03-15 16:40:32*
%MOMM*%
%LPD*%
G04 APERTURE LIST*
%ADD10C,1.524000*%
%ADD11R,1.524000X1.524000*%
%ADD12R,1.700000X1.700000*%
%ADD13O,1.700000X1.700000*%
%ADD14C,1.000000*%
%ADD15C,0.700000*%
%ADD16C,0.381000*%
%ADD17C,0.254000*%
%ADD18C,0.160000*%
G04 APERTURE END LIST*
D10*
X73723500Y-81356200D03*
X76263500Y-81356200D03*
X73723500Y-83896200D03*
X76263500Y-83896200D03*
X73723500Y-86436200D03*
X76263500Y-86436200D03*
X73723500Y-88976200D03*
D11*
X76263500Y-88976200D03*
D12*
X52457700Y-89536800D03*
D13*
X49917700Y-89536800D03*
X52457700Y-86996800D03*
X49917700Y-86996800D03*
X52457700Y-84456800D03*
X49917700Y-84456800D03*
X52457700Y-81916800D03*
X49917700Y-81916800D03*
X52457700Y-79376800D03*
X49917700Y-79376800D03*
X52457700Y-76836800D03*
X49917700Y-76836800D03*
D14*
X57294600Y-77762100D03*
X59194600Y-77762100D03*
D15*
X56690500Y-79177800D03*
X63079980Y-77771520D03*
X58116820Y-85264520D03*
X61449300Y-75287400D03*
X74962100Y-82653400D03*
X68510500Y-84050400D03*
X65818100Y-84279000D03*
X64090900Y-78487800D03*
X51009900Y-91010000D03*
X51289300Y-75668400D03*
X49686719Y-75230600D03*
X54075719Y-75230600D03*
X56709119Y-89275400D03*
X56709119Y-91031000D03*
X60220319Y-91031000D03*
X61975919Y-91031000D03*
X63731519Y-84008600D03*
X63731519Y-85764200D03*
X63731519Y-88397600D03*
X63731519Y-90153200D03*
X64609319Y-89275400D03*
X64609319Y-91031000D03*
X65487119Y-85764200D03*
X65487119Y-88397600D03*
X65487119Y-90153200D03*
X66364919Y-91031000D03*
X67242719Y-90153200D03*
X68120519Y-76108400D03*
X68120519Y-91031000D03*
X69876119Y-91031000D03*
X71631719Y-84008600D03*
X71631719Y-88397600D03*
X71631719Y-90153200D03*
X72509519Y-91031000D03*
X74265119Y-91031000D03*
X76020719Y-91031000D03*
X76898519Y-75427800D03*
X76898519Y-76986200D03*
D14*
X58166000Y-86969600D03*
D15*
X65354200Y-76327000D03*
X64409895Y-77098723D03*
X69862698Y-77685898D03*
X65278000Y-78473304D03*
X64940500Y-80427808D03*
X65404706Y-81172828D03*
X64468055Y-79677798D03*
X65310100Y-82482430D03*
X62725321Y-80975234D03*
X53900373Y-83354775D03*
X59722100Y-79653538D03*
X62496700Y-79775810D03*
X56296798Y-80875400D03*
X62490700Y-82907398D03*
X63004700Y-81927700D03*
X54229000Y-84988400D03*
D16*
X54965600Y-86969600D02*
X58166000Y-86969600D01*
X52457700Y-84456800D02*
X52457700Y-84461700D01*
X52457700Y-84461700D02*
X54965600Y-86969600D01*
D17*
X65354200Y-76327000D02*
X65087500Y-76060300D01*
X55774200Y-76060300D02*
X52457700Y-79376800D01*
X65087500Y-76060300D02*
X55774200Y-76060300D01*
X56080576Y-76748724D02*
X64059896Y-76748724D01*
X54775100Y-78054200D02*
X56080576Y-76748724D01*
X52457700Y-81916800D02*
X54775100Y-79599400D01*
X64059896Y-76748724D02*
X64409895Y-77098723D01*
X54775100Y-79599400D02*
X54775100Y-78054200D01*
X76883153Y-77685898D02*
X69862698Y-77685898D01*
X74993500Y-87706200D02*
X76822300Y-87706200D01*
X73723500Y-86436200D02*
X74993500Y-87706200D01*
X76822300Y-87706200D02*
X77800200Y-86728300D01*
X77800200Y-86728300D02*
X77800200Y-78602945D01*
X77800200Y-78602945D02*
X76883153Y-77685898D01*
X74959470Y-78473304D02*
X65278000Y-78473304D01*
X77330301Y-80844135D02*
X74959470Y-78473304D01*
X76263500Y-86436200D02*
X77330301Y-85369399D01*
X77330301Y-85369399D02*
X77330301Y-80844135D01*
X72795108Y-80427808D02*
X64940500Y-80427808D01*
X73723500Y-81356200D02*
X72795108Y-80427808D01*
X71000128Y-81172828D02*
X65404706Y-81172828D01*
X73723500Y-83896200D02*
X71000128Y-81172828D01*
X74585098Y-79677798D02*
X64468055Y-79677798D01*
X76263500Y-81356200D02*
X74585098Y-79677798D01*
X75501501Y-84658199D02*
X76263500Y-83896200D01*
X68197069Y-85369399D02*
X74790301Y-85369399D01*
X74790301Y-85369399D02*
X75501501Y-84658199D01*
X65310100Y-82482430D02*
X68197069Y-85369399D01*
X61230121Y-82470434D02*
X61230121Y-83447862D01*
X62725321Y-80975234D02*
X61230121Y-82470434D01*
X60610915Y-84067068D02*
X54612666Y-84067068D01*
X54612666Y-84067068D02*
X54250372Y-83704774D01*
X61230121Y-83447862D02*
X60610915Y-84067068D01*
X54250372Y-83704774D02*
X53900373Y-83354775D01*
X53873952Y-82455154D02*
X56920484Y-82455154D01*
X56920484Y-82455154D02*
X59722100Y-79653538D01*
X49917700Y-81916800D02*
X51197701Y-83196801D01*
X53132305Y-83196801D02*
X53873952Y-82455154D01*
X51197701Y-83196801D02*
X53132305Y-83196801D01*
X58196200Y-78975998D02*
X56646797Y-80525401D01*
X56646797Y-80525401D02*
X56296798Y-80875400D01*
X62496700Y-79775810D02*
X61696888Y-78975998D01*
X61696888Y-78975998D02*
X58196200Y-78975998D01*
X62490700Y-83836006D02*
X62490700Y-82907398D01*
X57983706Y-88343000D02*
X62490700Y-83836006D01*
X49917700Y-89536800D02*
X51111500Y-88343000D01*
X51111500Y-88343000D02*
X57983706Y-88343000D01*
X63004700Y-81927700D02*
X62387839Y-81927700D01*
X61189541Y-84498879D02*
X54718521Y-84498879D01*
X61803465Y-83884955D02*
X61189541Y-84498879D01*
X61803465Y-82512074D02*
X61803465Y-83884955D01*
X62387839Y-81927700D02*
X61803465Y-82512074D01*
X54718521Y-84498879D02*
X54578999Y-84638401D01*
X54578999Y-84638401D02*
X54229000Y-84988400D01*
D18*
G36*
X77925500Y-78184056D02*
G01*
X77168617Y-77427174D01*
X77156564Y-77412487D01*
X77097970Y-77364401D01*
X77031122Y-77328670D01*
X76958587Y-77306667D01*
X76902047Y-77301098D01*
X76883153Y-77299237D01*
X76864259Y-77301098D01*
X70336578Y-77301098D01*
X70334807Y-77298448D01*
X70250148Y-77213789D01*
X70150599Y-77147273D01*
X70039987Y-77101455D01*
X69922561Y-77078098D01*
X69802835Y-77078098D01*
X69685409Y-77101455D01*
X69574797Y-77147273D01*
X69475248Y-77213789D01*
X69390589Y-77298448D01*
X69324073Y-77397997D01*
X69278255Y-77508609D01*
X69254898Y-77626035D01*
X69254898Y-77745761D01*
X69278255Y-77863187D01*
X69324073Y-77973799D01*
X69390589Y-78073348D01*
X69405745Y-78088504D01*
X65751880Y-78088504D01*
X65750109Y-78085854D01*
X65665450Y-78001195D01*
X65565901Y-77934679D01*
X65455289Y-77888861D01*
X65337863Y-77865504D01*
X65218137Y-77865504D01*
X65100711Y-77888861D01*
X64990099Y-77934679D01*
X64890550Y-78001195D01*
X64805891Y-78085854D01*
X64739375Y-78185403D01*
X64693557Y-78296015D01*
X64670200Y-78413441D01*
X64670200Y-78533167D01*
X64693557Y-78650593D01*
X64739375Y-78761205D01*
X64805891Y-78860754D01*
X64890550Y-78945413D01*
X64990099Y-79011929D01*
X65100711Y-79057747D01*
X65218137Y-79081104D01*
X65337863Y-79081104D01*
X65455289Y-79057747D01*
X65565901Y-79011929D01*
X65665450Y-78945413D01*
X65750109Y-78860754D01*
X65751880Y-78858104D01*
X74800082Y-78858104D01*
X76278377Y-80336400D01*
X76163059Y-80336400D01*
X75966035Y-80375591D01*
X75867779Y-80416290D01*
X74870562Y-79419074D01*
X74858509Y-79404387D01*
X74799915Y-79356301D01*
X74733067Y-79320570D01*
X74660532Y-79298567D01*
X74603992Y-79292998D01*
X74585098Y-79291137D01*
X74566204Y-79292998D01*
X64941935Y-79292998D01*
X64940164Y-79290348D01*
X64855505Y-79205689D01*
X64755956Y-79139173D01*
X64645344Y-79093355D01*
X64527918Y-79069998D01*
X64408192Y-79069998D01*
X64290766Y-79093355D01*
X64180154Y-79139173D01*
X64080605Y-79205689D01*
X63995946Y-79290348D01*
X63929430Y-79389897D01*
X63883612Y-79500509D01*
X63860255Y-79617935D01*
X63860255Y-79737661D01*
X63883612Y-79855087D01*
X63929430Y-79965699D01*
X63995946Y-80065248D01*
X64080605Y-80149907D01*
X64180154Y-80216423D01*
X64290766Y-80262241D01*
X64351329Y-80274288D01*
X64332700Y-80367945D01*
X64332700Y-80487671D01*
X64356057Y-80605097D01*
X64401875Y-80715709D01*
X64468391Y-80815258D01*
X64553050Y-80899917D01*
X64652599Y-80966433D01*
X64763211Y-81012251D01*
X64814894Y-81022531D01*
X64796906Y-81112965D01*
X64796906Y-81232691D01*
X64820263Y-81350117D01*
X64866081Y-81460729D01*
X64932597Y-81560278D01*
X65017256Y-81644937D01*
X65116805Y-81711453D01*
X65227417Y-81757271D01*
X65344843Y-81780628D01*
X65464569Y-81780628D01*
X65581995Y-81757271D01*
X65692607Y-81711453D01*
X65792156Y-81644937D01*
X65876815Y-81560278D01*
X65878586Y-81557628D01*
X70840740Y-81557628D01*
X72783590Y-83500479D01*
X72742891Y-83598735D01*
X72703700Y-83795759D01*
X72703700Y-83996641D01*
X72742891Y-84193665D01*
X72819765Y-84379256D01*
X72931370Y-84546284D01*
X73073416Y-84688330D01*
X73240444Y-84799935D01*
X73426035Y-84876809D01*
X73623059Y-84916000D01*
X73823941Y-84916000D01*
X74020965Y-84876809D01*
X74206556Y-84799935D01*
X74373584Y-84688330D01*
X74515630Y-84546284D01*
X74627235Y-84379256D01*
X74704109Y-84193665D01*
X74743300Y-83996641D01*
X74743300Y-83795759D01*
X74704109Y-83598735D01*
X74627235Y-83413144D01*
X74515630Y-83246116D01*
X74373584Y-83104070D01*
X74206556Y-82992465D01*
X74020965Y-82915591D01*
X73823941Y-82876400D01*
X73623059Y-82876400D01*
X73426035Y-82915591D01*
X73327779Y-82956290D01*
X71285592Y-80914104D01*
X71273539Y-80899417D01*
X71214945Y-80851331D01*
X71148097Y-80815600D01*
X71138234Y-80812608D01*
X72635720Y-80812608D01*
X72783590Y-80960479D01*
X72742891Y-81058735D01*
X72703700Y-81255759D01*
X72703700Y-81456641D01*
X72742891Y-81653665D01*
X72819765Y-81839256D01*
X72931370Y-82006284D01*
X73073416Y-82148330D01*
X73240444Y-82259935D01*
X73426035Y-82336809D01*
X73623059Y-82376000D01*
X73823941Y-82376000D01*
X74020965Y-82336809D01*
X74206556Y-82259935D01*
X74373584Y-82148330D01*
X74515630Y-82006284D01*
X74627235Y-81839256D01*
X74704109Y-81653665D01*
X74743300Y-81456641D01*
X74743300Y-81255759D01*
X74704109Y-81058735D01*
X74627235Y-80873144D01*
X74515630Y-80706116D01*
X74373584Y-80564070D01*
X74206556Y-80452465D01*
X74020965Y-80375591D01*
X73823941Y-80336400D01*
X73623059Y-80336400D01*
X73426035Y-80375591D01*
X73327779Y-80416290D01*
X73080572Y-80169084D01*
X73068519Y-80154397D01*
X73009925Y-80106311D01*
X72943077Y-80070580D01*
X72916764Y-80062598D01*
X74425710Y-80062598D01*
X75323590Y-80960479D01*
X75282891Y-81058735D01*
X75243700Y-81255759D01*
X75243700Y-81456641D01*
X75282891Y-81653665D01*
X75359765Y-81839256D01*
X75471370Y-82006284D01*
X75613416Y-82148330D01*
X75780444Y-82259935D01*
X75966035Y-82336809D01*
X76163059Y-82376000D01*
X76363941Y-82376000D01*
X76560965Y-82336809D01*
X76746556Y-82259935D01*
X76913584Y-82148330D01*
X76945502Y-82116412D01*
X76945501Y-83135987D01*
X76913584Y-83104070D01*
X76746556Y-82992465D01*
X76560965Y-82915591D01*
X76363941Y-82876400D01*
X76163059Y-82876400D01*
X75966035Y-82915591D01*
X75780444Y-82992465D01*
X75613416Y-83104070D01*
X75471370Y-83246116D01*
X75359765Y-83413144D01*
X75282891Y-83598735D01*
X75243700Y-83795759D01*
X75243700Y-83996641D01*
X75282891Y-84193665D01*
X75323590Y-84291922D01*
X75242771Y-84372741D01*
X75242766Y-84372745D01*
X74630913Y-84984599D01*
X68356458Y-84984599D01*
X65917278Y-82545420D01*
X65917900Y-82542293D01*
X65917900Y-82422567D01*
X65894543Y-82305141D01*
X65848725Y-82194529D01*
X65782209Y-82094980D01*
X65697550Y-82010321D01*
X65598001Y-81943805D01*
X65487389Y-81897987D01*
X65369963Y-81874630D01*
X65250237Y-81874630D01*
X65132811Y-81897987D01*
X65022199Y-81943805D01*
X64922650Y-82010321D01*
X64837991Y-82094980D01*
X64771475Y-82194529D01*
X64725657Y-82305141D01*
X64702300Y-82422567D01*
X64702300Y-82542293D01*
X64725657Y-82659719D01*
X64771475Y-82770331D01*
X64837991Y-82869880D01*
X64922650Y-82954539D01*
X65022199Y-83021055D01*
X65132811Y-83066873D01*
X65250237Y-83090230D01*
X65369963Y-83090230D01*
X65373090Y-83089608D01*
X67911609Y-85628128D01*
X67923658Y-85642810D01*
X67982252Y-85690896D01*
X68049100Y-85726627D01*
X68121635Y-85748630D01*
X68197069Y-85756060D01*
X68215963Y-85754199D01*
X72963287Y-85754199D01*
X72931370Y-85786116D01*
X72819765Y-85953144D01*
X72742891Y-86138735D01*
X72703700Y-86335759D01*
X72703700Y-86536641D01*
X72742891Y-86733665D01*
X72819765Y-86919256D01*
X72931370Y-87086284D01*
X73073416Y-87228330D01*
X73240444Y-87339935D01*
X73426035Y-87416809D01*
X73623059Y-87456000D01*
X73823941Y-87456000D01*
X74020965Y-87416809D01*
X74119221Y-87376110D01*
X74708040Y-87964929D01*
X74720089Y-87979611D01*
X74778683Y-88027697D01*
X74842912Y-88062028D01*
X74845531Y-88063428D01*
X74918065Y-88085431D01*
X74993499Y-88092861D01*
X75012393Y-88091000D01*
X75249863Y-88091000D01*
X75241562Y-88106530D01*
X75225551Y-88159310D01*
X75220145Y-88214200D01*
X75221500Y-88836200D01*
X75291500Y-88906200D01*
X76193500Y-88906200D01*
X76193500Y-88886200D01*
X76333500Y-88886200D01*
X76333500Y-88906200D01*
X77235500Y-88906200D01*
X77305500Y-88836200D01*
X77306855Y-88214200D01*
X77301449Y-88159310D01*
X77285438Y-88106530D01*
X77259438Y-88057888D01*
X77224448Y-88015252D01*
X77181812Y-87980262D01*
X77133170Y-87954262D01*
X77121858Y-87950830D01*
X77925501Y-87147188D01*
X77925501Y-91662800D01*
X48442800Y-91662800D01*
X48442800Y-86887691D01*
X48809900Y-86887691D01*
X48809900Y-87105909D01*
X48852472Y-87319933D01*
X48935981Y-87521540D01*
X49057216Y-87702981D01*
X49211519Y-87857284D01*
X49392960Y-87978519D01*
X49594567Y-88062028D01*
X49808591Y-88104600D01*
X50026809Y-88104600D01*
X50240833Y-88062028D01*
X50442440Y-87978519D01*
X50623881Y-87857284D01*
X50778184Y-87702981D01*
X50899419Y-87521540D01*
X50982928Y-87319933D01*
X51025500Y-87105909D01*
X51025500Y-86887691D01*
X50982928Y-86673667D01*
X50899419Y-86472060D01*
X50778184Y-86290619D01*
X50623881Y-86136316D01*
X50442440Y-86015081D01*
X50240833Y-85931572D01*
X50026809Y-85889000D01*
X49808591Y-85889000D01*
X49594567Y-85931572D01*
X49392960Y-86015081D01*
X49211519Y-86136316D01*
X49057216Y-86290619D01*
X48935981Y-86472060D01*
X48852472Y-86673667D01*
X48809900Y-86887691D01*
X48442800Y-86887691D01*
X48442800Y-84347691D01*
X48809900Y-84347691D01*
X48809900Y-84565909D01*
X48852472Y-84779933D01*
X48935981Y-84981540D01*
X49057216Y-85162981D01*
X49211519Y-85317284D01*
X49392960Y-85438519D01*
X49594567Y-85522028D01*
X49808591Y-85564600D01*
X50026809Y-85564600D01*
X50240833Y-85522028D01*
X50442440Y-85438519D01*
X50623881Y-85317284D01*
X50778184Y-85162981D01*
X50899419Y-84981540D01*
X50982928Y-84779933D01*
X51025500Y-84565909D01*
X51025500Y-84347691D01*
X50982928Y-84133667D01*
X50899419Y-83932060D01*
X50778184Y-83750619D01*
X50623881Y-83596316D01*
X50442440Y-83475081D01*
X50240833Y-83391572D01*
X50026809Y-83349000D01*
X49808591Y-83349000D01*
X49594567Y-83391572D01*
X49392960Y-83475081D01*
X49211519Y-83596316D01*
X49057216Y-83750619D01*
X48935981Y-83932060D01*
X48852472Y-84133667D01*
X48809900Y-84347691D01*
X48442800Y-84347691D01*
X48442800Y-81807691D01*
X48809900Y-81807691D01*
X48809900Y-82025909D01*
X48852472Y-82239933D01*
X48935981Y-82441540D01*
X49057216Y-82622981D01*
X49211519Y-82777284D01*
X49392960Y-82898519D01*
X49594567Y-82982028D01*
X49808591Y-83024600D01*
X50026809Y-83024600D01*
X50240833Y-82982028D01*
X50380774Y-82924062D01*
X50912241Y-83455530D01*
X50924290Y-83470212D01*
X50982884Y-83518298D01*
X51043227Y-83550552D01*
X51049732Y-83554029D01*
X51122267Y-83576032D01*
X51197701Y-83583462D01*
X51216595Y-83581601D01*
X51773542Y-83581601D01*
X51751519Y-83596316D01*
X51597216Y-83750619D01*
X51475981Y-83932060D01*
X51392472Y-84133667D01*
X51349900Y-84347691D01*
X51349900Y-84565909D01*
X51392472Y-84779933D01*
X51475981Y-84981540D01*
X51597216Y-85162981D01*
X51751519Y-85317284D01*
X51932960Y-85438519D01*
X52134567Y-85522028D01*
X52348591Y-85564600D01*
X52566809Y-85564600D01*
X52780833Y-85522028D01*
X52853809Y-85491800D01*
X54633030Y-87271022D01*
X54647070Y-87288130D01*
X54715333Y-87344151D01*
X54793213Y-87385779D01*
X54877718Y-87411413D01*
X54943579Y-87417900D01*
X54943580Y-87417900D01*
X54965599Y-87420069D01*
X54987618Y-87417900D01*
X57554146Y-87417900D01*
X57577378Y-87452670D01*
X57682930Y-87558222D01*
X57807047Y-87641154D01*
X57944958Y-87698278D01*
X58061131Y-87721387D01*
X57824318Y-87958200D01*
X53012850Y-87958200D01*
X53163881Y-87857284D01*
X53318184Y-87702981D01*
X53439419Y-87521540D01*
X53522928Y-87319933D01*
X53565500Y-87105909D01*
X53565500Y-86887691D01*
X53522928Y-86673667D01*
X53439419Y-86472060D01*
X53318184Y-86290619D01*
X53163881Y-86136316D01*
X52982440Y-86015081D01*
X52780833Y-85931572D01*
X52566809Y-85889000D01*
X52348591Y-85889000D01*
X52134567Y-85931572D01*
X51932960Y-86015081D01*
X51751519Y-86136316D01*
X51597216Y-86290619D01*
X51475981Y-86472060D01*
X51392472Y-86673667D01*
X51349900Y-86887691D01*
X51349900Y-87105909D01*
X51392472Y-87319933D01*
X51475981Y-87521540D01*
X51597216Y-87702981D01*
X51751519Y-87857284D01*
X51902550Y-87958200D01*
X51130393Y-87958200D01*
X51111499Y-87956339D01*
X51036065Y-87963769D01*
X50983841Y-87979611D01*
X50963531Y-87985772D01*
X50896683Y-88021503D01*
X50838089Y-88069589D01*
X50826040Y-88084271D01*
X50380774Y-88529538D01*
X50240833Y-88471572D01*
X50026809Y-88429000D01*
X49808591Y-88429000D01*
X49594567Y-88471572D01*
X49392960Y-88555081D01*
X49211519Y-88676316D01*
X49057216Y-88830619D01*
X48935981Y-89012060D01*
X48852472Y-89213667D01*
X48809900Y-89427691D01*
X48809900Y-89645909D01*
X48852472Y-89859933D01*
X48935981Y-90061540D01*
X49057216Y-90242981D01*
X49211519Y-90397284D01*
X49392960Y-90518519D01*
X49594567Y-90602028D01*
X49808591Y-90644600D01*
X50026809Y-90644600D01*
X50240833Y-90602028D01*
X50442440Y-90518519D01*
X50623881Y-90397284D01*
X50634365Y-90386800D01*
X51326345Y-90386800D01*
X51331751Y-90441690D01*
X51347762Y-90494470D01*
X51373762Y-90543112D01*
X51408752Y-90585748D01*
X51451388Y-90620738D01*
X51500030Y-90646738D01*
X51552810Y-90662749D01*
X51607700Y-90668155D01*
X52317700Y-90666800D01*
X52387700Y-90596800D01*
X52387700Y-89606800D01*
X52527700Y-89606800D01*
X52527700Y-90596800D01*
X52597700Y-90666800D01*
X53307700Y-90668155D01*
X53362590Y-90662749D01*
X53415370Y-90646738D01*
X53464012Y-90620738D01*
X53506648Y-90585748D01*
X53541638Y-90543112D01*
X53567638Y-90494470D01*
X53583649Y-90441690D01*
X53589055Y-90386800D01*
X53587700Y-89676800D01*
X53517700Y-89606800D01*
X52527700Y-89606800D01*
X52387700Y-89606800D01*
X51397700Y-89606800D01*
X51327700Y-89676800D01*
X51326345Y-90386800D01*
X50634365Y-90386800D01*
X50778184Y-90242981D01*
X50899419Y-90061540D01*
X50982928Y-89859933D01*
X51025500Y-89645909D01*
X51025500Y-89427691D01*
X50982928Y-89213667D01*
X50924962Y-89073726D01*
X51270889Y-88727800D01*
X51326423Y-88727800D01*
X51327700Y-89396800D01*
X51397700Y-89466800D01*
X52387700Y-89466800D01*
X52387700Y-89446800D01*
X52527700Y-89446800D01*
X52527700Y-89466800D01*
X53517700Y-89466800D01*
X53587700Y-89396800D01*
X53588694Y-88875759D01*
X72703700Y-88875759D01*
X72703700Y-89076641D01*
X72742891Y-89273665D01*
X72819765Y-89459256D01*
X72931370Y-89626284D01*
X73073416Y-89768330D01*
X73240444Y-89879935D01*
X73426035Y-89956809D01*
X73623059Y-89996000D01*
X73823941Y-89996000D01*
X74020965Y-89956809D01*
X74206556Y-89879935D01*
X74373584Y-89768330D01*
X74403714Y-89738200D01*
X75220145Y-89738200D01*
X75225551Y-89793090D01*
X75241562Y-89845870D01*
X75267562Y-89894512D01*
X75302552Y-89937148D01*
X75345188Y-89972138D01*
X75393830Y-89998138D01*
X75446610Y-90014149D01*
X75501500Y-90019555D01*
X76123500Y-90018200D01*
X76193500Y-89948200D01*
X76193500Y-89046200D01*
X76333500Y-89046200D01*
X76333500Y-89948200D01*
X76403500Y-90018200D01*
X77025500Y-90019555D01*
X77080390Y-90014149D01*
X77133170Y-89998138D01*
X77181812Y-89972138D01*
X77224448Y-89937148D01*
X77259438Y-89894512D01*
X77285438Y-89845870D01*
X77301449Y-89793090D01*
X77306855Y-89738200D01*
X77305500Y-89116200D01*
X77235500Y-89046200D01*
X76333500Y-89046200D01*
X76193500Y-89046200D01*
X75291500Y-89046200D01*
X75221500Y-89116200D01*
X75220145Y-89738200D01*
X74403714Y-89738200D01*
X74515630Y-89626284D01*
X74627235Y-89459256D01*
X74704109Y-89273665D01*
X74743300Y-89076641D01*
X74743300Y-88875759D01*
X74704109Y-88678735D01*
X74627235Y-88493144D01*
X74515630Y-88326116D01*
X74373584Y-88184070D01*
X74206556Y-88072465D01*
X74020965Y-87995591D01*
X73823941Y-87956400D01*
X73623059Y-87956400D01*
X73426035Y-87995591D01*
X73240444Y-88072465D01*
X73073416Y-88184070D01*
X72931370Y-88326116D01*
X72819765Y-88493144D01*
X72742891Y-88678735D01*
X72703700Y-88875759D01*
X53588694Y-88875759D01*
X53588977Y-88727800D01*
X57964812Y-88727800D01*
X57983706Y-88729661D01*
X58002600Y-88727800D01*
X58059140Y-88722231D01*
X58131675Y-88700228D01*
X58198523Y-88664497D01*
X58257117Y-88616411D01*
X58269171Y-88601723D01*
X62749430Y-84121465D01*
X62764111Y-84109417D01*
X62812197Y-84050823D01*
X62847928Y-83983975D01*
X62867459Y-83919590D01*
X62869931Y-83911441D01*
X62877361Y-83836007D01*
X62875500Y-83817113D01*
X62875500Y-83381278D01*
X62878150Y-83379507D01*
X62962809Y-83294848D01*
X63029325Y-83195299D01*
X63075143Y-83084687D01*
X63098500Y-82967261D01*
X63098500Y-82847535D01*
X63075143Y-82730109D01*
X63029325Y-82619497D01*
X62973200Y-82535500D01*
X63064563Y-82535500D01*
X63181989Y-82512143D01*
X63292601Y-82466325D01*
X63392150Y-82399809D01*
X63476809Y-82315150D01*
X63543325Y-82215601D01*
X63589143Y-82104989D01*
X63612500Y-81987563D01*
X63612500Y-81867837D01*
X63589143Y-81750411D01*
X63543325Y-81639799D01*
X63476809Y-81540250D01*
X63392150Y-81455591D01*
X63292601Y-81389075D01*
X63204250Y-81352478D01*
X63263946Y-81263135D01*
X63309764Y-81152523D01*
X63333121Y-81035097D01*
X63333121Y-80915371D01*
X63309764Y-80797945D01*
X63263946Y-80687333D01*
X63197430Y-80587784D01*
X63112771Y-80503125D01*
X63013222Y-80436609D01*
X62902610Y-80390791D01*
X62785184Y-80367434D01*
X62665458Y-80367434D01*
X62548032Y-80390791D01*
X62437420Y-80436609D01*
X62337871Y-80503125D01*
X62253212Y-80587784D01*
X62186696Y-80687333D01*
X62140878Y-80797945D01*
X62117521Y-80915371D01*
X62117521Y-81035097D01*
X62118143Y-81038223D01*
X60971397Y-82184970D01*
X60956710Y-82197023D01*
X60908624Y-82255618D01*
X60872894Y-82322465D01*
X60872893Y-82322466D01*
X60850890Y-82395000D01*
X60843460Y-82470434D01*
X60845321Y-82489328D01*
X60845322Y-83288472D01*
X60451527Y-83682268D01*
X54772055Y-83682268D01*
X54535830Y-83446044D01*
X54535826Y-83446039D01*
X54507551Y-83417764D01*
X54508173Y-83414638D01*
X54508173Y-83294912D01*
X54484816Y-83177486D01*
X54438998Y-83066874D01*
X54372482Y-82967325D01*
X54287823Y-82882666D01*
X54223899Y-82839954D01*
X56901590Y-82839954D01*
X56920484Y-82841815D01*
X56939378Y-82839954D01*
X56995918Y-82834385D01*
X57068453Y-82812382D01*
X57135301Y-82776651D01*
X57193895Y-82728565D01*
X57205948Y-82713878D01*
X59659111Y-80260716D01*
X59662237Y-80261338D01*
X59781963Y-80261338D01*
X59899389Y-80237981D01*
X60010001Y-80192163D01*
X60109550Y-80125647D01*
X60194209Y-80040988D01*
X60260725Y-79941439D01*
X60306543Y-79830827D01*
X60329900Y-79713401D01*
X60329900Y-79593675D01*
X60306543Y-79476249D01*
X60260725Y-79365637D01*
X60257492Y-79360798D01*
X61537500Y-79360798D01*
X61889522Y-79712820D01*
X61888900Y-79715947D01*
X61888900Y-79835673D01*
X61912257Y-79953099D01*
X61958075Y-80063711D01*
X62024591Y-80163260D01*
X62109250Y-80247919D01*
X62208799Y-80314435D01*
X62319411Y-80360253D01*
X62436837Y-80383610D01*
X62556563Y-80383610D01*
X62673989Y-80360253D01*
X62784601Y-80314435D01*
X62884150Y-80247919D01*
X62968809Y-80163260D01*
X63035325Y-80063711D01*
X63081143Y-79953099D01*
X63104500Y-79835673D01*
X63104500Y-79715947D01*
X63081143Y-79598521D01*
X63035325Y-79487909D01*
X62968809Y-79388360D01*
X62884150Y-79303701D01*
X62784601Y-79237185D01*
X62673989Y-79191367D01*
X62556563Y-79168010D01*
X62436837Y-79168010D01*
X62433710Y-79168632D01*
X61982352Y-78717274D01*
X61970299Y-78702587D01*
X61911705Y-78654501D01*
X61844857Y-78618770D01*
X61772322Y-78596767D01*
X61715782Y-78591198D01*
X61696888Y-78589337D01*
X61677994Y-78591198D01*
X58215094Y-78591198D01*
X58196200Y-78589337D01*
X58177306Y-78591198D01*
X58120766Y-78596767D01*
X58048231Y-78618770D01*
X57981383Y-78654501D01*
X57922789Y-78702587D01*
X57910740Y-78717269D01*
X56388067Y-80239943D01*
X56388062Y-80239947D01*
X56359787Y-80268222D01*
X56356661Y-80267600D01*
X56236935Y-80267600D01*
X56119509Y-80290957D01*
X56008897Y-80336775D01*
X55909348Y-80403291D01*
X55824689Y-80487950D01*
X55758173Y-80587499D01*
X55712355Y-80698111D01*
X55688998Y-80815537D01*
X55688998Y-80935263D01*
X55712355Y-81052689D01*
X55758173Y-81163301D01*
X55824689Y-81262850D01*
X55909348Y-81347509D01*
X56008897Y-81414025D01*
X56119509Y-81459843D01*
X56236935Y-81483200D01*
X56356661Y-81483200D01*
X56474087Y-81459843D01*
X56584699Y-81414025D01*
X56684248Y-81347509D01*
X56768907Y-81262850D01*
X56835423Y-81163301D01*
X56881241Y-81052689D01*
X56904598Y-80935263D01*
X56904598Y-80815537D01*
X56903976Y-80812411D01*
X56932251Y-80784136D01*
X56932255Y-80784131D01*
X58355589Y-79360798D01*
X59186708Y-79360798D01*
X59183475Y-79365637D01*
X59137657Y-79476249D01*
X59114300Y-79593675D01*
X59114300Y-79713401D01*
X59114922Y-79716527D01*
X56761096Y-82070354D01*
X53892845Y-82070354D01*
X53873951Y-82068493D01*
X53798517Y-82075923D01*
X53748146Y-82091203D01*
X53725983Y-82097926D01*
X53659135Y-82133657D01*
X53600541Y-82181743D01*
X53588492Y-82196425D01*
X53507332Y-82277585D01*
X53522928Y-82239933D01*
X53565500Y-82025909D01*
X53565500Y-81807691D01*
X53522928Y-81593667D01*
X53464962Y-81453726D01*
X55033836Y-79884854D01*
X55048511Y-79872811D01*
X55096597Y-79814217D01*
X55132328Y-79747369D01*
X55154331Y-79674834D01*
X55159900Y-79618294D01*
X55159900Y-79618293D01*
X55161761Y-79599400D01*
X55159900Y-79580506D01*
X55159900Y-78213588D01*
X56239965Y-77133524D01*
X56871326Y-77133524D01*
X56811530Y-77173478D01*
X56705978Y-77279030D01*
X56623046Y-77403147D01*
X56565922Y-77541058D01*
X56536800Y-77687463D01*
X56536800Y-77836737D01*
X56565922Y-77983142D01*
X56623046Y-78121053D01*
X56705978Y-78245170D01*
X56811530Y-78350722D01*
X56935647Y-78433654D01*
X57073558Y-78490778D01*
X57219963Y-78519900D01*
X57369237Y-78519900D01*
X57515642Y-78490778D01*
X57653553Y-78433654D01*
X57777670Y-78350722D01*
X57883222Y-78245170D01*
X57966154Y-78121053D01*
X58023278Y-77983142D01*
X58052400Y-77836737D01*
X58052400Y-77687463D01*
X58023278Y-77541058D01*
X57966154Y-77403147D01*
X57883222Y-77279030D01*
X57777670Y-77173478D01*
X57717874Y-77133524D01*
X58771326Y-77133524D01*
X58711530Y-77173478D01*
X58605978Y-77279030D01*
X58523046Y-77403147D01*
X58465922Y-77541058D01*
X58436800Y-77687463D01*
X58436800Y-77836737D01*
X58465922Y-77983142D01*
X58523046Y-78121053D01*
X58605978Y-78245170D01*
X58711530Y-78350722D01*
X58835647Y-78433654D01*
X58973558Y-78490778D01*
X59119963Y-78519900D01*
X59269237Y-78519900D01*
X59415642Y-78490778D01*
X59553553Y-78433654D01*
X59677670Y-78350722D01*
X59783222Y-78245170D01*
X59866154Y-78121053D01*
X59923278Y-77983142D01*
X59952400Y-77836737D01*
X59952400Y-77687463D01*
X59923278Y-77541058D01*
X59866154Y-77403147D01*
X59783222Y-77279030D01*
X59677670Y-77173478D01*
X59617874Y-77133524D01*
X63802095Y-77133524D01*
X63802095Y-77158586D01*
X63825452Y-77276012D01*
X63871270Y-77386624D01*
X63937786Y-77486173D01*
X64022445Y-77570832D01*
X64121994Y-77637348D01*
X64232606Y-77683166D01*
X64350032Y-77706523D01*
X64469758Y-77706523D01*
X64587184Y-77683166D01*
X64697796Y-77637348D01*
X64797345Y-77570832D01*
X64882004Y-77486173D01*
X64948520Y-77386624D01*
X64994338Y-77276012D01*
X65017695Y-77158586D01*
X65017695Y-77038860D01*
X64994338Y-76921434D01*
X64948520Y-76810822D01*
X64888226Y-76720585D01*
X64966750Y-76799109D01*
X65066299Y-76865625D01*
X65176911Y-76911443D01*
X65294337Y-76934800D01*
X65414063Y-76934800D01*
X65531489Y-76911443D01*
X65642101Y-76865625D01*
X65741650Y-76799109D01*
X65826309Y-76714450D01*
X65892825Y-76614901D01*
X65938643Y-76504289D01*
X65962000Y-76386863D01*
X65962000Y-76267137D01*
X65938643Y-76149711D01*
X65892825Y-76039099D01*
X65826309Y-75939550D01*
X65741650Y-75854891D01*
X65642101Y-75788375D01*
X65531489Y-75742557D01*
X65414063Y-75719200D01*
X65294337Y-75719200D01*
X65273425Y-75723360D01*
X65235469Y-75703072D01*
X65162934Y-75681069D01*
X65106394Y-75675500D01*
X65087500Y-75673639D01*
X65068606Y-75675500D01*
X55793093Y-75675500D01*
X55774199Y-75673639D01*
X55698765Y-75681069D01*
X55626231Y-75703072D01*
X55559383Y-75738803D01*
X55500789Y-75786889D01*
X55488740Y-75801571D01*
X52920774Y-78369538D01*
X52780833Y-78311572D01*
X52566809Y-78269000D01*
X52348591Y-78269000D01*
X52134567Y-78311572D01*
X51932960Y-78395081D01*
X51751519Y-78516316D01*
X51597216Y-78670619D01*
X51475981Y-78852060D01*
X51392472Y-79053667D01*
X51349900Y-79267691D01*
X51349900Y-79485909D01*
X51392472Y-79699933D01*
X51475981Y-79901540D01*
X51597216Y-80082981D01*
X51751519Y-80237284D01*
X51932960Y-80358519D01*
X52134567Y-80442028D01*
X52348591Y-80484600D01*
X52566809Y-80484600D01*
X52780833Y-80442028D01*
X52982440Y-80358519D01*
X53163881Y-80237284D01*
X53318184Y-80082981D01*
X53439419Y-79901540D01*
X53522928Y-79699933D01*
X53565500Y-79485909D01*
X53565500Y-79267691D01*
X53522928Y-79053667D01*
X53464962Y-78913726D01*
X54395426Y-77983262D01*
X54388439Y-78054200D01*
X54390301Y-78073104D01*
X54390300Y-79440010D01*
X52920774Y-80909538D01*
X52780833Y-80851572D01*
X52566809Y-80809000D01*
X52348591Y-80809000D01*
X52134567Y-80851572D01*
X51932960Y-80935081D01*
X51751519Y-81056316D01*
X51597216Y-81210619D01*
X51475981Y-81392060D01*
X51392472Y-81593667D01*
X51349900Y-81807691D01*
X51349900Y-82025909D01*
X51392472Y-82239933D01*
X51475981Y-82441540D01*
X51597216Y-82622981D01*
X51751519Y-82777284D01*
X51803477Y-82812001D01*
X51357090Y-82812001D01*
X50924962Y-82379874D01*
X50982928Y-82239933D01*
X51025500Y-82025909D01*
X51025500Y-81807691D01*
X50982928Y-81593667D01*
X50899419Y-81392060D01*
X50778184Y-81210619D01*
X50623881Y-81056316D01*
X50442440Y-80935081D01*
X50240833Y-80851572D01*
X50026809Y-80809000D01*
X49808591Y-80809000D01*
X49594567Y-80851572D01*
X49392960Y-80935081D01*
X49211519Y-81056316D01*
X49057216Y-81210619D01*
X48935981Y-81392060D01*
X48852472Y-81593667D01*
X48809900Y-81807691D01*
X48442800Y-81807691D01*
X48442800Y-79267691D01*
X48809900Y-79267691D01*
X48809900Y-79485909D01*
X48852472Y-79699933D01*
X48935981Y-79901540D01*
X49057216Y-80082981D01*
X49211519Y-80237284D01*
X49392960Y-80358519D01*
X49594567Y-80442028D01*
X49808591Y-80484600D01*
X50026809Y-80484600D01*
X50240833Y-80442028D01*
X50442440Y-80358519D01*
X50623881Y-80237284D01*
X50778184Y-80082981D01*
X50899419Y-79901540D01*
X50982928Y-79699933D01*
X51025500Y-79485909D01*
X51025500Y-79267691D01*
X50982928Y-79053667D01*
X50899419Y-78852060D01*
X50778184Y-78670619D01*
X50623881Y-78516316D01*
X50442440Y-78395081D01*
X50240833Y-78311572D01*
X50026809Y-78269000D01*
X49808591Y-78269000D01*
X49594567Y-78311572D01*
X49392960Y-78395081D01*
X49211519Y-78516316D01*
X49057216Y-78670619D01*
X48935981Y-78852060D01*
X48852472Y-79053667D01*
X48809900Y-79267691D01*
X48442800Y-79267691D01*
X48442800Y-76727691D01*
X48809900Y-76727691D01*
X48809900Y-76945909D01*
X48852472Y-77159933D01*
X48935981Y-77361540D01*
X49057216Y-77542981D01*
X49211519Y-77697284D01*
X49392960Y-77818519D01*
X49594567Y-77902028D01*
X49808591Y-77944600D01*
X50026809Y-77944600D01*
X50240833Y-77902028D01*
X50442440Y-77818519D01*
X50623881Y-77697284D01*
X50778184Y-77542981D01*
X50899419Y-77361540D01*
X50982928Y-77159933D01*
X50998356Y-77082370D01*
X51354706Y-77082370D01*
X51404160Y-77245408D01*
X51504119Y-77443092D01*
X51640724Y-77617477D01*
X51808725Y-77761861D01*
X52001665Y-77870695D01*
X52212130Y-77939797D01*
X52387700Y-77894633D01*
X52387700Y-76906800D01*
X52527700Y-76906800D01*
X52527700Y-77894633D01*
X52703270Y-77939797D01*
X52913735Y-77870695D01*
X53106675Y-77761861D01*
X53274676Y-77617477D01*
X53411281Y-77443092D01*
X53511240Y-77245408D01*
X53560694Y-77082370D01*
X53515386Y-76906800D01*
X52527700Y-76906800D01*
X52387700Y-76906800D01*
X51400014Y-76906800D01*
X51354706Y-77082370D01*
X50998356Y-77082370D01*
X51025500Y-76945909D01*
X51025500Y-76727691D01*
X50998357Y-76591230D01*
X51354706Y-76591230D01*
X51400014Y-76766800D01*
X52387700Y-76766800D01*
X52387700Y-75778967D01*
X52527700Y-75778967D01*
X52527700Y-76766800D01*
X53515386Y-76766800D01*
X53560694Y-76591230D01*
X53511240Y-76428192D01*
X53411281Y-76230508D01*
X53274676Y-76056123D01*
X53106675Y-75911739D01*
X52913735Y-75802905D01*
X52703270Y-75733803D01*
X52527700Y-75778967D01*
X52387700Y-75778967D01*
X52212130Y-75733803D01*
X52001665Y-75802905D01*
X51808725Y-75911739D01*
X51640724Y-76056123D01*
X51504119Y-76230508D01*
X51404160Y-76428192D01*
X51354706Y-76591230D01*
X50998357Y-76591230D01*
X50982928Y-76513667D01*
X50899419Y-76312060D01*
X50778184Y-76130619D01*
X50623881Y-75976316D01*
X50442440Y-75855081D01*
X50240833Y-75771572D01*
X50026809Y-75729000D01*
X49808591Y-75729000D01*
X49594567Y-75771572D01*
X49392960Y-75855081D01*
X49211519Y-75976316D01*
X49057216Y-76130619D01*
X48935981Y-76312060D01*
X48852472Y-76513667D01*
X48809900Y-76727691D01*
X48442800Y-76727691D01*
X48442800Y-74692800D01*
X77925500Y-74692800D01*
X77925500Y-78184056D01*
G37*
X77925500Y-78184056D02*
X77168617Y-77427174D01*
X77156564Y-77412487D01*
X77097970Y-77364401D01*
X77031122Y-77328670D01*
X76958587Y-77306667D01*
X76902047Y-77301098D01*
X76883153Y-77299237D01*
X76864259Y-77301098D01*
X70336578Y-77301098D01*
X70334807Y-77298448D01*
X70250148Y-77213789D01*
X70150599Y-77147273D01*
X70039987Y-77101455D01*
X69922561Y-77078098D01*
X69802835Y-77078098D01*
X69685409Y-77101455D01*
X69574797Y-77147273D01*
X69475248Y-77213789D01*
X69390589Y-77298448D01*
X69324073Y-77397997D01*
X69278255Y-77508609D01*
X69254898Y-77626035D01*
X69254898Y-77745761D01*
X69278255Y-77863187D01*
X69324073Y-77973799D01*
X69390589Y-78073348D01*
X69405745Y-78088504D01*
X65751880Y-78088504D01*
X65750109Y-78085854D01*
X65665450Y-78001195D01*
X65565901Y-77934679D01*
X65455289Y-77888861D01*
X65337863Y-77865504D01*
X65218137Y-77865504D01*
X65100711Y-77888861D01*
X64990099Y-77934679D01*
X64890550Y-78001195D01*
X64805891Y-78085854D01*
X64739375Y-78185403D01*
X64693557Y-78296015D01*
X64670200Y-78413441D01*
X64670200Y-78533167D01*
X64693557Y-78650593D01*
X64739375Y-78761205D01*
X64805891Y-78860754D01*
X64890550Y-78945413D01*
X64990099Y-79011929D01*
X65100711Y-79057747D01*
X65218137Y-79081104D01*
X65337863Y-79081104D01*
X65455289Y-79057747D01*
X65565901Y-79011929D01*
X65665450Y-78945413D01*
X65750109Y-78860754D01*
X65751880Y-78858104D01*
X74800082Y-78858104D01*
X76278377Y-80336400D01*
X76163059Y-80336400D01*
X75966035Y-80375591D01*
X75867779Y-80416290D01*
X74870562Y-79419074D01*
X74858509Y-79404387D01*
X74799915Y-79356301D01*
X74733067Y-79320570D01*
X74660532Y-79298567D01*
X74603992Y-79292998D01*
X74585098Y-79291137D01*
X74566204Y-79292998D01*
X64941935Y-79292998D01*
X64940164Y-79290348D01*
X64855505Y-79205689D01*
X64755956Y-79139173D01*
X64645344Y-79093355D01*
X64527918Y-79069998D01*
X64408192Y-79069998D01*
X64290766Y-79093355D01*
X64180154Y-79139173D01*
X64080605Y-79205689D01*
X63995946Y-79290348D01*
X63929430Y-79389897D01*
X63883612Y-79500509D01*
X63860255Y-79617935D01*
X63860255Y-79737661D01*
X63883612Y-79855087D01*
X63929430Y-79965699D01*
X63995946Y-80065248D01*
X64080605Y-80149907D01*
X64180154Y-80216423D01*
X64290766Y-80262241D01*
X64351329Y-80274288D01*
X64332700Y-80367945D01*
X64332700Y-80487671D01*
X64356057Y-80605097D01*
X64401875Y-80715709D01*
X64468391Y-80815258D01*
X64553050Y-80899917D01*
X64652599Y-80966433D01*
X64763211Y-81012251D01*
X64814894Y-81022531D01*
X64796906Y-81112965D01*
X64796906Y-81232691D01*
X64820263Y-81350117D01*
X64866081Y-81460729D01*
X64932597Y-81560278D01*
X65017256Y-81644937D01*
X65116805Y-81711453D01*
X65227417Y-81757271D01*
X65344843Y-81780628D01*
X65464569Y-81780628D01*
X65581995Y-81757271D01*
X65692607Y-81711453D01*
X65792156Y-81644937D01*
X65876815Y-81560278D01*
X65878586Y-81557628D01*
X70840740Y-81557628D01*
X72783590Y-83500479D01*
X72742891Y-83598735D01*
X72703700Y-83795759D01*
X72703700Y-83996641D01*
X72742891Y-84193665D01*
X72819765Y-84379256D01*
X72931370Y-84546284D01*
X73073416Y-84688330D01*
X73240444Y-84799935D01*
X73426035Y-84876809D01*
X73623059Y-84916000D01*
X73823941Y-84916000D01*
X74020965Y-84876809D01*
X74206556Y-84799935D01*
X74373584Y-84688330D01*
X74515630Y-84546284D01*
X74627235Y-84379256D01*
X74704109Y-84193665D01*
X74743300Y-83996641D01*
X74743300Y-83795759D01*
X74704109Y-83598735D01*
X74627235Y-83413144D01*
X74515630Y-83246116D01*
X74373584Y-83104070D01*
X74206556Y-82992465D01*
X74020965Y-82915591D01*
X73823941Y-82876400D01*
X73623059Y-82876400D01*
X73426035Y-82915591D01*
X73327779Y-82956290D01*
X71285592Y-80914104D01*
X71273539Y-80899417D01*
X71214945Y-80851331D01*
X71148097Y-80815600D01*
X71138234Y-80812608D01*
X72635720Y-80812608D01*
X72783590Y-80960479D01*
X72742891Y-81058735D01*
X72703700Y-81255759D01*
X72703700Y-81456641D01*
X72742891Y-81653665D01*
X72819765Y-81839256D01*
X72931370Y-82006284D01*
X73073416Y-82148330D01*
X73240444Y-82259935D01*
X73426035Y-82336809D01*
X73623059Y-82376000D01*
X73823941Y-82376000D01*
X74020965Y-82336809D01*
X74206556Y-82259935D01*
X74373584Y-82148330D01*
X74515630Y-82006284D01*
X74627235Y-81839256D01*
X74704109Y-81653665D01*
X74743300Y-81456641D01*
X74743300Y-81255759D01*
X74704109Y-81058735D01*
X74627235Y-80873144D01*
X74515630Y-80706116D01*
X74373584Y-80564070D01*
X74206556Y-80452465D01*
X74020965Y-80375591D01*
X73823941Y-80336400D01*
X73623059Y-80336400D01*
X73426035Y-80375591D01*
X73327779Y-80416290D01*
X73080572Y-80169084D01*
X73068519Y-80154397D01*
X73009925Y-80106311D01*
X72943077Y-80070580D01*
X72916764Y-80062598D01*
X74425710Y-80062598D01*
X75323590Y-80960479D01*
X75282891Y-81058735D01*
X75243700Y-81255759D01*
X75243700Y-81456641D01*
X75282891Y-81653665D01*
X75359765Y-81839256D01*
X75471370Y-82006284D01*
X75613416Y-82148330D01*
X75780444Y-82259935D01*
X75966035Y-82336809D01*
X76163059Y-82376000D01*
X76363941Y-82376000D01*
X76560965Y-82336809D01*
X76746556Y-82259935D01*
X76913584Y-82148330D01*
X76945502Y-82116412D01*
X76945501Y-83135987D01*
X76913584Y-83104070D01*
X76746556Y-82992465D01*
X76560965Y-82915591D01*
X76363941Y-82876400D01*
X76163059Y-82876400D01*
X75966035Y-82915591D01*
X75780444Y-82992465D01*
X75613416Y-83104070D01*
X75471370Y-83246116D01*
X75359765Y-83413144D01*
X75282891Y-83598735D01*
X75243700Y-83795759D01*
X75243700Y-83996641D01*
X75282891Y-84193665D01*
X75323590Y-84291922D01*
X75242771Y-84372741D01*
X75242766Y-84372745D01*
X74630913Y-84984599D01*
X68356458Y-84984599D01*
X65917278Y-82545420D01*
X65917900Y-82542293D01*
X65917900Y-82422567D01*
X65894543Y-82305141D01*
X65848725Y-82194529D01*
X65782209Y-82094980D01*
X65697550Y-82010321D01*
X65598001Y-81943805D01*
X65487389Y-81897987D01*
X65369963Y-81874630D01*
X65250237Y-81874630D01*
X65132811Y-81897987D01*
X65022199Y-81943805D01*
X64922650Y-82010321D01*
X64837991Y-82094980D01*
X64771475Y-82194529D01*
X64725657Y-82305141D01*
X64702300Y-82422567D01*
X64702300Y-82542293D01*
X64725657Y-82659719D01*
X64771475Y-82770331D01*
X64837991Y-82869880D01*
X64922650Y-82954539D01*
X65022199Y-83021055D01*
X65132811Y-83066873D01*
X65250237Y-83090230D01*
X65369963Y-83090230D01*
X65373090Y-83089608D01*
X67911609Y-85628128D01*
X67923658Y-85642810D01*
X67982252Y-85690896D01*
X68049100Y-85726627D01*
X68121635Y-85748630D01*
X68197069Y-85756060D01*
X68215963Y-85754199D01*
X72963287Y-85754199D01*
X72931370Y-85786116D01*
X72819765Y-85953144D01*
X72742891Y-86138735D01*
X72703700Y-86335759D01*
X72703700Y-86536641D01*
X72742891Y-86733665D01*
X72819765Y-86919256D01*
X72931370Y-87086284D01*
X73073416Y-87228330D01*
X73240444Y-87339935D01*
X73426035Y-87416809D01*
X73623059Y-87456000D01*
X73823941Y-87456000D01*
X74020965Y-87416809D01*
X74119221Y-87376110D01*
X74708040Y-87964929D01*
X74720089Y-87979611D01*
X74778683Y-88027697D01*
X74842912Y-88062028D01*
X74845531Y-88063428D01*
X74918065Y-88085431D01*
X74993499Y-88092861D01*
X75012393Y-88091000D01*
X75249863Y-88091000D01*
X75241562Y-88106530D01*
X75225551Y-88159310D01*
X75220145Y-88214200D01*
X75221500Y-88836200D01*
X75291500Y-88906200D01*
X76193500Y-88906200D01*
X76193500Y-88886200D01*
X76333500Y-88886200D01*
X76333500Y-88906200D01*
X77235500Y-88906200D01*
X77305500Y-88836200D01*
X77306855Y-88214200D01*
X77301449Y-88159310D01*
X77285438Y-88106530D01*
X77259438Y-88057888D01*
X77224448Y-88015252D01*
X77181812Y-87980262D01*
X77133170Y-87954262D01*
X77121858Y-87950830D01*
X77925501Y-87147188D01*
X77925501Y-91662800D01*
X48442800Y-91662800D01*
X48442800Y-86887691D01*
X48809900Y-86887691D01*
X48809900Y-87105909D01*
X48852472Y-87319933D01*
X48935981Y-87521540D01*
X49057216Y-87702981D01*
X49211519Y-87857284D01*
X49392960Y-87978519D01*
X49594567Y-88062028D01*
X49808591Y-88104600D01*
X50026809Y-88104600D01*
X50240833Y-88062028D01*
X50442440Y-87978519D01*
X50623881Y-87857284D01*
X50778184Y-87702981D01*
X50899419Y-87521540D01*
X50982928Y-87319933D01*
X51025500Y-87105909D01*
X51025500Y-86887691D01*
X50982928Y-86673667D01*
X50899419Y-86472060D01*
X50778184Y-86290619D01*
X50623881Y-86136316D01*
X50442440Y-86015081D01*
X50240833Y-85931572D01*
X50026809Y-85889000D01*
X49808591Y-85889000D01*
X49594567Y-85931572D01*
X49392960Y-86015081D01*
X49211519Y-86136316D01*
X49057216Y-86290619D01*
X48935981Y-86472060D01*
X48852472Y-86673667D01*
X48809900Y-86887691D01*
X48442800Y-86887691D01*
X48442800Y-84347691D01*
X48809900Y-84347691D01*
X48809900Y-84565909D01*
X48852472Y-84779933D01*
X48935981Y-84981540D01*
X49057216Y-85162981D01*
X49211519Y-85317284D01*
X49392960Y-85438519D01*
X49594567Y-85522028D01*
X49808591Y-85564600D01*
X50026809Y-85564600D01*
X50240833Y-85522028D01*
X50442440Y-85438519D01*
X50623881Y-85317284D01*
X50778184Y-85162981D01*
X50899419Y-84981540D01*
X50982928Y-84779933D01*
X51025500Y-84565909D01*
X51025500Y-84347691D01*
X50982928Y-84133667D01*
X50899419Y-83932060D01*
X50778184Y-83750619D01*
X50623881Y-83596316D01*
X50442440Y-83475081D01*
X50240833Y-83391572D01*
X50026809Y-83349000D01*
X49808591Y-83349000D01*
X49594567Y-83391572D01*
X49392960Y-83475081D01*
X49211519Y-83596316D01*
X49057216Y-83750619D01*
X48935981Y-83932060D01*
X48852472Y-84133667D01*
X48809900Y-84347691D01*
X48442800Y-84347691D01*
X48442800Y-81807691D01*
X48809900Y-81807691D01*
X48809900Y-82025909D01*
X48852472Y-82239933D01*
X48935981Y-82441540D01*
X49057216Y-82622981D01*
X49211519Y-82777284D01*
X49392960Y-82898519D01*
X49594567Y-82982028D01*
X49808591Y-83024600D01*
X50026809Y-83024600D01*
X50240833Y-82982028D01*
X50380774Y-82924062D01*
X50912241Y-83455530D01*
X50924290Y-83470212D01*
X50982884Y-83518298D01*
X51043227Y-83550552D01*
X51049732Y-83554029D01*
X51122267Y-83576032D01*
X51197701Y-83583462D01*
X51216595Y-83581601D01*
X51773542Y-83581601D01*
X51751519Y-83596316D01*
X51597216Y-83750619D01*
X51475981Y-83932060D01*
X51392472Y-84133667D01*
X51349900Y-84347691D01*
X51349900Y-84565909D01*
X51392472Y-84779933D01*
X51475981Y-84981540D01*
X51597216Y-85162981D01*
X51751519Y-85317284D01*
X51932960Y-85438519D01*
X52134567Y-85522028D01*
X52348591Y-85564600D01*
X52566809Y-85564600D01*
X52780833Y-85522028D01*
X52853809Y-85491800D01*
X54633030Y-87271022D01*
X54647070Y-87288130D01*
X54715333Y-87344151D01*
X54793213Y-87385779D01*
X54877718Y-87411413D01*
X54943579Y-87417900D01*
X54943580Y-87417900D01*
X54965599Y-87420069D01*
X54987618Y-87417900D01*
X57554146Y-87417900D01*
X57577378Y-87452670D01*
X57682930Y-87558222D01*
X57807047Y-87641154D01*
X57944958Y-87698278D01*
X58061131Y-87721387D01*
X57824318Y-87958200D01*
X53012850Y-87958200D01*
X53163881Y-87857284D01*
X53318184Y-87702981D01*
X53439419Y-87521540D01*
X53522928Y-87319933D01*
X53565500Y-87105909D01*
X53565500Y-86887691D01*
X53522928Y-86673667D01*
X53439419Y-86472060D01*
X53318184Y-86290619D01*
X53163881Y-86136316D01*
X52982440Y-86015081D01*
X52780833Y-85931572D01*
X52566809Y-85889000D01*
X52348591Y-85889000D01*
X52134567Y-85931572D01*
X51932960Y-86015081D01*
X51751519Y-86136316D01*
X51597216Y-86290619D01*
X51475981Y-86472060D01*
X51392472Y-86673667D01*
X51349900Y-86887691D01*
X51349900Y-87105909D01*
X51392472Y-87319933D01*
X51475981Y-87521540D01*
X51597216Y-87702981D01*
X51751519Y-87857284D01*
X51902550Y-87958200D01*
X51130393Y-87958200D01*
X51111499Y-87956339D01*
X51036065Y-87963769D01*
X50983841Y-87979611D01*
X50963531Y-87985772D01*
X50896683Y-88021503D01*
X50838089Y-88069589D01*
X50826040Y-88084271D01*
X50380774Y-88529538D01*
X50240833Y-88471572D01*
X50026809Y-88429000D01*
X49808591Y-88429000D01*
X49594567Y-88471572D01*
X49392960Y-88555081D01*
X49211519Y-88676316D01*
X49057216Y-88830619D01*
X48935981Y-89012060D01*
X48852472Y-89213667D01*
X48809900Y-89427691D01*
X48809900Y-89645909D01*
X48852472Y-89859933D01*
X48935981Y-90061540D01*
X49057216Y-90242981D01*
X49211519Y-90397284D01*
X49392960Y-90518519D01*
X49594567Y-90602028D01*
X49808591Y-90644600D01*
X50026809Y-90644600D01*
X50240833Y-90602028D01*
X50442440Y-90518519D01*
X50623881Y-90397284D01*
X50634365Y-90386800D01*
X51326345Y-90386800D01*
X51331751Y-90441690D01*
X51347762Y-90494470D01*
X51373762Y-90543112D01*
X51408752Y-90585748D01*
X51451388Y-90620738D01*
X51500030Y-90646738D01*
X51552810Y-90662749D01*
X51607700Y-90668155D01*
X52317700Y-90666800D01*
X52387700Y-90596800D01*
X52387700Y-89606800D01*
X52527700Y-89606800D01*
X52527700Y-90596800D01*
X52597700Y-90666800D01*
X53307700Y-90668155D01*
X53362590Y-90662749D01*
X53415370Y-90646738D01*
X53464012Y-90620738D01*
X53506648Y-90585748D01*
X53541638Y-90543112D01*
X53567638Y-90494470D01*
X53583649Y-90441690D01*
X53589055Y-90386800D01*
X53587700Y-89676800D01*
X53517700Y-89606800D01*
X52527700Y-89606800D01*
X52387700Y-89606800D01*
X51397700Y-89606800D01*
X51327700Y-89676800D01*
X51326345Y-90386800D01*
X50634365Y-90386800D01*
X50778184Y-90242981D01*
X50899419Y-90061540D01*
X50982928Y-89859933D01*
X51025500Y-89645909D01*
X51025500Y-89427691D01*
X50982928Y-89213667D01*
X50924962Y-89073726D01*
X51270889Y-88727800D01*
X51326423Y-88727800D01*
X51327700Y-89396800D01*
X51397700Y-89466800D01*
X52387700Y-89466800D01*
X52387700Y-89446800D01*
X52527700Y-89446800D01*
X52527700Y-89466800D01*
X53517700Y-89466800D01*
X53587700Y-89396800D01*
X53588694Y-88875759D01*
X72703700Y-88875759D01*
X72703700Y-89076641D01*
X72742891Y-89273665D01*
X72819765Y-89459256D01*
X72931370Y-89626284D01*
X73073416Y-89768330D01*
X73240444Y-89879935D01*
X73426035Y-89956809D01*
X73623059Y-89996000D01*
X73823941Y-89996000D01*
X74020965Y-89956809D01*
X74206556Y-89879935D01*
X74373584Y-89768330D01*
X74403714Y-89738200D01*
X75220145Y-89738200D01*
X75225551Y-89793090D01*
X75241562Y-89845870D01*
X75267562Y-89894512D01*
X75302552Y-89937148D01*
X75345188Y-89972138D01*
X75393830Y-89998138D01*
X75446610Y-90014149D01*
X75501500Y-90019555D01*
X76123500Y-90018200D01*
X76193500Y-89948200D01*
X76193500Y-89046200D01*
X76333500Y-89046200D01*
X76333500Y-89948200D01*
X76403500Y-90018200D01*
X77025500Y-90019555D01*
X77080390Y-90014149D01*
X77133170Y-89998138D01*
X77181812Y-89972138D01*
X77224448Y-89937148D01*
X77259438Y-89894512D01*
X77285438Y-89845870D01*
X77301449Y-89793090D01*
X77306855Y-89738200D01*
X77305500Y-89116200D01*
X77235500Y-89046200D01*
X76333500Y-89046200D01*
X76193500Y-89046200D01*
X75291500Y-89046200D01*
X75221500Y-89116200D01*
X75220145Y-89738200D01*
X74403714Y-89738200D01*
X74515630Y-89626284D01*
X74627235Y-89459256D01*
X74704109Y-89273665D01*
X74743300Y-89076641D01*
X74743300Y-88875759D01*
X74704109Y-88678735D01*
X74627235Y-88493144D01*
X74515630Y-88326116D01*
X74373584Y-88184070D01*
X74206556Y-88072465D01*
X74020965Y-87995591D01*
X73823941Y-87956400D01*
X73623059Y-87956400D01*
X73426035Y-87995591D01*
X73240444Y-88072465D01*
X73073416Y-88184070D01*
X72931370Y-88326116D01*
X72819765Y-88493144D01*
X72742891Y-88678735D01*
X72703700Y-88875759D01*
X53588694Y-88875759D01*
X53588977Y-88727800D01*
X57964812Y-88727800D01*
X57983706Y-88729661D01*
X58002600Y-88727800D01*
X58059140Y-88722231D01*
X58131675Y-88700228D01*
X58198523Y-88664497D01*
X58257117Y-88616411D01*
X58269171Y-88601723D01*
X62749430Y-84121465D01*
X62764111Y-84109417D01*
X62812197Y-84050823D01*
X62847928Y-83983975D01*
X62867459Y-83919590D01*
X62869931Y-83911441D01*
X62877361Y-83836007D01*
X62875500Y-83817113D01*
X62875500Y-83381278D01*
X62878150Y-83379507D01*
X62962809Y-83294848D01*
X63029325Y-83195299D01*
X63075143Y-83084687D01*
X63098500Y-82967261D01*
X63098500Y-82847535D01*
X63075143Y-82730109D01*
X63029325Y-82619497D01*
X62973200Y-82535500D01*
X63064563Y-82535500D01*
X63181989Y-82512143D01*
X63292601Y-82466325D01*
X63392150Y-82399809D01*
X63476809Y-82315150D01*
X63543325Y-82215601D01*
X63589143Y-82104989D01*
X63612500Y-81987563D01*
X63612500Y-81867837D01*
X63589143Y-81750411D01*
X63543325Y-81639799D01*
X63476809Y-81540250D01*
X63392150Y-81455591D01*
X63292601Y-81389075D01*
X63204250Y-81352478D01*
X63263946Y-81263135D01*
X63309764Y-81152523D01*
X63333121Y-81035097D01*
X63333121Y-80915371D01*
X63309764Y-80797945D01*
X63263946Y-80687333D01*
X63197430Y-80587784D01*
X63112771Y-80503125D01*
X63013222Y-80436609D01*
X62902610Y-80390791D01*
X62785184Y-80367434D01*
X62665458Y-80367434D01*
X62548032Y-80390791D01*
X62437420Y-80436609D01*
X62337871Y-80503125D01*
X62253212Y-80587784D01*
X62186696Y-80687333D01*
X62140878Y-80797945D01*
X62117521Y-80915371D01*
X62117521Y-81035097D01*
X62118143Y-81038223D01*
X60971397Y-82184970D01*
X60956710Y-82197023D01*
X60908624Y-82255618D01*
X60872894Y-82322465D01*
X60872893Y-82322466D01*
X60850890Y-82395000D01*
X60843460Y-82470434D01*
X60845321Y-82489328D01*
X60845322Y-83288472D01*
X60451527Y-83682268D01*
X54772055Y-83682268D01*
X54535830Y-83446044D01*
X54535826Y-83446039D01*
X54507551Y-83417764D01*
X54508173Y-83414638D01*
X54508173Y-83294912D01*
X54484816Y-83177486D01*
X54438998Y-83066874D01*
X54372482Y-82967325D01*
X54287823Y-82882666D01*
X54223899Y-82839954D01*
X56901590Y-82839954D01*
X56920484Y-82841815D01*
X56939378Y-82839954D01*
X56995918Y-82834385D01*
X57068453Y-82812382D01*
X57135301Y-82776651D01*
X57193895Y-82728565D01*
X57205948Y-82713878D01*
X59659111Y-80260716D01*
X59662237Y-80261338D01*
X59781963Y-80261338D01*
X59899389Y-80237981D01*
X60010001Y-80192163D01*
X60109550Y-80125647D01*
X60194209Y-80040988D01*
X60260725Y-79941439D01*
X60306543Y-79830827D01*
X60329900Y-79713401D01*
X60329900Y-79593675D01*
X60306543Y-79476249D01*
X60260725Y-79365637D01*
X60257492Y-79360798D01*
X61537500Y-79360798D01*
X61889522Y-79712820D01*
X61888900Y-79715947D01*
X61888900Y-79835673D01*
X61912257Y-79953099D01*
X61958075Y-80063711D01*
X62024591Y-80163260D01*
X62109250Y-80247919D01*
X62208799Y-80314435D01*
X62319411Y-80360253D01*
X62436837Y-80383610D01*
X62556563Y-80383610D01*
X62673989Y-80360253D01*
X62784601Y-80314435D01*
X62884150Y-80247919D01*
X62968809Y-80163260D01*
X63035325Y-80063711D01*
X63081143Y-79953099D01*
X63104500Y-79835673D01*
X63104500Y-79715947D01*
X63081143Y-79598521D01*
X63035325Y-79487909D01*
X62968809Y-79388360D01*
X62884150Y-79303701D01*
X62784601Y-79237185D01*
X62673989Y-79191367D01*
X62556563Y-79168010D01*
X62436837Y-79168010D01*
X62433710Y-79168632D01*
X61982352Y-78717274D01*
X61970299Y-78702587D01*
X61911705Y-78654501D01*
X61844857Y-78618770D01*
X61772322Y-78596767D01*
X61715782Y-78591198D01*
X61696888Y-78589337D01*
X61677994Y-78591198D01*
X58215094Y-78591198D01*
X58196200Y-78589337D01*
X58177306Y-78591198D01*
X58120766Y-78596767D01*
X58048231Y-78618770D01*
X57981383Y-78654501D01*
X57922789Y-78702587D01*
X57910740Y-78717269D01*
X56388067Y-80239943D01*
X56388062Y-80239947D01*
X56359787Y-80268222D01*
X56356661Y-80267600D01*
X56236935Y-80267600D01*
X56119509Y-80290957D01*
X56008897Y-80336775D01*
X55909348Y-80403291D01*
X55824689Y-80487950D01*
X55758173Y-80587499D01*
X55712355Y-80698111D01*
X55688998Y-80815537D01*
X55688998Y-80935263D01*
X55712355Y-81052689D01*
X55758173Y-81163301D01*
X55824689Y-81262850D01*
X55909348Y-81347509D01*
X56008897Y-81414025D01*
X56119509Y-81459843D01*
X56236935Y-81483200D01*
X56356661Y-81483200D01*
X56474087Y-81459843D01*
X56584699Y-81414025D01*
X56684248Y-81347509D01*
X56768907Y-81262850D01*
X56835423Y-81163301D01*
X56881241Y-81052689D01*
X56904598Y-80935263D01*
X56904598Y-80815537D01*
X56903976Y-80812411D01*
X56932251Y-80784136D01*
X56932255Y-80784131D01*
X58355589Y-79360798D01*
X59186708Y-79360798D01*
X59183475Y-79365637D01*
X59137657Y-79476249D01*
X59114300Y-79593675D01*
X59114300Y-79713401D01*
X59114922Y-79716527D01*
X56761096Y-82070354D01*
X53892845Y-82070354D01*
X53873951Y-82068493D01*
X53798517Y-82075923D01*
X53748146Y-82091203D01*
X53725983Y-82097926D01*
X53659135Y-82133657D01*
X53600541Y-82181743D01*
X53588492Y-82196425D01*
X53507332Y-82277585D01*
X53522928Y-82239933D01*
X53565500Y-82025909D01*
X53565500Y-81807691D01*
X53522928Y-81593667D01*
X53464962Y-81453726D01*
X55033836Y-79884854D01*
X55048511Y-79872811D01*
X55096597Y-79814217D01*
X55132328Y-79747369D01*
X55154331Y-79674834D01*
X55159900Y-79618294D01*
X55159900Y-79618293D01*
X55161761Y-79599400D01*
X55159900Y-79580506D01*
X55159900Y-78213588D01*
X56239965Y-77133524D01*
X56871326Y-77133524D01*
X56811530Y-77173478D01*
X56705978Y-77279030D01*
X56623046Y-77403147D01*
X56565922Y-77541058D01*
X56536800Y-77687463D01*
X56536800Y-77836737D01*
X56565922Y-77983142D01*
X56623046Y-78121053D01*
X56705978Y-78245170D01*
X56811530Y-78350722D01*
X56935647Y-78433654D01*
X57073558Y-78490778D01*
X57219963Y-78519900D01*
X57369237Y-78519900D01*
X57515642Y-78490778D01*
X57653553Y-78433654D01*
X57777670Y-78350722D01*
X57883222Y-78245170D01*
X57966154Y-78121053D01*
X58023278Y-77983142D01*
X58052400Y-77836737D01*
X58052400Y-77687463D01*
X58023278Y-77541058D01*
X57966154Y-77403147D01*
X57883222Y-77279030D01*
X57777670Y-77173478D01*
X57717874Y-77133524D01*
X58771326Y-77133524D01*
X58711530Y-77173478D01*
X58605978Y-77279030D01*
X58523046Y-77403147D01*
X58465922Y-77541058D01*
X58436800Y-77687463D01*
X58436800Y-77836737D01*
X58465922Y-77983142D01*
X58523046Y-78121053D01*
X58605978Y-78245170D01*
X58711530Y-78350722D01*
X58835647Y-78433654D01*
X58973558Y-78490778D01*
X59119963Y-78519900D01*
X59269237Y-78519900D01*
X59415642Y-78490778D01*
X59553553Y-78433654D01*
X59677670Y-78350722D01*
X59783222Y-78245170D01*
X59866154Y-78121053D01*
X59923278Y-77983142D01*
X59952400Y-77836737D01*
X59952400Y-77687463D01*
X59923278Y-77541058D01*
X59866154Y-77403147D01*
X59783222Y-77279030D01*
X59677670Y-77173478D01*
X59617874Y-77133524D01*
X63802095Y-77133524D01*
X63802095Y-77158586D01*
X63825452Y-77276012D01*
X63871270Y-77386624D01*
X63937786Y-77486173D01*
X64022445Y-77570832D01*
X64121994Y-77637348D01*
X64232606Y-77683166D01*
X64350032Y-77706523D01*
X64469758Y-77706523D01*
X64587184Y-77683166D01*
X64697796Y-77637348D01*
X64797345Y-77570832D01*
X64882004Y-77486173D01*
X64948520Y-77386624D01*
X64994338Y-77276012D01*
X65017695Y-77158586D01*
X65017695Y-77038860D01*
X64994338Y-76921434D01*
X64948520Y-76810822D01*
X64888226Y-76720585D01*
X64966750Y-76799109D01*
X65066299Y-76865625D01*
X65176911Y-76911443D01*
X65294337Y-76934800D01*
X65414063Y-76934800D01*
X65531489Y-76911443D01*
X65642101Y-76865625D01*
X65741650Y-76799109D01*
X65826309Y-76714450D01*
X65892825Y-76614901D01*
X65938643Y-76504289D01*
X65962000Y-76386863D01*
X65962000Y-76267137D01*
X65938643Y-76149711D01*
X65892825Y-76039099D01*
X65826309Y-75939550D01*
X65741650Y-75854891D01*
X65642101Y-75788375D01*
X65531489Y-75742557D01*
X65414063Y-75719200D01*
X65294337Y-75719200D01*
X65273425Y-75723360D01*
X65235469Y-75703072D01*
X65162934Y-75681069D01*
X65106394Y-75675500D01*
X65087500Y-75673639D01*
X65068606Y-75675500D01*
X55793093Y-75675500D01*
X55774199Y-75673639D01*
X55698765Y-75681069D01*
X55626231Y-75703072D01*
X55559383Y-75738803D01*
X55500789Y-75786889D01*
X55488740Y-75801571D01*
X52920774Y-78369538D01*
X52780833Y-78311572D01*
X52566809Y-78269000D01*
X52348591Y-78269000D01*
X52134567Y-78311572D01*
X51932960Y-78395081D01*
X51751519Y-78516316D01*
X51597216Y-78670619D01*
X51475981Y-78852060D01*
X51392472Y-79053667D01*
X51349900Y-79267691D01*
X51349900Y-79485909D01*
X51392472Y-79699933D01*
X51475981Y-79901540D01*
X51597216Y-80082981D01*
X51751519Y-80237284D01*
X51932960Y-80358519D01*
X52134567Y-80442028D01*
X52348591Y-80484600D01*
X52566809Y-80484600D01*
X52780833Y-80442028D01*
X52982440Y-80358519D01*
X53163881Y-80237284D01*
X53318184Y-80082981D01*
X53439419Y-79901540D01*
X53522928Y-79699933D01*
X53565500Y-79485909D01*
X53565500Y-79267691D01*
X53522928Y-79053667D01*
X53464962Y-78913726D01*
X54395426Y-77983262D01*
X54388439Y-78054200D01*
X54390301Y-78073104D01*
X54390300Y-79440010D01*
X52920774Y-80909538D01*
X52780833Y-80851572D01*
X52566809Y-80809000D01*
X52348591Y-80809000D01*
X52134567Y-80851572D01*
X51932960Y-80935081D01*
X51751519Y-81056316D01*
X51597216Y-81210619D01*
X51475981Y-81392060D01*
X51392472Y-81593667D01*
X51349900Y-81807691D01*
X51349900Y-82025909D01*
X51392472Y-82239933D01*
X51475981Y-82441540D01*
X51597216Y-82622981D01*
X51751519Y-82777284D01*
X51803477Y-82812001D01*
X51357090Y-82812001D01*
X50924962Y-82379874D01*
X50982928Y-82239933D01*
X51025500Y-82025909D01*
X51025500Y-81807691D01*
X50982928Y-81593667D01*
X50899419Y-81392060D01*
X50778184Y-81210619D01*
X50623881Y-81056316D01*
X50442440Y-80935081D01*
X50240833Y-80851572D01*
X50026809Y-80809000D01*
X49808591Y-80809000D01*
X49594567Y-80851572D01*
X49392960Y-80935081D01*
X49211519Y-81056316D01*
X49057216Y-81210619D01*
X48935981Y-81392060D01*
X48852472Y-81593667D01*
X48809900Y-81807691D01*
X48442800Y-81807691D01*
X48442800Y-79267691D01*
X48809900Y-79267691D01*
X48809900Y-79485909D01*
X48852472Y-79699933D01*
X48935981Y-79901540D01*
X49057216Y-80082981D01*
X49211519Y-80237284D01*
X49392960Y-80358519D01*
X49594567Y-80442028D01*
X49808591Y-80484600D01*
X50026809Y-80484600D01*
X50240833Y-80442028D01*
X50442440Y-80358519D01*
X50623881Y-80237284D01*
X50778184Y-80082981D01*
X50899419Y-79901540D01*
X50982928Y-79699933D01*
X51025500Y-79485909D01*
X51025500Y-79267691D01*
X50982928Y-79053667D01*
X50899419Y-78852060D01*
X50778184Y-78670619D01*
X50623881Y-78516316D01*
X50442440Y-78395081D01*
X50240833Y-78311572D01*
X50026809Y-78269000D01*
X49808591Y-78269000D01*
X49594567Y-78311572D01*
X49392960Y-78395081D01*
X49211519Y-78516316D01*
X49057216Y-78670619D01*
X48935981Y-78852060D01*
X48852472Y-79053667D01*
X48809900Y-79267691D01*
X48442800Y-79267691D01*
X48442800Y-76727691D01*
X48809900Y-76727691D01*
X48809900Y-76945909D01*
X48852472Y-77159933D01*
X48935981Y-77361540D01*
X49057216Y-77542981D01*
X49211519Y-77697284D01*
X49392960Y-77818519D01*
X49594567Y-77902028D01*
X49808591Y-77944600D01*
X50026809Y-77944600D01*
X50240833Y-77902028D01*
X50442440Y-77818519D01*
X50623881Y-77697284D01*
X50778184Y-77542981D01*
X50899419Y-77361540D01*
X50982928Y-77159933D01*
X50998356Y-77082370D01*
X51354706Y-77082370D01*
X51404160Y-77245408D01*
X51504119Y-77443092D01*
X51640724Y-77617477D01*
X51808725Y-77761861D01*
X52001665Y-77870695D01*
X52212130Y-77939797D01*
X52387700Y-77894633D01*
X52387700Y-76906800D01*
X52527700Y-76906800D01*
X52527700Y-77894633D01*
X52703270Y-77939797D01*
X52913735Y-77870695D01*
X53106675Y-77761861D01*
X53274676Y-77617477D01*
X53411281Y-77443092D01*
X53511240Y-77245408D01*
X53560694Y-77082370D01*
X53515386Y-76906800D01*
X52527700Y-76906800D01*
X52387700Y-76906800D01*
X51400014Y-76906800D01*
X51354706Y-77082370D01*
X50998356Y-77082370D01*
X51025500Y-76945909D01*
X51025500Y-76727691D01*
X50998357Y-76591230D01*
X51354706Y-76591230D01*
X51400014Y-76766800D01*
X52387700Y-76766800D01*
X52387700Y-75778967D01*
X52527700Y-75778967D01*
X52527700Y-76766800D01*
X53515386Y-76766800D01*
X53560694Y-76591230D01*
X53511240Y-76428192D01*
X53411281Y-76230508D01*
X53274676Y-76056123D01*
X53106675Y-75911739D01*
X52913735Y-75802905D01*
X52703270Y-75733803D01*
X52527700Y-75778967D01*
X52387700Y-75778967D01*
X52212130Y-75733803D01*
X52001665Y-75802905D01*
X51808725Y-75911739D01*
X51640724Y-76056123D01*
X51504119Y-76230508D01*
X51404160Y-76428192D01*
X51354706Y-76591230D01*
X50998357Y-76591230D01*
X50982928Y-76513667D01*
X50899419Y-76312060D01*
X50778184Y-76130619D01*
X50623881Y-75976316D01*
X50442440Y-75855081D01*
X50240833Y-75771572D01*
X50026809Y-75729000D01*
X49808591Y-75729000D01*
X49594567Y-75771572D01*
X49392960Y-75855081D01*
X49211519Y-75976316D01*
X49057216Y-76130619D01*
X48935981Y-76312060D01*
X48852472Y-76513667D01*
X48809900Y-76727691D01*
X48442800Y-76727691D01*
X48442800Y-74692800D01*
X77925500Y-74692800D01*
X77925500Y-78184056D01*
G36*
X58917786Y-86864731D02*
G01*
X58894678Y-86748558D01*
X58837554Y-86610647D01*
X58754622Y-86486530D01*
X58649070Y-86380978D01*
X58524953Y-86298046D01*
X58387042Y-86240922D01*
X58240637Y-86211800D01*
X58091363Y-86211800D01*
X57944958Y-86240922D01*
X57807047Y-86298046D01*
X57682930Y-86380978D01*
X57577378Y-86486530D01*
X57554146Y-86521300D01*
X55151292Y-86521300D01*
X54226192Y-85596200D01*
X54288863Y-85596200D01*
X54406289Y-85572843D01*
X54516901Y-85527025D01*
X54616450Y-85460509D01*
X54701109Y-85375850D01*
X54767625Y-85276301D01*
X54813443Y-85165689D01*
X54836800Y-85048263D01*
X54836800Y-84928537D01*
X54836178Y-84925411D01*
X54864453Y-84897136D01*
X54864458Y-84897130D01*
X54877909Y-84883679D01*
X60898838Y-84883679D01*
X58917786Y-86864731D01*
G37*
X58917786Y-86864731D02*
X58894678Y-86748558D01*
X58837554Y-86610647D01*
X58754622Y-86486530D01*
X58649070Y-86380978D01*
X58524953Y-86298046D01*
X58387042Y-86240922D01*
X58240637Y-86211800D01*
X58091363Y-86211800D01*
X57944958Y-86240922D01*
X57807047Y-86298046D01*
X57682930Y-86380978D01*
X57577378Y-86486530D01*
X57554146Y-86521300D01*
X55151292Y-86521300D01*
X54226192Y-85596200D01*
X54288863Y-85596200D01*
X54406289Y-85572843D01*
X54516901Y-85527025D01*
X54616450Y-85460509D01*
X54701109Y-85375850D01*
X54767625Y-85276301D01*
X54813443Y-85165689D01*
X54836800Y-85048263D01*
X54836800Y-84928537D01*
X54836178Y-84925411D01*
X54864453Y-84897136D01*
X54864458Y-84897130D01*
X54877909Y-84883679D01*
X60898838Y-84883679D01*
X58917786Y-86864731D01*
M02*
